G04*
G04 #@! TF.GenerationSoftware,Altium Limited,Altium Designer,23.7.1 (13)*
G04*
G04 Layer_Color=128*
%FSLAX44Y44*%
%MOMM*%
G71*
G04*
G04 #@! TF.SameCoordinates,0223C93B-7FE2-4649-842A-E085946BCD85*
G04*
G04*
G04 #@! TF.FilePolarity,Positive*
G04*
G01*
G75*
%ADD66C,0.1270*%
D66*
X1527220Y1037010D02*
X1544920D01*
X1536070Y1028160D02*
Y1045860D01*
X1619920Y1037010D02*
X1637620D01*
X1628770Y1028160D02*
Y1045860D01*
X1573570Y1007010D02*
X1591270D01*
X1582420Y998160D02*
Y1015860D01*
X1654220Y1036990D02*
X1671920D01*
X1663070Y1028140D02*
Y1045840D01*
X1746920Y1036990D02*
X1764620D01*
X1755770Y1028140D02*
Y1045840D01*
X1700570Y1006990D02*
X1718270D01*
X1709420Y998140D02*
Y1015840D01*
X1416920Y613410D02*
X1447920D01*
X1432420Y597910D02*
Y628910D01*
X1843920Y613410D02*
X1874920D01*
X1859420Y597910D02*
Y628910D01*
X1969420Y1084580D02*
X1987920D01*
X1978670Y1075330D02*
Y1093830D01*
X1922420Y1084580D02*
X1940920D01*
X1931670Y1075330D02*
Y1093830D01*
X1875420Y1084580D02*
X1893920D01*
X1884670Y1075330D02*
Y1093830D01*
X1969420Y965200D02*
X1987920D01*
X1978670Y955950D02*
Y974450D01*
X1922420Y965200D02*
X1940920D01*
X1931670Y955950D02*
Y974450D01*
X1875420Y965200D02*
X1893920D01*
X1884670Y955950D02*
Y974450D01*
X1743075Y311150D02*
X1749425D01*
X1746250Y307975D02*
Y314325D01*
X1743075Y285750D02*
X1749425D01*
X1746250Y282575D02*
Y288925D01*
X2543175Y311150D02*
X2549525D01*
X2546350Y307975D02*
Y314325D01*
X2543175Y285750D02*
X2549525D01*
X2546350Y282575D02*
Y288925D01*
X1261420Y849630D02*
X1268420D01*
X1264920Y846130D02*
Y853130D01*
X1286820Y849630D02*
X1293820D01*
X1290320Y846130D02*
Y853130D01*
X1965960Y843479D02*
X1973580D01*
X1969770Y839669D02*
Y847289D01*
X1991360Y843479D02*
X1998980D01*
X1995170Y839669D02*
Y847289D01*
X1192530Y850900D02*
X1200150D01*
X1196340Y847090D02*
Y854710D01*
X1217930Y850900D02*
X1225550D01*
X1221740Y847090D02*
Y854710D01*
X2980000Y736600D02*
X2989000D01*
X2984500Y732100D02*
Y741100D01*
X2980000Y762000D02*
X2989000D01*
X2984500Y757500D02*
Y766500D01*
X2980000Y787400D02*
X2989000D01*
X2984500Y782900D02*
Y791900D01*
X2980000Y812800D02*
X2989000D01*
X2984500Y808300D02*
Y817300D01*
X2980000Y838200D02*
X2989000D01*
X2984500Y833700D02*
Y842700D01*
X2980000Y863600D02*
X2989000D01*
X2984500Y859100D02*
Y868100D01*
X2980000Y889000D02*
X2989000D01*
X2984500Y884500D02*
Y893500D01*
X2980000Y914400D02*
X2989000D01*
X2984500Y909900D02*
Y918900D01*
X2980000Y939800D02*
X2989000D01*
X2984500Y935300D02*
Y944300D01*
X2980000Y965200D02*
X2989000D01*
X2984500Y960700D02*
Y969700D01*
X2980000Y990600D02*
X2989000D01*
X2984500Y986100D02*
Y995100D01*
X2980000Y1016000D02*
X2989000D01*
X2984500Y1011500D02*
Y1020500D01*
X2980000Y1041400D02*
X2989000D01*
X2984500Y1036900D02*
Y1045900D01*
X2980000Y1066800D02*
X2989000D01*
X2984500Y1062300D02*
Y1071300D01*
X2980000Y1092200D02*
X2989000D01*
X2984500Y1087700D02*
Y1096700D01*
X2827600Y736600D02*
X2836600D01*
X2832100Y732100D02*
Y741100D01*
X2827600Y762000D02*
X2836600D01*
X2832100Y757500D02*
Y766500D01*
X2827600Y787400D02*
X2836600D01*
X2832100Y782900D02*
Y791900D01*
X2827600Y812800D02*
X2836600D01*
X2832100Y808300D02*
Y817300D01*
X2827600Y838200D02*
X2836600D01*
X2832100Y833700D02*
Y842700D01*
X2827600Y863600D02*
X2836600D01*
X2832100Y859100D02*
Y868100D01*
X2827600Y889000D02*
X2836600D01*
X2832100Y884500D02*
Y893500D01*
X2827600Y914400D02*
X2836600D01*
X2832100Y909900D02*
Y918900D01*
X2827600Y939800D02*
X2836600D01*
X2832100Y935300D02*
Y944300D01*
X2827600Y965200D02*
X2836600D01*
X2832100Y960700D02*
Y969700D01*
X2827600Y990600D02*
X2836600D01*
X2832100Y986100D02*
Y995100D01*
X2827600Y1016000D02*
X2836600D01*
X2832100Y1011500D02*
Y1020500D01*
X2827600Y1041400D02*
X2836600D01*
X2832100Y1036900D02*
Y1045900D01*
X2827600Y1066800D02*
X2836600D01*
X2832100Y1062300D02*
Y1071300D01*
X2827600Y1092200D02*
X2836600D01*
X2832100Y1087700D02*
Y1096700D01*
X3005130Y651510D02*
X3012130D01*
X3008630Y648010D02*
Y655010D01*
X3005130Y626110D02*
X3012130D01*
X3008630Y622610D02*
Y629610D01*
X1381070Y1066800D02*
X1390070D01*
X1385570Y1062300D02*
Y1071300D01*
X1406470Y1066800D02*
X1415470D01*
X1410970Y1062300D02*
Y1071300D01*
X1431870Y1066800D02*
X1440870D01*
X1436370Y1062300D02*
Y1071300D01*
X2253560Y718820D02*
X2262560D01*
X2258060Y714320D02*
Y723320D01*
X2278960Y718820D02*
X2287960D01*
X2283460Y714320D02*
Y723320D01*
X2304360Y718820D02*
X2313360D01*
X2308860Y714320D02*
Y723320D01*
X2329760Y718820D02*
X2338760D01*
X2334260Y714320D02*
Y723320D01*
X2355160Y718820D02*
X2364160D01*
X2359660Y714320D02*
Y723320D01*
X2380560Y718820D02*
X2389560D01*
X2385060Y714320D02*
Y723320D01*
X1216740Y919480D02*
X1226740D01*
X1221740Y914480D02*
Y924480D01*
X1242140Y919480D02*
X1252140D01*
X1247140Y914480D02*
Y924480D01*
X1267540Y919480D02*
X1277540D01*
X1272540Y914480D02*
Y924480D01*
X1918530Y852170D02*
X1927030D01*
X1922780Y847920D02*
Y856420D01*
X1918530Y775970D02*
X1927030D01*
X1922780Y771720D02*
Y780220D01*
X1967230Y781050D02*
X1974850D01*
X1971040Y777240D02*
Y784860D01*
X1992630Y781050D02*
X2000250D01*
X1996440Y777240D02*
Y784860D01*
X2713300Y774700D02*
X2722300D01*
X2717800Y770200D02*
Y779200D01*
X2713300Y800100D02*
X2722300D01*
X2717800Y795600D02*
Y804600D01*
X2713300Y825500D02*
X2722300D01*
X2717800Y821000D02*
Y830000D01*
X2713300Y850900D02*
X2722300D01*
X2717800Y846400D02*
Y855400D01*
X2713300Y876300D02*
X2722300D01*
X2717800Y871800D02*
Y880800D01*
X2713300Y901700D02*
X2722300D01*
X2717800Y897200D02*
Y906200D01*
X2713300Y927100D02*
X2722300D01*
X2717800Y922600D02*
Y931600D01*
X2713300Y952500D02*
X2722300D01*
X2717800Y948000D02*
Y957000D01*
X2713300Y977900D02*
X2722300D01*
X2717800Y973400D02*
Y982400D01*
X2713300Y1003300D02*
X2722300D01*
X2717800Y998800D02*
Y1007800D01*
X2713300Y1028700D02*
X2722300D01*
X2717800Y1024200D02*
Y1033200D01*
X2713300Y1054100D02*
X2722300D01*
X2717800Y1049600D02*
Y1058600D01*
X2713300Y1079500D02*
X2722300D01*
X2717800Y1075000D02*
Y1084000D01*
X2713300Y1104900D02*
X2722300D01*
X2717800Y1100400D02*
Y1109400D01*
X2535500Y774700D02*
X2544500D01*
X2540000Y770200D02*
Y779200D01*
X2535500Y800100D02*
X2544500D01*
X2540000Y795600D02*
Y804600D01*
X2535500Y825500D02*
X2544500D01*
X2540000Y821000D02*
Y830000D01*
X2535500Y850900D02*
X2544500D01*
X2540000Y846400D02*
Y855400D01*
X2535500Y876300D02*
X2544500D01*
X2540000Y871800D02*
Y880800D01*
X2535500Y901700D02*
X2544500D01*
X2540000Y897200D02*
Y906200D01*
X2535500Y927100D02*
X2544500D01*
X2540000Y922600D02*
Y931600D01*
X2535500Y952500D02*
X2544500D01*
X2540000Y948000D02*
Y957000D01*
X2535500Y977900D02*
X2544500D01*
X2540000Y973400D02*
Y982400D01*
X2535500Y1003300D02*
X2544500D01*
X2540000Y998800D02*
Y1007800D01*
X2535500Y1028700D02*
X2544500D01*
X2540000Y1024200D02*
Y1033200D01*
X2535500Y1054100D02*
X2544500D01*
X2540000Y1049600D02*
Y1058600D01*
X2535500Y1079500D02*
X2544500D01*
X2540000Y1075000D02*
Y1084000D01*
X2535500Y1104900D02*
X2544500D01*
X2540000Y1100400D02*
Y1109400D01*
X1882970Y876300D02*
X1891470D01*
X1887220Y872050D02*
Y880550D01*
X1882970Y800100D02*
X1891470D01*
X1887220Y795850D02*
Y804350D01*
X117475Y252730D02*
X123825D01*
X120650Y249555D02*
Y255905D01*
X117475Y227330D02*
X123825D01*
X120650Y224155D02*
Y230505D01*
X987425Y252730D02*
X993775D01*
X990600Y249555D02*
Y255905D01*
X987425Y227330D02*
X993775D01*
X990600Y224155D02*
Y230505D01*
X1698625Y252730D02*
X1704975D01*
X1701800Y249555D02*
Y255905D01*
X1698625Y227330D02*
X1704975D01*
X1701800Y224155D02*
Y230505D01*
X2409825Y252730D02*
X2416175D01*
X2413000Y249555D02*
Y255905D01*
X2409825Y227330D02*
X2416175D01*
X2413000Y224155D02*
Y230505D01*
X2720975Y311150D02*
X2727325D01*
X2724150Y307975D02*
Y314325D01*
X2720975Y285750D02*
X2727325D01*
X2724150Y282575D02*
Y288925D01*
X2009775Y311150D02*
X2016125D01*
X2012950Y307975D02*
Y314325D01*
X2009775Y285750D02*
X2016125D01*
X2012950Y282575D02*
Y288925D01*
X1298575Y311150D02*
X1304925D01*
X1301750Y307975D02*
Y314325D01*
X1298575Y285750D02*
X1304925D01*
X1301750Y282575D02*
Y288925D01*
X587375Y311150D02*
X593725D01*
X590550Y307975D02*
Y314325D01*
X587375Y285750D02*
X593725D01*
X590550Y282575D02*
Y288925D01*
X765175Y252730D02*
X771525D01*
X768350Y249555D02*
Y255905D01*
X765175Y227330D02*
X771525D01*
X768350Y224155D02*
Y230505D01*
X1476375Y252730D02*
X1482725D01*
X1479550Y249555D02*
Y255905D01*
X1476375Y227330D02*
X1482725D01*
X1479550Y224155D02*
Y230505D01*
X2187575Y252730D02*
X2193925D01*
X2190750Y249555D02*
Y255905D01*
X2187575Y227330D02*
X2193925D01*
X2190750Y224155D02*
Y230505D01*
X2898775Y252730D02*
X2905125D01*
X2901950Y249555D02*
Y255905D01*
X2898775Y227330D02*
X2905125D01*
X2901950Y224155D02*
Y230505D01*
X2232025Y311150D02*
X2238375D01*
X2235200Y307975D02*
Y314325D01*
X2232025Y285750D02*
X2238375D01*
X2235200Y282575D02*
Y288925D01*
X1520825Y311150D02*
X1527175D01*
X1524000Y307975D02*
Y314325D01*
X1520825Y285750D02*
X1527175D01*
X1524000Y282575D02*
Y288925D01*
X809625Y311150D02*
X815975D01*
X812800Y307975D02*
Y314325D01*
X809625Y285750D02*
X815975D01*
X812800Y282575D02*
Y288925D01*
X265103Y504433D02*
X271453D01*
X268278Y501258D02*
Y507608D01*
X245646Y488106D02*
X251996D01*
X248821Y484931D02*
Y491281D01*
X306067Y364729D02*
X312417D01*
X309242Y361554D02*
Y367904D01*
X286609Y348403D02*
X292959D01*
X289785Y345228D02*
Y351578D01*
X942975Y252730D02*
X949325D01*
X946150Y249555D02*
Y255905D01*
X942975Y227330D02*
X949325D01*
X946150Y224155D02*
Y230505D01*
X1654175Y252730D02*
X1660525D01*
X1657350Y249555D02*
Y255905D01*
X1654175Y227330D02*
X1660525D01*
X1657350Y224155D02*
Y230505D01*
X2365375Y252730D02*
X2371725D01*
X2368550Y249555D02*
Y255905D01*
X2365375Y227330D02*
X2371725D01*
X2368550Y224155D02*
Y230505D01*
X2765425Y311150D02*
X2771775D01*
X2768600Y307975D02*
Y314325D01*
X2765425Y285750D02*
X2771775D01*
X2768600Y282575D02*
Y288925D01*
X2054225Y311150D02*
X2060575D01*
X2057400Y307975D02*
Y314325D01*
X2054225Y285750D02*
X2060575D01*
X2057400Y282575D02*
Y288925D01*
X1343025Y311150D02*
X1349375D01*
X1346200Y307975D02*
Y314325D01*
X1343025Y285750D02*
X1349375D01*
X1346200Y282575D02*
Y288925D01*
X631825Y311150D02*
X638175D01*
X635000Y307975D02*
Y314325D01*
X631825Y285750D02*
X638175D01*
X635000Y282575D02*
Y288925D01*
X720725Y252730D02*
X727075D01*
X723900Y249555D02*
Y255905D01*
X720725Y227330D02*
X727075D01*
X723900Y224155D02*
Y230505D01*
X1431925Y252730D02*
X1438275D01*
X1435100Y249555D02*
Y255905D01*
X1431925Y227330D02*
X1438275D01*
X1435100Y224155D02*
Y230505D01*
X2143125Y252730D02*
X2149475D01*
X2146300Y249555D02*
Y255905D01*
X2143125Y227330D02*
X2149475D01*
X2146300Y224155D02*
Y230505D01*
X2854325Y252730D02*
X2860675D01*
X2857500Y249555D02*
Y255905D01*
X2854325Y227330D02*
X2860675D01*
X2857500Y224155D02*
Y230505D01*
X2276475Y311150D02*
X2282825D01*
X2279650Y307975D02*
Y314325D01*
X2276475Y285750D02*
X2282825D01*
X2279650Y282575D02*
Y288925D01*
X1565275Y311150D02*
X1571625D01*
X1568450Y307975D02*
Y314325D01*
X1565275Y285750D02*
X1571625D01*
X1568450Y282575D02*
Y288925D01*
X854075Y311150D02*
X860425D01*
X857250Y307975D02*
Y314325D01*
X854075Y285750D02*
X860425D01*
X857250Y282575D02*
Y288925D01*
X293675Y470382D02*
X300025D01*
X296850Y467207D02*
Y473557D01*
X274218Y454055D02*
X280568D01*
X277393Y450881D02*
Y457230D01*
X676275Y252730D02*
X682625D01*
X679450Y249555D02*
Y255905D01*
X676275Y227330D02*
X682625D01*
X679450Y224155D02*
Y230505D01*
X1387475Y252730D02*
X1393825D01*
X1390650Y249555D02*
Y255905D01*
X1387475Y227330D02*
X1393825D01*
X1390650Y224155D02*
Y230505D01*
X2098675Y252730D02*
X2105025D01*
X2101850Y249555D02*
Y255905D01*
X2098675Y227330D02*
X2105025D01*
X2101850Y224155D02*
Y230505D01*
X2809875Y252730D02*
X2816225D01*
X2813050Y249555D02*
Y255905D01*
X2809875Y227330D02*
X2816225D01*
X2813050Y224155D02*
Y230505D01*
X2320925Y311150D02*
X2327275D01*
X2324100Y307975D02*
Y314325D01*
X2320925Y285750D02*
X2327275D01*
X2324100Y282575D02*
Y288925D01*
X1609725Y311150D02*
X1616075D01*
X1612900Y307975D02*
Y314325D01*
X1609725Y285750D02*
X1616075D01*
X1612900Y282575D02*
Y288925D01*
X898525Y311150D02*
X904875D01*
X901700Y307975D02*
Y314325D01*
X898525Y285750D02*
X904875D01*
X901700Y282575D02*
Y288925D01*
X322247Y436332D02*
X328597D01*
X325422Y433157D02*
Y439507D01*
X302790Y420005D02*
X309140D01*
X305965Y416830D02*
Y423180D01*
X277495Y398780D02*
X283845D01*
X280670Y395605D02*
Y401955D01*
X258038Y382453D02*
X264388D01*
X261213Y379278D02*
Y385628D01*
X898525Y252730D02*
X904875D01*
X901700Y249555D02*
Y255905D01*
X898525Y227330D02*
X904875D01*
X901700Y224155D02*
Y230505D01*
X1609725Y252730D02*
X1616075D01*
X1612900Y249555D02*
Y255905D01*
X1609725Y227330D02*
X1616075D01*
X1612900Y224155D02*
Y230505D01*
X2320925Y252730D02*
X2327275D01*
X2324100Y249555D02*
Y255905D01*
X2320925Y227330D02*
X2327275D01*
X2324100Y224155D02*
Y230505D01*
X2809875Y311150D02*
X2816225D01*
X2813050Y307975D02*
Y314325D01*
X2809875Y285750D02*
X2816225D01*
X2813050Y282575D02*
Y288925D01*
X2098675Y311150D02*
X2105025D01*
X2101850Y307975D02*
Y314325D01*
X2098675Y285750D02*
X2105025D01*
X2101850Y282575D02*
Y288925D01*
X1387475Y311150D02*
X1393825D01*
X1390650Y307975D02*
Y314325D01*
X1387475Y285750D02*
X1393825D01*
X1390650Y282575D02*
Y288925D01*
X676275Y311150D02*
X682625D01*
X679450Y307975D02*
Y314325D01*
X676275Y285750D02*
X682625D01*
X679450Y282575D02*
Y288925D01*
X631825Y252730D02*
X638175D01*
X635000Y249555D02*
Y255905D01*
X631825Y227330D02*
X638175D01*
X635000Y224155D02*
Y230505D01*
X1343025Y252730D02*
X1349375D01*
X1346200Y249555D02*
Y255905D01*
X1343025Y227330D02*
X1349375D01*
X1346200Y224155D02*
Y230505D01*
X2054225Y252730D02*
X2060575D01*
X2057400Y249555D02*
Y255905D01*
X2054225Y227330D02*
X2060575D01*
X2057400Y224155D02*
Y230505D01*
X2765425Y252730D02*
X2771775D01*
X2768600Y249555D02*
Y255905D01*
X2765425Y227330D02*
X2771775D01*
X2768600Y224155D02*
Y230505D01*
X2365375Y311150D02*
X2371725D01*
X2368550Y307975D02*
Y314325D01*
X2365375Y285750D02*
X2371725D01*
X2368550Y282575D02*
Y288925D01*
X1654175Y311150D02*
X1660525D01*
X1657350Y307975D02*
Y314325D01*
X1654175Y285750D02*
X1660525D01*
X1657350Y282575D02*
Y288925D01*
X942975Y311150D02*
X949325D01*
X946150Y307975D02*
Y314325D01*
X942975Y285750D02*
X949325D01*
X946150Y282575D02*
Y288925D01*
X350819Y402281D02*
X357169D01*
X353994Y399106D02*
Y405456D01*
X331362Y385954D02*
X337712D01*
X334537Y382779D02*
Y389129D01*
X248923Y432831D02*
X255273D01*
X252098Y429656D02*
Y436006D01*
X229466Y416504D02*
X235816D01*
X232641Y413329D02*
Y419679D01*
X854075Y252730D02*
X860425D01*
X857250Y249555D02*
Y255905D01*
X854075Y227330D02*
X860425D01*
X857250Y224155D02*
Y230505D01*
X1565275Y252730D02*
X1571625D01*
X1568450Y249555D02*
Y255905D01*
X1565275Y227330D02*
X1571625D01*
X1568450Y224155D02*
Y230505D01*
X2276475Y252730D02*
X2282825D01*
X2279650Y249555D02*
Y255905D01*
X2276475Y227330D02*
X2282825D01*
X2279650Y224155D02*
Y230505D01*
X2854325Y311150D02*
X2860675D01*
X2857500Y307975D02*
Y314325D01*
X2854325Y285750D02*
X2860675D01*
X2857500Y282575D02*
Y288925D01*
X2143125Y311150D02*
X2149475D01*
X2146300Y307975D02*
Y314325D01*
X2143125Y285750D02*
X2149475D01*
X2146300Y282575D02*
Y288925D01*
X1431925Y311150D02*
X1438275D01*
X1435100Y307975D02*
Y314325D01*
X1431925Y285750D02*
X1438275D01*
X1435100Y282575D02*
Y288925D01*
X720725Y311150D02*
X727075D01*
X723900Y307975D02*
Y314325D01*
X720725Y285750D02*
X727075D01*
X723900Y282575D02*
Y288925D01*
X587375Y252730D02*
X593725D01*
X590550Y249555D02*
Y255905D01*
X587375Y227330D02*
X593725D01*
X590550Y224155D02*
Y230505D01*
X1298575Y252730D02*
X1304925D01*
X1301750Y249555D02*
Y255905D01*
X1298575Y227330D02*
X1304925D01*
X1301750Y224155D02*
Y230505D01*
X2009775Y252730D02*
X2016125D01*
X2012950Y249555D02*
Y255905D01*
X2009775Y227330D02*
X2016125D01*
X2012950Y224155D02*
Y230505D01*
X2720975Y252730D02*
X2727325D01*
X2724150Y249555D02*
Y255905D01*
X2720975Y227330D02*
X2727325D01*
X2724150Y224155D02*
Y230505D01*
X2409825Y311150D02*
X2416175D01*
X2413000Y307975D02*
Y314325D01*
X2409825Y285750D02*
X2416175D01*
X2413000Y282575D02*
Y288925D01*
X1698625Y311150D02*
X1704975D01*
X1701800Y307975D02*
Y314325D01*
X1698625Y285750D02*
X1704975D01*
X1701800Y282575D02*
Y288925D01*
X987425Y311150D02*
X993775D01*
X990600Y307975D02*
Y314325D01*
X987425Y285750D02*
X993775D01*
X990600Y282575D02*
Y288925D01*
X117475Y311150D02*
X123825D01*
X120650Y307975D02*
Y314325D01*
X117475Y285750D02*
X123825D01*
X120650Y282575D02*
Y288925D01*
X220351Y466881D02*
X226701D01*
X223526Y463707D02*
Y470056D01*
X200894Y450554D02*
X207244D01*
X204069Y447379D02*
Y453729D01*
X809625Y252730D02*
X815975D01*
X812800Y249555D02*
Y255905D01*
X809625Y227330D02*
X815975D01*
X812800Y224155D02*
Y230505D01*
X1520825Y252730D02*
X1527175D01*
X1524000Y249555D02*
Y255905D01*
X1520825Y227330D02*
X1527175D01*
X1524000Y224155D02*
Y230505D01*
X2232025Y252730D02*
X2238375D01*
X2235200Y249555D02*
Y255905D01*
X2232025Y227330D02*
X2238375D01*
X2235200Y224155D02*
Y230505D01*
X2898775Y311150D02*
X2905125D01*
X2901950Y307975D02*
Y314325D01*
X2898775Y285750D02*
X2905125D01*
X2901950Y282575D02*
Y288925D01*
X2187575Y311150D02*
X2193925D01*
X2190750Y307975D02*
Y314325D01*
X2187575Y285750D02*
X2193925D01*
X2190750Y282575D02*
Y288925D01*
X1476375Y311150D02*
X1482725D01*
X1479550Y307975D02*
Y314325D01*
X1476375Y285750D02*
X1482725D01*
X1479550Y282575D02*
Y288925D01*
X765175Y311150D02*
X771525D01*
X768350Y307975D02*
Y314325D01*
X765175Y285750D02*
X771525D01*
X768350Y282575D02*
Y288925D01*
X542925Y252730D02*
X549275D01*
X546100Y249555D02*
Y255905D01*
X542925Y227330D02*
X549275D01*
X546100Y224155D02*
Y230505D01*
X1254125Y252730D02*
X1260475D01*
X1257300Y249555D02*
Y255905D01*
X1254125Y227330D02*
X1260475D01*
X1257300Y224155D02*
Y230505D01*
X1965325Y252730D02*
X1971675D01*
X1968500Y249555D02*
Y255905D01*
X1965325Y227330D02*
X1971675D01*
X1968500Y224155D02*
Y230505D01*
X2676525Y252730D02*
X2682875D01*
X2679700Y249555D02*
Y255905D01*
X2676525Y227330D02*
X2682875D01*
X2679700Y224155D02*
Y230505D01*
X2454275Y311150D02*
X2460625D01*
X2457450Y307975D02*
Y314325D01*
X2454275Y285750D02*
X2460625D01*
X2457450Y282575D02*
Y288925D01*
X1031875Y311150D02*
X1038225D01*
X1035050Y307975D02*
Y314325D01*
X1031875Y285750D02*
X1038225D01*
X1035050Y282575D02*
Y288925D01*
X161925Y311150D02*
X168275D01*
X165100Y307975D02*
Y314325D01*
X161925Y285750D02*
X168275D01*
X165100Y282575D02*
Y288925D01*
X498475Y252730D02*
X504825D01*
X501650Y249555D02*
Y255905D01*
X498475Y227330D02*
X504825D01*
X501650Y224155D02*
Y230505D01*
X1209675Y252730D02*
X1216025D01*
X1212850Y249555D02*
Y255905D01*
X1209675Y227330D02*
X1216025D01*
X1212850Y224155D02*
Y230505D01*
X1920875Y252730D02*
X1927225D01*
X1924050Y249555D02*
Y255905D01*
X1920875Y227330D02*
X1927225D01*
X1924050Y224155D02*
Y230505D01*
X2632075Y252730D02*
X2638425D01*
X2635250Y249555D02*
Y255905D01*
X2632075Y227330D02*
X2638425D01*
X2635250Y224155D02*
Y230505D01*
X2498725Y311150D02*
X2505075D01*
X2501900Y307975D02*
Y314325D01*
X2498725Y285750D02*
X2505075D01*
X2501900Y282575D02*
Y288925D01*
X1787525Y311150D02*
X1793875D01*
X1790700Y307975D02*
Y314325D01*
X1787525Y285750D02*
X1793875D01*
X1790700Y282575D02*
Y288925D01*
X1076325Y311150D02*
X1082675D01*
X1079500Y307975D02*
Y314325D01*
X1076325Y285750D02*
X1082675D01*
X1079500Y282575D02*
Y288925D01*
X206375Y311150D02*
X212725D01*
X209550Y307975D02*
Y314325D01*
X206375Y285750D02*
X212725D01*
X209550Y282575D02*
Y288925D01*
X454025Y252730D02*
X460375D01*
X457200Y249555D02*
Y255905D01*
X454025Y227330D02*
X460375D01*
X457200Y224155D02*
Y230505D01*
X1165225Y252730D02*
X1171575D01*
X1168400Y249555D02*
Y255905D01*
X1165225Y227330D02*
X1171575D01*
X1168400Y224155D02*
Y230505D01*
X1876425Y252730D02*
X1882775D01*
X1879600Y249555D02*
Y255905D01*
X1876425Y227330D02*
X1882775D01*
X1879600Y224155D02*
Y230505D01*
X2587625Y252730D02*
X2593975D01*
X2590800Y249555D02*
Y255905D01*
X2587625Y227330D02*
X2593975D01*
X2590800Y224155D02*
Y230505D01*
X1831975Y311150D02*
X1838325D01*
X1835150Y307975D02*
Y314325D01*
X1831975Y285750D02*
X1838325D01*
X1835150Y282575D02*
Y288925D01*
X1120775Y311150D02*
X1127125D01*
X1123950Y307975D02*
Y314325D01*
X1120775Y285750D02*
X1127125D01*
X1123950Y282575D02*
Y288925D01*
X250825Y311150D02*
X257175D01*
X254000Y307975D02*
Y314325D01*
X250825Y285750D02*
X257175D01*
X254000Y282575D02*
Y288925D01*
X250825Y252730D02*
X257175D01*
X254000Y249555D02*
Y255905D01*
X250825Y227330D02*
X257175D01*
X254000Y224155D02*
Y230505D01*
X1120775Y252730D02*
X1127125D01*
X1123950Y249555D02*
Y255905D01*
X1120775Y227330D02*
X1127125D01*
X1123950Y224155D02*
Y230505D01*
X1831975Y252730D02*
X1838325D01*
X1835150Y249555D02*
Y255905D01*
X1831975Y227330D02*
X1838325D01*
X1835150Y224155D02*
Y230505D01*
X2543175Y252730D02*
X2549525D01*
X2546350Y249555D02*
Y255905D01*
X2543175Y227330D02*
X2549525D01*
X2546350Y224155D02*
Y230505D01*
X2587625Y311150D02*
X2593975D01*
X2590800Y307975D02*
Y314325D01*
X2587625Y285750D02*
X2593975D01*
X2590800Y282575D02*
Y288925D01*
X1876425Y311150D02*
X1882775D01*
X1879600Y307975D02*
Y314325D01*
X1876425Y285750D02*
X1882775D01*
X1879600Y282575D02*
Y288925D01*
X1165225Y311150D02*
X1171575D01*
X1168400Y307975D02*
Y314325D01*
X1165225Y285750D02*
X1171575D01*
X1168400Y282575D02*
Y288925D01*
X454025Y311150D02*
X460375D01*
X457200Y307975D02*
Y314325D01*
X454025Y285750D02*
X460375D01*
X457200Y282575D02*
Y288925D01*
X206375Y252730D02*
X212725D01*
X209550Y249555D02*
Y255905D01*
X206375Y227330D02*
X212725D01*
X209550Y224155D02*
Y230505D01*
X1076325Y252730D02*
X1082675D01*
X1079500Y249555D02*
Y255905D01*
X1076325Y227330D02*
X1082675D01*
X1079500Y224155D02*
Y230505D01*
X1787525Y252730D02*
X1793875D01*
X1790700Y249555D02*
Y255905D01*
X1787525Y227330D02*
X1793875D01*
X1790700Y224155D02*
Y230505D01*
X2498725Y252730D02*
X2505075D01*
X2501900Y249555D02*
Y255905D01*
X2498725Y227330D02*
X2505075D01*
X2501900Y224155D02*
Y230505D01*
X2632075Y311150D02*
X2638425D01*
X2635250Y307975D02*
Y314325D01*
X2632075Y285750D02*
X2638425D01*
X2635250Y282575D02*
Y288925D01*
X1920875Y311150D02*
X1927225D01*
X1924050Y307975D02*
Y314325D01*
X1920875Y285750D02*
X1927225D01*
X1924050Y282575D02*
Y288925D01*
X1209675Y311150D02*
X1216025D01*
X1212850Y307975D02*
Y314325D01*
X1209675Y285750D02*
X1216025D01*
X1212850Y282575D02*
Y288925D01*
X498475Y311150D02*
X504825D01*
X501650Y307975D02*
Y314325D01*
X498475Y285750D02*
X504825D01*
X501650Y282575D02*
Y288925D01*
X161925Y252730D02*
X168275D01*
X165100Y249555D02*
Y255905D01*
X161925Y227330D02*
X168275D01*
X165100Y224155D02*
Y230505D01*
X1031875Y252730D02*
X1038225D01*
X1035050Y249555D02*
Y255905D01*
X1031875Y227330D02*
X1038225D01*
X1035050Y224155D02*
Y230505D01*
X1743075Y252730D02*
X1749425D01*
X1746250Y249555D02*
Y255905D01*
X1743075Y227330D02*
X1749425D01*
X1746250Y224155D02*
Y230505D01*
X2454275Y252730D02*
X2460625D01*
X2457450Y249555D02*
Y255905D01*
X2454275Y227330D02*
X2460625D01*
X2457450Y224155D02*
Y230505D01*
X2676525Y311150D02*
X2682875D01*
X2679700Y307975D02*
Y314325D01*
X2676525Y285750D02*
X2682875D01*
X2679700Y282575D02*
Y288925D01*
X1965325Y311150D02*
X1971675D01*
X1968500Y307975D02*
Y314325D01*
X1965325Y285750D02*
X1971675D01*
X1968500Y282575D02*
Y288925D01*
X1254125Y311150D02*
X1260475D01*
X1257300Y307975D02*
Y314325D01*
X1254125Y285750D02*
X1260475D01*
X1257300Y282575D02*
Y288925D01*
X542925Y311150D02*
X549275D01*
X546100Y307975D02*
Y314325D01*
X542925Y285750D02*
X549275D01*
X546100Y282575D02*
Y288925D01*
X2868676Y787400D02*
X2871724D01*
X2870200Y785876D02*
Y788924D01*
X2878836Y778510D02*
X2881884D01*
X2880360Y776986D02*
Y780034D01*
X2420366Y674370D02*
X2423414D01*
X2421890Y672846D02*
Y675894D01*
X2282190Y925830D02*
X2289810D01*
X2286000Y922020D02*
Y929640D01*
X2358390Y849630D02*
X2366010D01*
X2362200Y845820D02*
Y853440D01*
X2815336Y661670D02*
X2818384D01*
X2816860Y660146D02*
Y663194D01*
X2815336Y647700D02*
X2818384D01*
X2816860Y646176D02*
Y649224D01*
X2705735Y345440D02*
X2709545D01*
X2707640Y343535D02*
Y347345D01*
X1571625Y463550D02*
X1575435D01*
X1573530Y461645D02*
Y465455D01*
X2247265Y471805D02*
X2251075D01*
X2249170Y469900D02*
Y473710D01*
X1550416Y392430D02*
X1553464D01*
X1551940Y390906D02*
Y393954D01*
X2682875Y590550D02*
X2686685D01*
X2684780Y588645D02*
Y592455D01*
X2425065Y502920D02*
X2428875D01*
X2426970Y501015D02*
Y504825D01*
X2466340Y541655D02*
X2470150D01*
X2468245Y539750D02*
Y543560D01*
X2477516Y369570D02*
X2480564D01*
X2479040Y368046D02*
Y371094D01*
X2247265Y486410D02*
X2251075D01*
X2249170Y484505D02*
Y488315D01*
X2505075Y461010D02*
X2508885D01*
X2506980Y459105D02*
Y462915D01*
X2524125Y462280D02*
X2527935D01*
X2526030Y460375D02*
Y464185D01*
X2458085Y458470D02*
X2461895D01*
X2459990Y456565D02*
Y460375D01*
X1564005Y476250D02*
X1567815D01*
X1565910Y474345D02*
Y478155D01*
X1658366Y422910D02*
X1661414D01*
X1659890Y421386D02*
Y424434D01*
X1631696Y407670D02*
X1634744D01*
X1633220Y406146D02*
Y409194D01*
X479425Y467360D02*
X483235D01*
X481330Y465455D02*
Y469265D01*
X309245Y285750D02*
X313055D01*
X311150Y283845D02*
Y287655D01*
X479425Y454660D02*
X483235D01*
X481330Y452755D02*
Y456565D01*
X287655Y227330D02*
X291465D01*
X289560Y225425D02*
Y229235D01*
X2506472Y400050D02*
X2510028D01*
X2508250Y398272D02*
Y401828D01*
X2524252Y407607D02*
X2527808D01*
X2526030Y405829D02*
Y409384D01*
X2613152Y377190D02*
X2616708D01*
X2614930Y375412D02*
Y378968D01*
X2670175Y339090D02*
X2673985D01*
X2672080Y337185D02*
Y340995D01*
X2559685Y330073D02*
X2563495D01*
X2561590Y328168D02*
Y331978D01*
X2519426Y336804D02*
X2522474D01*
X2520950Y335280D02*
Y338328D01*
X2568702Y392176D02*
X2572258D01*
X2570480Y390398D02*
Y393954D01*
X2540762Y415163D02*
X2544318D01*
X2542540Y413385D02*
Y416941D01*
X2741295Y423164D02*
X2745105D01*
X2743200Y421259D02*
Y425069D01*
X2541905Y462280D02*
X2545715D01*
X2543810Y460375D02*
Y464185D01*
X2568575Y461010D02*
X2572385D01*
X2570480Y459105D02*
Y462915D01*
X2717165Y363220D02*
X2720975D01*
X2719070Y361315D02*
Y365125D01*
X2724785Y466090D02*
X2728595D01*
X2726690Y464185D02*
Y467995D01*
X2726436Y397764D02*
X2729484D01*
X2727960Y396240D02*
Y399288D01*
X2781046Y394970D02*
X2784094D01*
X2782570Y393446D02*
Y396494D01*
X2750185Y464820D02*
X2753995D01*
X2752090Y462915D02*
Y466725D01*
X2635885Y461010D02*
X2639695D01*
X2637790Y459105D02*
Y462915D01*
X2635885Y370840D02*
X2639695D01*
X2637790Y368935D02*
Y372745D01*
X2505456Y384810D02*
X2508504D01*
X2506980Y383286D02*
Y386334D01*
X2543556Y377190D02*
X2546604D01*
X2545080Y375666D02*
Y378714D01*
X2689225Y379730D02*
X2693035D01*
X2691130Y377825D02*
Y381635D01*
X2690495Y458470D02*
X2694305D01*
X2692400Y456565D02*
Y460375D01*
X2699385Y491490D02*
X2703195D01*
X2701290Y489585D02*
Y493395D01*
X2705735Y466090D02*
X2709545D01*
X2707640Y464185D02*
Y467995D01*
X2663825Y513080D02*
X2667635D01*
X2665730Y511175D02*
Y514985D01*
X2764155Y464820D02*
X2767965D01*
X2766060Y462915D02*
Y466725D01*
X2764155Y427990D02*
X2767965D01*
X2766060Y426085D02*
Y429895D01*
X2781935Y433070D02*
X2785745D01*
X2783840Y431165D02*
Y434975D01*
X2797556Y412750D02*
X2800604D01*
X2799080Y411226D02*
Y414274D01*
X2781935Y464820D02*
X2785745D01*
X2783840Y462915D02*
Y466725D01*
X2402586Y422656D02*
X2405634D01*
X2404110Y421132D02*
Y424180D01*
X2416162Y399936D02*
X2419210D01*
X2417686Y398412D02*
Y401460D01*
X2341626Y430530D02*
X2344674D01*
X2343150Y429006D02*
Y432054D01*
X2386076Y407670D02*
X2389124D01*
X2387600Y406146D02*
Y409194D01*
X2491486Y346710D02*
X2494534D01*
X2493010Y345186D02*
Y348234D01*
X2458212Y354330D02*
X2461768D01*
X2459990Y352552D02*
Y356108D01*
X2411476Y361950D02*
X2414524D01*
X2413000Y360426D02*
Y363474D01*
X2323846Y415290D02*
X2326894D01*
X2325370Y413766D02*
Y416814D01*
X2307336Y438150D02*
X2310384D01*
X2308860Y436626D02*
Y439674D01*
X2279396Y392430D02*
X2282444D01*
X2280920Y390906D02*
Y393954D01*
X2233676Y445770D02*
X2236724D01*
X2235200Y444246D02*
Y447294D01*
X2189226Y392430D02*
X2192274D01*
X2190750Y390906D02*
Y393954D01*
X2168906Y438150D02*
X2171954D01*
X2170430Y436626D02*
Y439674D01*
X2146046Y415290D02*
X2149094D01*
X2147570Y413766D02*
Y416814D01*
X2124456Y430530D02*
X2127504D01*
X2125980Y429006D02*
Y432054D01*
X2101596Y407670D02*
X2104644D01*
X2103120Y406146D02*
Y409194D01*
X2085086Y422910D02*
X2088134D01*
X2086610Y421386D02*
Y424434D01*
X2072386Y400050D02*
X2075434D01*
X2073910Y398526D02*
Y401574D01*
X2054606Y361950D02*
X2057654D01*
X2056130Y360426D02*
Y363474D01*
X2040636Y354330D02*
X2043684D01*
X2042160Y352806D02*
Y355854D01*
X2030476Y369570D02*
X2033524D01*
X2032000Y368046D02*
Y371094D01*
X2005076Y346710D02*
X2008124D01*
X2006600Y345186D02*
Y348234D01*
X1944116Y384810D02*
X1947164D01*
X1945640Y383286D02*
Y386334D01*
X1922526Y339090D02*
X1925574D01*
X1924050Y337566D02*
Y340614D01*
X1895856Y377190D02*
X1898904D01*
X1897380Y375666D02*
Y378714D01*
X1862836Y331470D02*
X1865884D01*
X1864360Y329946D02*
Y332994D01*
X1850136Y377190D02*
X1853184D01*
X1851660Y375666D02*
Y378714D01*
X1813306Y339090D02*
X1816354D01*
X1814830Y337566D02*
Y340614D01*
X1831086Y384810D02*
X1834134D01*
X1832610Y383286D02*
Y386334D01*
X1754886Y346710D02*
X1757934D01*
X1756410Y345186D02*
Y348234D01*
X1744726Y369570D02*
X1747774D01*
X1746250Y368046D02*
Y371094D01*
X1730756Y354330D02*
X1733804D01*
X1732280Y352806D02*
Y355854D01*
X1719326Y361950D02*
X1722374D01*
X1720850Y360426D02*
Y363474D01*
X1685036Y400050D02*
X1688084D01*
X1686560Y398526D02*
Y401574D01*
X1608836Y430530D02*
X1611884D01*
X1610360Y429006D02*
Y432054D01*
X1589786Y415290D02*
X1592834D01*
X1591310Y413766D02*
Y416814D01*
X1564386Y438150D02*
X1567434D01*
X1565910Y436626D02*
Y439674D01*
X1538986Y445770D02*
X1542034D01*
X1540510Y444246D02*
Y447294D01*
X1484376Y392430D02*
X1487424D01*
X1485900Y390906D02*
Y393954D01*
X1450086Y438150D02*
X1453134D01*
X1451610Y436626D02*
Y439674D01*
X1432306Y415290D02*
X1435354D01*
X1433830Y413766D02*
Y416814D01*
X1409446Y430530D02*
X1412494D01*
X1410970Y429006D02*
Y432054D01*
X1389126Y407670D02*
X1392174D01*
X1390650Y406146D02*
Y409194D01*
X1380236Y422910D02*
X1383284D01*
X1381760Y421386D02*
Y424434D01*
X1356106Y400050D02*
X1359154D01*
X1357630Y398526D02*
Y401574D01*
X1324356Y361950D02*
X1327404D01*
X1325880Y360426D02*
Y363474D01*
X1314196Y354330D02*
X1317244D01*
X1315720Y352806D02*
Y355854D01*
X1273556Y369570D02*
X1276604D01*
X1275080Y368046D02*
Y371094D01*
X1245616Y346710D02*
X1248664D01*
X1247140Y345186D02*
Y348234D01*
X1231646Y384810D02*
X1234694D01*
X1233170Y383286D02*
Y386334D01*
X1211326Y339090D02*
X1214374D01*
X1212850Y337566D02*
Y340614D01*
X1196086Y377190D02*
X1199134D01*
X1197610Y375666D02*
Y378714D01*
X1165606Y331470D02*
X1168654D01*
X1167130Y329946D02*
Y332994D01*
X1121156Y377190D02*
X1124204D01*
X1122680Y375666D02*
Y378714D01*
X1098296Y339090D02*
X1101344D01*
X1099820Y337566D02*
Y340614D01*
X1075436Y384810D02*
X1078484D01*
X1076960Y383286D02*
Y386334D01*
X1056386Y346710D02*
X1059434D01*
X1057910Y345186D02*
Y348234D01*
X1037336Y369570D02*
X1040384D01*
X1038860Y368046D02*
Y371094D01*
X1008696Y361950D02*
X1011744D01*
X1010220Y360426D02*
Y363474D01*
X1020826Y354330D02*
X1023874D01*
X1022350Y352806D02*
Y355854D01*
X967486Y400050D02*
X970534D01*
X969010Y398526D02*
Y401574D01*
X943356Y422910D02*
X946404D01*
X944880Y421386D02*
Y424434D01*
X926846Y407670D02*
X929894D01*
X928370Y406146D02*
Y409194D01*
X898906Y430530D02*
X901954D01*
X900430Y429006D02*
Y432054D01*
X878586Y415290D02*
X881634D01*
X880110Y413766D02*
Y416814D01*
X855726Y438150D02*
X858774D01*
X857250Y436626D02*
Y439674D01*
X836676Y392430D02*
X839724D01*
X838200Y390906D02*
Y393954D01*
X793496Y445770D02*
X796544D01*
X795020Y444246D02*
Y447294D01*
X773176Y392430D02*
X776224D01*
X774700Y390906D02*
Y393954D01*
X746506Y438150D02*
X749554D01*
X748030Y436626D02*
Y439674D01*
X597916Y354330D02*
X600964D01*
X599440Y352806D02*
Y355854D01*
X663956Y422910D02*
X667004D01*
X665480Y421386D02*
Y424434D01*
X641096Y400050D02*
X644144D01*
X642620Y398526D02*
Y401574D01*
X558546Y369570D02*
X561594D01*
X560070Y368046D02*
Y371094D01*
X536956Y346710D02*
X540004D01*
X538480Y345186D02*
Y348234D01*
X542036Y384810D02*
X545084D01*
X543560Y383286D02*
Y386334D01*
X719836Y415290D02*
X722884D01*
X721360Y413766D02*
Y416814D01*
X699516Y430530D02*
X702564D01*
X701040Y429006D02*
Y432054D01*
X676656Y407670D02*
X679704D01*
X678180Y406146D02*
Y409194D01*
X614426Y361950D02*
X617474D01*
X615950Y360426D02*
Y363474D01*
X473456Y377190D02*
X476504D01*
X474980Y375666D02*
Y378714D01*
X500126Y339090D02*
X503174D01*
X501650Y337566D02*
Y340614D01*
M02*
