G04*
G04 #@! TF.GenerationSoftware,Altium Limited,Altium Designer,23.7.1 (13)*
G04*
G04 Layer_Physical_Order=2*
G04 Layer_Color=16711680*
%FSLAX44Y44*%
%MOMM*%
G71*
G04*
G04 #@! TF.SameCoordinates,0223C93B-7FE2-4649-842A-E085946BCD85*
G04*
G04*
G04 #@! TF.FilePolarity,Positive*
G04*
G01*
G75*
%ADD11C,0.2540*%
%ADD14C,1.0160*%
%ADD16C,2.7200*%
%ADD18C,2.8000*%
%ADD19R,2.8000X2.8000*%
%ADD39C,0.3048*%
%ADD40C,0.3810*%
%ADD41C,5.5880*%
%ADD42R,1.1430X1.1430*%
%ADD43C,1.1430*%
%ADD44C,1.2000*%
%ADD45R,1.3970X1.3970*%
%ADD46C,1.3970*%
%ADD47R,1.5240X1.5240*%
%ADD48C,1.5240*%
%ADD49C,1.5000*%
%ADD50R,1.5000X1.5000*%
%ADD51R,1.5000X1.5000*%
%ADD52R,1.6000X1.6000*%
%ADD53C,1.6000*%
%ADD54C,1.4000*%
%ADD55P,1.6165X4X265.0*%
%ADD56C,0.6096*%
%ADD57C,0.7620*%
%ADD58C,0.6604*%
%ADD59C,0.7112*%
%ADD60C,0.8890*%
%ADD61C,0.2032*%
G36*
X1278890Y929254D02*
X1277790Y928619D01*
X1276608Y929302D01*
X1273928Y930020D01*
X1271152D01*
X1268472Y929302D01*
X1266068Y927914D01*
X1264106Y925952D01*
X1262718Y923548D01*
X1262000Y920868D01*
Y918092D01*
X1262718Y915412D01*
X1264106Y913008D01*
X1266068Y911046D01*
X1268472Y909658D01*
X1271152Y908940D01*
X1273928D01*
X1276608Y909658D01*
X1277790Y910341D01*
X1278890Y909706D01*
Y824230D01*
X1206747D01*
X1205854Y825133D01*
X1206029Y840740D01*
X1206500D01*
Y861060D01*
X1206500D01*
X1206260Y861303D01*
X1207114Y937260D01*
X1278890D01*
Y929254D01*
D02*
G37*
G36*
X1451707Y1042573D02*
X1451221Y1041400D01*
X1421519D01*
X1421033Y1042573D01*
X1432560Y1054100D01*
X1440180D01*
X1451707Y1042573D01*
D02*
G37*
G36*
X1649730Y1062088D02*
Y1046077D01*
X1648767Y1044635D01*
X1647550Y1041698D01*
X1646930Y1038580D01*
Y1035400D01*
X1647550Y1032282D01*
X1648767Y1029345D01*
X1649730Y1027904D01*
Y976630D01*
X1512570D01*
Y1061720D01*
X1648828Y1062982D01*
X1649730Y1062088D01*
D02*
G37*
G36*
X2015490Y756920D02*
X1979930D01*
Y771525D01*
X1980565D01*
Y790575D01*
X1979930D01*
Y861060D01*
X2015490D01*
Y756920D01*
D02*
G37*
G36*
X2932590Y760833D02*
X2909570Y736633D01*
X2908300Y737140D01*
Y762000D01*
X2932089D01*
X2932590Y760833D01*
D02*
G37*
%LPC*%
G36*
X1248528Y930020D02*
X1245752D01*
X1243072Y929302D01*
X1241132Y928182D01*
X1243208Y926106D01*
X1240514Y923412D01*
X1238438Y925488D01*
X1237318Y923548D01*
X1236600Y920868D01*
Y918092D01*
X1237318Y915412D01*
X1238438Y913472D01*
X1240514Y915548D01*
X1243208Y912854D01*
X1241132Y910778D01*
X1243072Y909658D01*
X1245752Y908940D01*
X1248528D01*
X1251208Y909658D01*
X1253148Y910778D01*
X1251072Y912854D01*
X1253766Y915548D01*
X1255842Y913472D01*
X1256962Y915412D01*
X1257680Y918092D01*
Y920868D01*
X1256962Y923548D01*
X1255842Y925488D01*
X1253766Y923412D01*
X1251072Y926106D01*
X1253148Y928182D01*
X1251208Y929302D01*
X1248528Y930020D01*
D02*
G37*
G36*
X1232280D02*
X1211200D01*
Y908940D01*
X1232280D01*
Y930020D01*
D02*
G37*
G36*
X1223078Y861060D02*
X1220402D01*
X1217818Y860368D01*
X1216010Y859324D01*
X1218085Y857249D01*
X1215391Y854555D01*
X1213316Y856630D01*
X1212272Y854822D01*
X1211580Y852238D01*
Y849562D01*
X1212272Y846978D01*
X1213316Y845170D01*
X1215391Y847245D01*
X1218085Y844551D01*
X1216010Y842476D01*
X1217818Y841432D01*
X1220402Y840740D01*
X1223078D01*
X1225662Y841432D01*
X1227470Y842476D01*
X1225395Y844551D01*
X1228089Y847245D01*
X1230164Y845170D01*
X1231208Y846978D01*
X1231900Y849562D01*
Y852238D01*
X1231208Y854822D01*
X1230164Y856630D01*
X1228089Y854555D01*
X1225395Y857249D01*
X1227470Y859324D01*
X1225662Y860368D01*
X1223078Y861060D01*
D02*
G37*
G36*
X1266044Y858170D02*
X1263796D01*
X1261624Y857588D01*
X1260376Y856868D01*
X1262459Y854785D01*
X1259765Y852091D01*
X1257682Y854174D01*
X1256962Y852926D01*
X1256380Y850754D01*
Y848506D01*
X1256962Y846334D01*
X1257682Y845086D01*
X1259765Y847169D01*
X1262459Y844475D01*
X1260376Y842392D01*
X1261624Y841672D01*
X1263796Y841090D01*
X1266044D01*
X1268216Y841672D01*
X1269464Y842392D01*
X1267381Y844475D01*
X1270075Y847169D01*
X1272158Y845086D01*
X1272878Y846334D01*
X1273460Y848506D01*
Y850754D01*
X1272878Y852926D01*
X1272158Y854174D01*
X1270075Y852091D01*
X1267381Y854785D01*
X1269464Y856868D01*
X1268216Y857588D01*
X1266044Y858170D01*
D02*
G37*
G36*
X1630360Y1053150D02*
X1627180D01*
X1624062Y1052530D01*
X1621125Y1051313D01*
X1618749Y1049725D01*
X1620811Y1047663D01*
X1618116Y1044969D01*
X1616055Y1047031D01*
X1614467Y1044655D01*
X1613250Y1041718D01*
X1612630Y1038600D01*
Y1035420D01*
X1613250Y1032302D01*
X1614467Y1029365D01*
X1616055Y1026989D01*
X1618116Y1029051D01*
X1620811Y1026356D01*
X1618749Y1024295D01*
X1621125Y1022707D01*
X1624062Y1021490D01*
X1627180Y1020870D01*
X1630360D01*
X1633478Y1021490D01*
X1636415Y1022707D01*
X1638791Y1024295D01*
X1636729Y1026356D01*
X1639424Y1029051D01*
X1641485Y1026989D01*
X1643073Y1029365D01*
X1644290Y1032302D01*
X1644910Y1035420D01*
Y1038600D01*
X1644290Y1041718D01*
X1643073Y1044655D01*
X1641485Y1047031D01*
X1639424Y1044969D01*
X1636729Y1047663D01*
X1638791Y1049725D01*
X1636415Y1051313D01*
X1633478Y1052530D01*
X1630360Y1053150D01*
D02*
G37*
G36*
X1537660D02*
X1534480D01*
X1531362Y1052530D01*
X1528425Y1051313D01*
X1526049Y1049725D01*
X1528111Y1047663D01*
X1525417Y1044969D01*
X1523355Y1047031D01*
X1521767Y1044655D01*
X1520550Y1041718D01*
X1519930Y1038600D01*
Y1035420D01*
X1520550Y1032302D01*
X1521767Y1029365D01*
X1523355Y1026989D01*
X1525417Y1029051D01*
X1528111Y1026356D01*
X1526049Y1024295D01*
X1528425Y1022707D01*
X1531362Y1021490D01*
X1534480Y1020870D01*
X1537660D01*
X1540778Y1021490D01*
X1543715Y1022707D01*
X1546091Y1024295D01*
X1544030Y1026356D01*
X1546724Y1029051D01*
X1548785Y1026989D01*
X1550373Y1029365D01*
X1551590Y1032302D01*
X1552210Y1035420D01*
Y1038600D01*
X1551590Y1041718D01*
X1550373Y1044655D01*
X1548785Y1047031D01*
X1546724Y1044969D01*
X1544030Y1047663D01*
X1546091Y1049725D01*
X1543715Y1051313D01*
X1540778Y1052530D01*
X1537660Y1053150D01*
D02*
G37*
G36*
X1584010Y1023150D02*
X1580830D01*
X1577712Y1022530D01*
X1574775Y1021313D01*
X1572399Y1019725D01*
X1574460Y1017663D01*
X1571767Y1014969D01*
X1569705Y1017031D01*
X1568117Y1014655D01*
X1566900Y1011718D01*
X1566280Y1008600D01*
Y1005420D01*
X1566900Y1002302D01*
X1568117Y999365D01*
X1569705Y996989D01*
X1571767Y999051D01*
X1574460Y996357D01*
X1572399Y994295D01*
X1574775Y992707D01*
X1577712Y991490D01*
X1580830Y990870D01*
X1584010D01*
X1587128Y991490D01*
X1590065Y992707D01*
X1592441Y994295D01*
X1590379Y996357D01*
X1593073Y999051D01*
X1595135Y996989D01*
X1596723Y999365D01*
X1597940Y1002302D01*
X1598560Y1005420D01*
Y1008600D01*
X1597940Y1011718D01*
X1596723Y1014655D01*
X1595135Y1017031D01*
X1593073Y1014969D01*
X1590379Y1017663D01*
X1592441Y1019725D01*
X1590065Y1021313D01*
X1587128Y1022530D01*
X1584010Y1023150D01*
D02*
G37*
G36*
X1996424Y853004D02*
X1993916D01*
X1991494Y852355D01*
X1989905Y851438D01*
X1991980Y849362D01*
X1989286Y846668D01*
X1987211Y848743D01*
X1986294Y847155D01*
X1985645Y844733D01*
Y842225D01*
X1986294Y839802D01*
X1987211Y838214D01*
X1989286Y840289D01*
X1991980Y837595D01*
X1989905Y835520D01*
X1991494Y834603D01*
X1993916Y833954D01*
X1996424D01*
X1998846Y834603D01*
X2000435Y835520D01*
X1998360Y837595D01*
X2001054Y840289D01*
X2003129Y838214D01*
X2004046Y839802D01*
X2004695Y842225D01*
Y844733D01*
X2004046Y847155D01*
X2003129Y848743D01*
X2001054Y846668D01*
X1998360Y849362D01*
X2000435Y851438D01*
X1998846Y852355D01*
X1996424Y853004D01*
D02*
G37*
G36*
X1997694Y790575D02*
X1995186D01*
X1992764Y789926D01*
X1991175Y789009D01*
X1993250Y786934D01*
X1990556Y784240D01*
X1988481Y786315D01*
X1987564Y784726D01*
X1986915Y782304D01*
Y779796D01*
X1987564Y777374D01*
X1988481Y775785D01*
X1990556Y777860D01*
X1993250Y775166D01*
X1991175Y773091D01*
X1992764Y772174D01*
X1995186Y771525D01*
X1997694D01*
X2000116Y772174D01*
X2001705Y773091D01*
X1999630Y775166D01*
X2002324Y777860D01*
X2004399Y775785D01*
X2005316Y777374D01*
X2005965Y779796D01*
Y782304D01*
X2005316Y784726D01*
X2004399Y786315D01*
X2002324Y784240D01*
X1999630Y786934D01*
X2001705Y789009D01*
X2000116Y789926D01*
X1997694Y790575D01*
D02*
G37*
%LPD*%
D11*
X3011170Y703580D02*
Y862330D01*
X2421890Y674370D02*
X2981960D01*
X2984500Y889000D02*
X3011170Y862330D01*
X2981960Y674370D02*
X3011170Y703580D01*
X2870200Y787400D02*
X2946400Y863600D01*
X2984500D01*
X2880379Y778510D02*
X2940069Y838200D01*
X2984500D01*
X1922780Y775970D02*
X2037080Y661670D01*
X2816860D01*
X2023110Y647700D02*
X2816860D01*
X1887220Y783590D02*
X2023110Y647700D01*
X1887220Y783590D02*
Y800100D01*
X1993900Y812800D02*
X1995170Y811530D01*
D14*
X2166620Y718820D02*
X2258060D01*
X1532950Y1040130D02*
X1536070Y1037010D01*
X1437640Y1040130D02*
X1532950D01*
X1367790D02*
X1437640D01*
X1247140Y919480D02*
X1367790Y1040130D01*
X1436370Y1041400D02*
Y1066800D01*
Y1041400D02*
X1437640Y1040130D01*
X1978670Y965200D02*
X2246630D01*
X2286000Y925830D01*
X2475230Y736600D02*
X2832100D01*
X2362200Y849630D02*
X2475230Y736600D01*
X2456180Y711200D02*
X2884170D01*
X2933700Y762000D02*
X2984500Y812800D01*
X2884170Y711200D02*
X2933700Y760730D01*
Y762000D01*
X2832100D02*
X2933700D01*
X2246630Y811530D02*
X2355850D01*
X2456180Y711200D01*
X1582420Y706120D02*
X1667510Y621030D01*
X1856880D01*
X1582420Y706120D02*
Y1007010D01*
X1856880Y621030D02*
X1859420Y618490D01*
X1432420Y613410D02*
X1471565Y611137D01*
X1475727D01*
X1582420Y706120D01*
X2073910Y811530D02*
X2246630D01*
X1995170D02*
X2073910D01*
X1582420Y1007010D02*
X1748690Y840740D01*
X1897380D01*
X1925320Y812800D01*
X1993900D01*
X2073910Y811530D02*
X2166620Y718820D01*
X2246630Y811530D02*
X2540000Y1104900D01*
D16*
X1536070Y1037010D02*
D03*
X1628770D02*
D03*
X1582420Y1007010D02*
D03*
X1663070Y1036990D02*
D03*
X1755770D02*
D03*
X1709420Y1006990D02*
D03*
D18*
X1978670Y1084580D02*
D03*
X1931670D02*
D03*
X1978670Y965200D02*
D03*
X1931670D02*
D03*
D19*
X1884670Y1084580D02*
D03*
Y965200D02*
D03*
D39*
X2561590Y313690D02*
Y330200D01*
Y313690D02*
X2565400Y309880D01*
Y271780D02*
Y309880D01*
X2546350Y252730D02*
X2565400Y271780D01*
X2706765Y344565D02*
X2707640Y345440D01*
X2706765Y338215D02*
Y344565D01*
X2679700Y311150D02*
X2706765Y338215D01*
X1551940Y280670D02*
Y392430D01*
X1524000Y252730D02*
X1551940Y280670D01*
X2479040Y332740D02*
Y369570D01*
X2472690Y267970D02*
Y316230D01*
X2392680Y365760D02*
X2417686Y390766D01*
Y399936D01*
X2214730Y334010D02*
X2216150D01*
X2214730Y276710D02*
Y334010D01*
Y425300D01*
X2235200Y445770D01*
X1612900Y252730D02*
X1633220Y273050D01*
Y407670D01*
X1659890Y313690D02*
Y422910D01*
X1657350Y311150D02*
X1659890Y313690D01*
X2635250Y311150D02*
X2644140D01*
X2672080Y339090D01*
X2657665Y309436D02*
X2691130Y342900D01*
Y370132D01*
X2657665Y275145D02*
Y309436D01*
X2520950Y271780D02*
Y336804D01*
X2743200Y422910D02*
Y423164D01*
Y422910D02*
X2787650Y378460D01*
X2562271Y329520D02*
X2572430D01*
X2561590Y330200D02*
X2562271Y329520D01*
X2572430D02*
X2590800Y311150D01*
X2727960Y397764D02*
X2747477Y378247D01*
X2749763D02*
X2768600Y359410D01*
X2747477Y378247D02*
X2749763D01*
X2787650Y280670D02*
Y378460D01*
X2782570Y394970D02*
X2813050Y364490D01*
Y311150D02*
Y364490D01*
X2621280Y245110D02*
Y354330D01*
X2637790Y370840D01*
X2506091Y382959D02*
X2506980Y383848D01*
X2506091Y315341D02*
Y382959D01*
X2614930Y276860D02*
Y377190D01*
X2506980Y383848D02*
Y384810D01*
X2545080Y312420D02*
Y377190D01*
X2627630Y238760D02*
X2665730D01*
X2621280Y245110D02*
X2627630Y238760D01*
X2665730D02*
X2679700Y252730D01*
X2691130Y380692D02*
X2692400Y381962D01*
X2691130Y379730D02*
Y380692D01*
Y370132D02*
X2691330Y370332D01*
X2691130Y379730D02*
X2691330Y379530D01*
Y370332D02*
Y379530D01*
X2766060Y427990D02*
X2830830Y363220D01*
X2799080Y412750D02*
X2857500Y354330D01*
X2404110Y403860D02*
Y422656D01*
X2857500Y311150D02*
Y354330D01*
X2830830Y270510D02*
Y363220D01*
X2343150Y330200D02*
Y430530D01*
X2813050Y252730D02*
X2830830Y270510D01*
X2768600Y252730D02*
Y261620D01*
X2787650Y280670D01*
X2354580Y374650D02*
X2387600Y407670D01*
X2768600Y311150D02*
Y359410D01*
X2635250Y252730D02*
X2657665Y275145D01*
X2590800Y252730D02*
X2614930Y276860D01*
X2545080Y312420D02*
X2546350Y311150D01*
X2501900Y252730D02*
X2520950Y271780D01*
X2501900Y311150D02*
X2506091Y315341D01*
X2457450Y252730D02*
X2472690Y267970D01*
X2493010Y336550D02*
Y346710D01*
X2472690Y316230D02*
X2493010Y336550D01*
X2457450Y311150D02*
X2479040Y332740D01*
X2413000Y252730D02*
X2433320Y273050D01*
Y327660D02*
X2459990Y354330D01*
X2433320Y273050D02*
Y327660D01*
X2413000Y311150D02*
Y361950D01*
X2368550Y252730D02*
X2392680Y276860D01*
Y365760D01*
X2368550Y311150D02*
X2371090Y313690D01*
Y370840D01*
X2404110Y403860D01*
X2345690Y274320D02*
Y316230D01*
X2324100Y252730D02*
X2345690Y274320D01*
Y316230D02*
X2354580Y325120D01*
Y374650D01*
X2324100Y311150D02*
X2343150Y330200D01*
X2302510Y318770D02*
X2325370Y341630D01*
Y415290D01*
X2302510Y275590D02*
Y318770D01*
X2279650Y252730D02*
X2302510Y275590D01*
X2279650Y311150D02*
X2308860Y340360D01*
Y438150D01*
X2235200Y252730D02*
X2259815Y277345D01*
Y371325D01*
X2280920Y392430D01*
X2231205Y315145D02*
X2235200Y311150D01*
X2231205Y315145D02*
Y318955D01*
X2216150Y334010D02*
X2231205Y318955D01*
X2190750Y252730D02*
X2214730Y276710D01*
X2190750Y311150D02*
Y392430D01*
X2146300Y252730D02*
X2170430Y276860D01*
Y438150D01*
X2146300Y311150D02*
X2147570Y312420D01*
Y415290D01*
X2101850Y252730D02*
X2125980Y276860D01*
Y430530D01*
X2101850Y311150D02*
X2103120Y312420D01*
Y407670D01*
X2057400Y252730D02*
X2086610Y281940D01*
Y422910D01*
X2057400Y311150D02*
X2073910Y327660D01*
Y400050D01*
X2012950Y252730D02*
X2033270Y273050D01*
X2056130Y341630D02*
Y361950D01*
X2033270Y273050D02*
Y318770D01*
X2056130Y341630D01*
X2042160Y340360D02*
Y354330D01*
X2012950Y311150D02*
X2042160Y340360D01*
X1968500Y252730D02*
X1998980Y283210D01*
X2032000Y351790D02*
Y369570D01*
X1998980Y283210D02*
Y318770D01*
X2032000Y351790D01*
X1982470Y311150D02*
X2006600Y335280D01*
Y346710D01*
X1968500Y311150D02*
X1982470D01*
X1924050Y252730D02*
X1945640Y274320D01*
Y384810D01*
X1924050Y311150D02*
Y339090D01*
X1879600Y252730D02*
X1897380Y270510D01*
Y377190D01*
X1864360Y281940D02*
Y323850D01*
X1875409Y315341D02*
X1879600Y311150D01*
X1864360Y323850D02*
X1872869Y315341D01*
X1864360Y323850D02*
Y331470D01*
X1872869Y315341D02*
X1875409D01*
X1835150Y252730D02*
X1864360Y281940D01*
X1835150Y311150D02*
X1851660Y327660D01*
Y377190D01*
X1790700Y252730D02*
X1814830Y276860D01*
Y339090D01*
X1832610Y377190D02*
Y384810D01*
X1790700Y335280D02*
X1832610Y377190D01*
X1790700Y311150D02*
Y335280D01*
X1746250Y252730D02*
X1756410Y262890D01*
Y346710D01*
X1746250Y311150D02*
Y369570D01*
X1701800Y252730D02*
X1732280Y283210D01*
Y354330D01*
X1701800Y311150D02*
X1720850Y330200D01*
Y361950D01*
X1657350Y252730D02*
X1686560Y281940D01*
Y400050D01*
X1610360Y313690D02*
X1612900Y311150D01*
X1610360Y313690D02*
Y430530D01*
X1568450Y252730D02*
X1591310Y275590D01*
Y415290D01*
X1565910Y313690D02*
X1568450Y311150D01*
X1565910Y313690D02*
Y438150D01*
X1511785Y284965D02*
Y323365D01*
X1524000Y311150D01*
X1511785Y323365D02*
Y417045D01*
X1479550Y252730D02*
X1511785Y284965D01*
Y417045D02*
X1540510Y445770D01*
X1479550Y311150D02*
Y386080D01*
X1485900Y392430D01*
X1435100Y252730D02*
X1451610Y269240D01*
Y438150D01*
X1433830Y312420D02*
X1435100Y311150D01*
X1433830Y312420D02*
Y415290D01*
X1390650Y252730D02*
X1410970Y273050D01*
Y430530D01*
X1390650Y311150D02*
Y407670D01*
X1346200Y252730D02*
X1365735Y272265D01*
Y406885D01*
X1381760Y422910D01*
X1346200Y311150D02*
X1357630Y322580D01*
Y400050D01*
X1301750Y252730D02*
X1325880Y276860D01*
Y361950D01*
X1301750Y311150D02*
X1315720Y325120D01*
Y354330D01*
X1257300Y252730D02*
X1275080Y270510D01*
Y369570D01*
X1247140Y321310D02*
X1257300Y311150D01*
X1247140Y321310D02*
Y346710D01*
X1212850Y252730D02*
X1233170Y273050D01*
Y384810D01*
X1212850Y311150D02*
Y339090D01*
X1168400Y252730D02*
X1187450Y271780D01*
Y367030D01*
X1197610Y377190D01*
X1167130Y312420D02*
X1168400Y311150D01*
X1167130Y312420D02*
Y331470D01*
X1143000Y271780D02*
Y309880D01*
X1163910Y330790D01*
X1123950Y252730D02*
X1143000Y271780D01*
X1122680Y312420D02*
X1123950Y311150D01*
X1122680Y312420D02*
Y377190D01*
X1079500Y252730D02*
X1099820Y273050D01*
Y339090D01*
X1076960Y313690D02*
X1079500Y311150D01*
X1076960Y313690D02*
Y384810D01*
X1035050Y252730D02*
X1057910Y275590D01*
Y346710D01*
X1035050Y311150D02*
X1038860Y314960D01*
Y369570D01*
X990600Y252730D02*
X1010920Y273050D01*
X1022350Y323850D02*
Y354330D01*
X1010920Y273050D02*
Y312420D01*
X1022350Y323850D01*
X1010220Y330770D02*
Y361950D01*
X990600Y311150D02*
X1010220Y330770D01*
X969010Y275590D02*
Y400050D01*
X946150Y252730D02*
X969010Y275590D01*
X944880Y312420D02*
X946150Y311150D01*
X944880Y312420D02*
Y422910D01*
X901700Y252730D02*
X928370Y279400D01*
Y407670D01*
X900430Y312420D02*
X901700Y311150D01*
X900430Y312420D02*
Y430530D01*
X857250Y252730D02*
X880110Y275590D01*
Y415290D01*
X857250Y311150D02*
Y438150D01*
X812800Y252730D02*
X838200Y278130D01*
Y392430D01*
X795020Y279400D02*
Y328930D01*
X812800Y311150D01*
X795020Y328930D02*
Y445770D01*
X768350Y252730D02*
X795020Y279400D01*
X768350Y311150D02*
Y386080D01*
X774700Y392430D01*
X723900Y252730D02*
X748030Y276860D01*
Y438150D01*
X590550Y311150D02*
Y345440D01*
X599440Y354330D01*
X635000Y252730D02*
X665480Y283210D01*
Y422910D01*
X642620Y398950D02*
Y400050D01*
X635000Y311150D02*
X639191Y315341D01*
Y395521D02*
X642620Y398950D01*
X639191Y315341D02*
Y395521D01*
X570230Y276860D02*
Y359410D01*
X560070Y369570D02*
X570230Y359410D01*
X546100Y311150D02*
Y339090D01*
X538480Y346710D02*
X546100Y339090D01*
X524312Y275392D02*
Y365562D01*
X501650Y252730D02*
X524312Y275392D01*
Y365562D02*
X543560Y384810D01*
X721360Y313690D02*
X723900Y311150D01*
X721360Y313690D02*
Y415290D01*
X679450Y252730D02*
X701040Y274320D01*
Y430530D01*
X678180Y312420D02*
X679450Y311150D01*
X678180Y312420D02*
Y407670D01*
X590550Y252730D02*
X615950Y278130D01*
Y361950D01*
X546100Y252730D02*
X570230Y276860D01*
X457200Y252730D02*
X474980Y270510D01*
Y377190D01*
X501650Y311150D02*
Y339090D01*
D40*
X2369820Y687070D02*
X2974340D01*
X2381250Y697230D02*
X2945130D01*
X2984500Y736600D01*
X2359660Y719602D02*
Y722630D01*
X2363289Y715191D02*
Y715973D01*
X2359660Y719602D02*
X2363289Y715973D01*
Y715191D02*
X2381250Y697230D01*
X2997200Y709930D02*
Y749300D01*
X2974340Y687070D02*
X2997200Y709930D01*
X2334260Y722630D02*
X2369820Y687070D01*
X2707640Y345440D02*
Y466090D01*
X1544193Y434213D02*
X1573530Y463550D01*
X2249170Y285352D02*
Y471805D01*
X1544193Y291575D02*
Y434213D01*
X1479948Y227330D02*
X1544193Y291575D01*
X1479550Y227330D02*
X1479948D01*
X2557780Y463550D02*
X2684780Y590550D01*
X2557780Y369570D02*
Y463550D01*
X2468245Y347345D02*
Y541655D01*
X2444750Y323850D02*
X2468245Y347345D01*
X2413000Y227330D02*
X2444750Y259080D01*
Y323850D01*
X2426970Y299720D02*
Y502920D01*
X2413000Y285750D02*
X2426970Y299720D01*
X2190750Y227330D02*
X2191148D01*
X2249170Y285352D01*
X2203450Y440690D02*
X2249170Y486410D01*
X2203450Y298450D02*
Y440690D01*
X2190750Y285750D02*
X2203450Y298450D01*
X2506980Y402214D02*
Y461010D01*
Y402214D02*
X2508250Y400943D01*
X2526030Y407607D02*
Y462280D01*
X2508250Y400050D02*
Y400943D01*
X2459990Y354330D02*
Y458470D01*
X1498600Y422910D02*
X1551940Y476250D01*
X1565910D01*
X305965Y420005D02*
Y436775D01*
X336550Y467360D01*
X481330D01*
X305965Y396135D02*
Y420005D01*
X1479550Y285750D02*
X1498600Y304800D01*
Y422910D01*
X2724150Y285750D02*
X2768600D01*
X237490Y327660D02*
X305965Y396135D01*
X209550Y285750D02*
X237490Y313690D01*
Y327660D01*
X311150Y285750D02*
X457200D01*
X289785Y348403D02*
X375073D01*
X481330Y454660D01*
X289672Y348290D02*
X289785Y348403D01*
X289672Y227442D02*
Y348290D01*
X289560Y227330D02*
X289672Y227442D01*
X2543810Y417327D02*
Y462280D01*
X2542540Y416057D02*
X2543810Y417327D01*
X2542540Y415163D02*
Y416057D01*
X2614930Y377190D02*
Y462280D01*
X2665730Y513080D01*
X2672080Y339090D02*
Y462280D01*
X2701290Y491490D01*
X2561590Y330073D02*
Y330200D01*
X2743454Y423164D02*
X2752090Y431800D01*
X2743200Y423164D02*
X2743454D01*
X2570480Y392176D02*
Y461010D01*
X2561590Y330200D02*
Y365760D01*
X2557780Y369570D02*
X2561590Y365760D01*
X2719070Y363220D02*
Y458470D01*
X2726690Y466090D01*
X2752090Y431800D02*
Y464820D01*
X2637790Y370840D02*
Y461010D01*
X2692400Y381962D02*
Y458470D01*
X2766060Y427990D02*
Y464820D01*
X2783840Y433070D02*
Y464820D01*
X2984500Y762000D02*
X2997200Y749300D01*
D41*
X1432420Y613410D02*
D03*
X1859420D02*
D03*
D42*
X1746250Y311150D02*
D03*
X2546350D02*
D03*
X120650Y252730D02*
D03*
X990600D02*
D03*
X1701800D02*
D03*
X2413000D02*
D03*
X2724150Y311150D02*
D03*
X2012950D02*
D03*
X1301750D02*
D03*
X590550D02*
D03*
X768350Y252730D02*
D03*
X1479550D02*
D03*
X2190750D02*
D03*
X2901950D02*
D03*
X2235200Y311150D02*
D03*
X1524000D02*
D03*
X812800D02*
D03*
X946150Y252730D02*
D03*
X1657350D02*
D03*
X2368550D02*
D03*
X2768600Y311150D02*
D03*
X2057400D02*
D03*
X1346200D02*
D03*
X635000D02*
D03*
X723900Y252730D02*
D03*
X1435100D02*
D03*
X2146300D02*
D03*
X2857500D02*
D03*
X2279650Y311150D02*
D03*
X1568450D02*
D03*
X857250D02*
D03*
X679450Y252730D02*
D03*
X1390650D02*
D03*
X2101850D02*
D03*
X2813050D02*
D03*
X2324100Y311150D02*
D03*
X1612900D02*
D03*
X901700D02*
D03*
Y252730D02*
D03*
X1612900D02*
D03*
X2324100D02*
D03*
X2813050Y311150D02*
D03*
X2101850D02*
D03*
X1390650D02*
D03*
X679450D02*
D03*
X635000Y252730D02*
D03*
X1346200D02*
D03*
X2057400D02*
D03*
X2768600D02*
D03*
X2368550Y311150D02*
D03*
X1657350D02*
D03*
X946150D02*
D03*
X857250Y252730D02*
D03*
X1568450D02*
D03*
X2279650D02*
D03*
X2857500Y311150D02*
D03*
X2146300D02*
D03*
X1435100D02*
D03*
X723900D02*
D03*
X590550Y252730D02*
D03*
X1301750D02*
D03*
X2012950D02*
D03*
X2724150D02*
D03*
X2413000Y311150D02*
D03*
X1701800D02*
D03*
X990600D02*
D03*
X120650D02*
D03*
X812800Y252730D02*
D03*
X1524000D02*
D03*
X2235200D02*
D03*
X2901950Y311150D02*
D03*
X2190750D02*
D03*
X1479550D02*
D03*
X768350D02*
D03*
X546100Y252730D02*
D03*
X1257300D02*
D03*
X1968500D02*
D03*
X2679700D02*
D03*
X2457450Y311150D02*
D03*
X1035050D02*
D03*
X165100D02*
D03*
X501650Y252730D02*
D03*
X1212850D02*
D03*
X1924050D02*
D03*
X2635250D02*
D03*
X2501900Y311150D02*
D03*
X1790700D02*
D03*
X1079500D02*
D03*
X209550D02*
D03*
X457200Y252730D02*
D03*
X1168400D02*
D03*
X1879600D02*
D03*
X2590800D02*
D03*
X1835150Y311150D02*
D03*
X1123950D02*
D03*
X254000D02*
D03*
Y252730D02*
D03*
X1123950D02*
D03*
X1835150D02*
D03*
X2546350D02*
D03*
X2590800Y311150D02*
D03*
X1879600D02*
D03*
X1168400D02*
D03*
X457200D02*
D03*
X209550Y252730D02*
D03*
X1079500D02*
D03*
X1790700D02*
D03*
X2501900D02*
D03*
X2635250Y311150D02*
D03*
X1924050D02*
D03*
X1212850D02*
D03*
X501650D02*
D03*
X165100Y252730D02*
D03*
X1035050D02*
D03*
X1746250D02*
D03*
X2457450D02*
D03*
X2679700Y311150D02*
D03*
X1968500D02*
D03*
X1257300D02*
D03*
X546100D02*
D03*
D43*
X1746250Y285750D02*
D03*
X2546350D02*
D03*
X120650Y227330D02*
D03*
X990600D02*
D03*
X1701800D02*
D03*
X2413000D02*
D03*
X2724150Y285750D02*
D03*
X2012950D02*
D03*
X1301750D02*
D03*
X590550D02*
D03*
X768350Y227330D02*
D03*
X1479550D02*
D03*
X2190750D02*
D03*
X2901950D02*
D03*
X2235200Y285750D02*
D03*
X1524000D02*
D03*
X812800D02*
D03*
X248821Y488106D02*
D03*
X289785Y348403D02*
D03*
X946150Y227330D02*
D03*
X1657350D02*
D03*
X2368550D02*
D03*
X2768600Y285750D02*
D03*
X2057400D02*
D03*
X1346200D02*
D03*
X635000D02*
D03*
X723900Y227330D02*
D03*
X1435100D02*
D03*
X2146300D02*
D03*
X2857500D02*
D03*
X2279650Y285750D02*
D03*
X1568450D02*
D03*
X857250D02*
D03*
X277393Y454055D02*
D03*
X679450Y227330D02*
D03*
X1390650D02*
D03*
X2101850D02*
D03*
X2813050D02*
D03*
X2324100Y285750D02*
D03*
X1612900D02*
D03*
X901700D02*
D03*
X305965Y420005D02*
D03*
X261213Y382453D02*
D03*
X901700Y227330D02*
D03*
X1612900D02*
D03*
X2324100D02*
D03*
X2813050Y285750D02*
D03*
X2101850D02*
D03*
X1390650D02*
D03*
X679450D02*
D03*
X635000Y227330D02*
D03*
X1346200D02*
D03*
X2057400D02*
D03*
X2768600D02*
D03*
X2368550Y285750D02*
D03*
X1657350D02*
D03*
X946150D02*
D03*
X334537Y385954D02*
D03*
X232641Y416504D02*
D03*
X857250Y227330D02*
D03*
X1568450D02*
D03*
X2279650D02*
D03*
X2857500Y285750D02*
D03*
X2146300D02*
D03*
X1435100D02*
D03*
X723900D02*
D03*
X590550Y227330D02*
D03*
X1301750D02*
D03*
X2012950D02*
D03*
X2724150D02*
D03*
X2413000Y285750D02*
D03*
X1701800D02*
D03*
X990600D02*
D03*
X120650D02*
D03*
X204069Y450554D02*
D03*
X812800Y227330D02*
D03*
X1524000D02*
D03*
X2235200D02*
D03*
X2901950Y285750D02*
D03*
X2190750D02*
D03*
X1479550D02*
D03*
X768350D02*
D03*
X546100Y227330D02*
D03*
X1257300D02*
D03*
X1968500D02*
D03*
X2679700D02*
D03*
X2457450Y285750D02*
D03*
X1035050D02*
D03*
X165100D02*
D03*
X501650Y227330D02*
D03*
X1212850D02*
D03*
X1924050D02*
D03*
X2635250D02*
D03*
X2501900Y285750D02*
D03*
X1790700D02*
D03*
X1079500D02*
D03*
X209550D02*
D03*
X457200Y227330D02*
D03*
X1168400D02*
D03*
X1879600D02*
D03*
X2590800D02*
D03*
X1835150Y285750D02*
D03*
X1123950D02*
D03*
X254000D02*
D03*
Y227330D02*
D03*
X1123950D02*
D03*
X1835150D02*
D03*
X2546350D02*
D03*
X2590800Y285750D02*
D03*
X1879600D02*
D03*
X1168400D02*
D03*
X457200D02*
D03*
X209550Y227330D02*
D03*
X1079500D02*
D03*
X1790700D02*
D03*
X2501900D02*
D03*
X2635250Y285750D02*
D03*
X1924050D02*
D03*
X1212850D02*
D03*
X501650D02*
D03*
X165100Y227330D02*
D03*
X1035050D02*
D03*
X1746250D02*
D03*
X2457450D02*
D03*
X2679700Y285750D02*
D03*
X1968500D02*
D03*
X1257300D02*
D03*
X546100D02*
D03*
D44*
X1264920Y849630D02*
D03*
X1290320D02*
D03*
X3008630Y651510D02*
D03*
Y626110D02*
D03*
D45*
X1969770Y843479D02*
D03*
X1971040Y781050D02*
D03*
D46*
X1995170Y843479D02*
D03*
X1996440Y781050D02*
D03*
D47*
X1196340Y850900D02*
D03*
D48*
X1221740D02*
D03*
X2286000Y925830D02*
D03*
X2362200Y849630D02*
D03*
D49*
X2984500Y736600D02*
D03*
Y762000D02*
D03*
Y787400D02*
D03*
Y812800D02*
D03*
Y838200D02*
D03*
Y863600D02*
D03*
Y889000D02*
D03*
Y914400D02*
D03*
Y939800D02*
D03*
Y965200D02*
D03*
Y990600D02*
D03*
Y1016000D02*
D03*
Y1041400D02*
D03*
Y1066800D02*
D03*
X2832100Y736600D02*
D03*
Y762000D02*
D03*
Y787400D02*
D03*
Y812800D02*
D03*
Y838200D02*
D03*
Y863600D02*
D03*
Y889000D02*
D03*
Y914400D02*
D03*
Y939800D02*
D03*
Y965200D02*
D03*
Y990600D02*
D03*
Y1016000D02*
D03*
Y1041400D02*
D03*
Y1066800D02*
D03*
X1410970D02*
D03*
X1436370D02*
D03*
X2258060Y718820D02*
D03*
X2283460D02*
D03*
X2308860D02*
D03*
X2334260D02*
D03*
X2359660D02*
D03*
X2717800Y774700D02*
D03*
Y800100D02*
D03*
Y825500D02*
D03*
Y850900D02*
D03*
Y876300D02*
D03*
Y901700D02*
D03*
Y927100D02*
D03*
Y952500D02*
D03*
Y977900D02*
D03*
Y1003300D02*
D03*
Y1028700D02*
D03*
Y1054100D02*
D03*
Y1079500D02*
D03*
X2540000Y774700D02*
D03*
Y800100D02*
D03*
Y825500D02*
D03*
Y850900D02*
D03*
Y876300D02*
D03*
Y901700D02*
D03*
Y927100D02*
D03*
Y952500D02*
D03*
Y977900D02*
D03*
Y1003300D02*
D03*
Y1028700D02*
D03*
Y1054100D02*
D03*
Y1079500D02*
D03*
D50*
X2984500Y1092200D02*
D03*
X2832100D02*
D03*
X2717800Y1104900D02*
D03*
X2540000D02*
D03*
D51*
X1385570Y1066800D02*
D03*
X2385060Y718820D02*
D03*
D52*
X1221740Y919480D02*
D03*
D53*
X1247140D02*
D03*
X1272540D02*
D03*
D54*
X1922780Y852170D02*
D03*
Y775970D02*
D03*
X1887220Y876300D02*
D03*
Y800100D02*
D03*
D55*
X268278Y504433D02*
D03*
X309242Y364729D02*
D03*
X296850Y470382D02*
D03*
X325422Y436332D02*
D03*
X280670Y398780D02*
D03*
X353994Y402281D02*
D03*
X252098Y432831D02*
D03*
X223526Y466881D02*
D03*
D56*
X2870200Y787400D02*
D03*
X2880360Y778510D02*
D03*
X2421890Y674370D02*
D03*
X2816860Y661670D02*
D03*
Y647700D02*
D03*
D57*
X2707640Y345440D02*
D03*
X1573530Y463550D02*
D03*
X2249170Y471805D02*
D03*
X2684780Y590550D02*
D03*
X2426970Y502920D02*
D03*
X2468245Y541655D02*
D03*
X2249170Y486410D02*
D03*
X2506980Y461010D02*
D03*
X2526030Y462280D02*
D03*
X2459990Y458470D02*
D03*
X1565910Y476250D02*
D03*
X481330Y467360D02*
D03*
X311150Y285750D02*
D03*
X481330Y454660D02*
D03*
X289560Y227330D02*
D03*
X2672080Y339090D02*
D03*
X2743200Y423164D02*
D03*
X2543810Y462280D02*
D03*
X2570480Y461010D02*
D03*
X2719070Y363220D02*
D03*
X2726690Y466090D02*
D03*
X2752090Y464820D02*
D03*
X2637790Y461010D02*
D03*
Y370840D02*
D03*
X2691130Y379730D02*
D03*
X2692400Y458470D02*
D03*
X2701290Y491490D02*
D03*
X2707640Y466090D02*
D03*
X2665730Y513080D02*
D03*
X2766060Y464820D02*
D03*
Y427990D02*
D03*
X2783840Y433070D02*
D03*
Y464820D02*
D03*
D58*
X1551940Y392430D02*
D03*
X2479040Y369570D02*
D03*
X1659890Y422910D02*
D03*
X1633220Y407670D02*
D03*
X2520950Y336804D02*
D03*
X2727960Y397764D02*
D03*
X2782570Y394970D02*
D03*
X2506980Y384810D02*
D03*
X2545080Y377190D02*
D03*
X2799080Y412750D02*
D03*
X2404110Y422656D02*
D03*
X2417686Y399936D02*
D03*
X2343150Y430530D02*
D03*
X2387600Y407670D02*
D03*
X2493010Y346710D02*
D03*
X2413000Y361950D02*
D03*
X2325370Y415290D02*
D03*
X2308860Y438150D02*
D03*
X2280920Y392430D02*
D03*
X2235200Y445770D02*
D03*
X2190750Y392430D02*
D03*
X2170430Y438150D02*
D03*
X2147570Y415290D02*
D03*
X2125980Y430530D02*
D03*
X2103120Y407670D02*
D03*
X2086610Y422910D02*
D03*
X2073910Y400050D02*
D03*
X2056130Y361950D02*
D03*
X2042160Y354330D02*
D03*
X2032000Y369570D02*
D03*
X2006600Y346710D02*
D03*
X1945640Y384810D02*
D03*
X1924050Y339090D02*
D03*
X1897380Y377190D02*
D03*
X1864360Y331470D02*
D03*
X1851660Y377190D02*
D03*
X1814830Y339090D02*
D03*
X1832610Y384810D02*
D03*
X1756410Y346710D02*
D03*
X1746250Y369570D02*
D03*
X1732280Y354330D02*
D03*
X1720850Y361950D02*
D03*
X1686560Y400050D02*
D03*
X1610360Y430530D02*
D03*
X1591310Y415290D02*
D03*
X1565910Y438150D02*
D03*
X1540510Y445770D02*
D03*
X1485900Y392430D02*
D03*
X1451610Y438150D02*
D03*
X1433830Y415290D02*
D03*
X1410970Y430530D02*
D03*
X1390650Y407670D02*
D03*
X1381760Y422910D02*
D03*
X1357630Y400050D02*
D03*
X1325880Y361950D02*
D03*
X1315720Y354330D02*
D03*
X1275080Y369570D02*
D03*
X1247140Y346710D02*
D03*
X1233170Y384810D02*
D03*
X1212850Y339090D02*
D03*
X1197610Y377190D02*
D03*
X1167130Y331470D02*
D03*
X1122680Y377190D02*
D03*
X1099820Y339090D02*
D03*
X1076960Y384810D02*
D03*
X1057910Y346710D02*
D03*
X1038860Y369570D02*
D03*
X1010220Y361950D02*
D03*
X1022350Y354330D02*
D03*
X969010Y400050D02*
D03*
X944880Y422910D02*
D03*
X928370Y407670D02*
D03*
X900430Y430530D02*
D03*
X880110Y415290D02*
D03*
X857250Y438150D02*
D03*
X838200Y392430D02*
D03*
X795020Y445770D02*
D03*
X774700Y392430D02*
D03*
X748030Y438150D02*
D03*
X599440Y354330D02*
D03*
X665480Y422910D02*
D03*
X642620Y400050D02*
D03*
X560070Y369570D02*
D03*
X538480Y346710D02*
D03*
X543560Y384810D02*
D03*
X721360Y415290D02*
D03*
X701040Y430530D02*
D03*
X678180Y407670D02*
D03*
X615950Y361950D02*
D03*
X474980Y377190D02*
D03*
X501650Y339090D02*
D03*
D59*
X2508250Y400050D02*
D03*
X2526030Y407607D02*
D03*
X2614930Y377190D02*
D03*
X2570480Y392176D02*
D03*
X2542540Y415163D02*
D03*
X2459990Y354330D02*
D03*
D60*
X2561590Y330073D02*
D03*
D61*
X2728856Y901700D02*
G03*
X2726851Y908050I-11056J0D01*
G01*
X2708749D02*
G03*
X2728856Y901700I9051J-6350D01*
G01*
Y876300D02*
G03*
X2728856Y876300I-11056J0D01*
G01*
Y850900D02*
G03*
X2728856Y850900I-11056J0D01*
G01*
Y800100D02*
G03*
X2728856Y800100I-11056J0D01*
G01*
Y825500D02*
G03*
X2728856Y825500I-11056J0D01*
G01*
Y774700D02*
G03*
X2728856Y774700I-11056J0D01*
G01*
X2789301Y459877D02*
G03*
X2791206Y464820I-5461J4943D01*
G01*
D02*
G03*
X2778379Y459877I-7366J0D01*
G01*
X2771521D02*
G03*
X2773426Y464820I-5461J4943D01*
G01*
D02*
G03*
X2759075Y467158I-7366J0D01*
G01*
X2701656Y484133D02*
G03*
X2708656Y491490I-366J7357D01*
G01*
X2715006Y466090D02*
G03*
X2702179Y461147I-7366J0D01*
G01*
X2759075Y467158D02*
G03*
X2746629Y459877I-6985J-2338D01*
G01*
X2757551D02*
G03*
X2759075Y462482I-5461J4943D01*
G01*
X2734056Y466090D02*
G03*
X2719333Y466456I-7366J0D01*
G01*
X2759075Y462482D02*
G03*
X2760599Y459877I6985J2338D01*
G01*
X2713101Y461147D02*
G03*
X2715006Y466090I-5461J4943D01*
G01*
X2791206Y433070D02*
G03*
X2789301Y438013I-7366J0D01*
G01*
X2778379D02*
G03*
X2791206Y433070I5461J-4943D01*
G01*
X2773426Y427990D02*
G03*
X2771521Y432933I-7366J0D01*
G01*
X2760599D02*
G03*
X2766240Y420626I5461J-4943D01*
G01*
X2727056Y458733D02*
G03*
X2734056Y466090I-366J7357D01*
G01*
X2715208Y462332D02*
G03*
X2713609Y458470I3862J-3862D01*
G01*
X2715208Y462332D02*
G03*
X2713609Y458470I3862J-3862D01*
G01*
X2755952Y427938D02*
G03*
X2757551Y431800I-3862J3862D01*
G01*
X2755952Y427938D02*
G03*
X2757551Y431800I-3862J3862D01*
G01*
X2685146Y583193D02*
G03*
X2692146Y590550I-366J7357D01*
G01*
X2708656Y491490D02*
G03*
X2693933Y491856I-7366J0D01*
G01*
X2692146Y590550D02*
G03*
X2677423Y590916I-7366J0D01*
G01*
X2673096Y513080D02*
G03*
X2658373Y513446I-7366J0D01*
G01*
X2666096Y505723D02*
G03*
X2673096Y513080I-366J7357D01*
G01*
X2697861Y453527D02*
G03*
X2699766Y458470I-5461J4943D01*
G01*
D02*
G03*
X2686939Y453527I-7366J0D01*
G01*
X2668218Y466142D02*
G03*
X2666619Y462280I3862J-3862D01*
G01*
X2645156Y461010D02*
G03*
X2632329Y456067I-7366J0D01*
G01*
X2668218Y466142D02*
G03*
X2666619Y462280I3862J-3862D01*
G01*
X2643251Y456067D02*
G03*
X2645156Y461010I-5461J4943D01*
G01*
X2551056Y901700D02*
G03*
X2549051Y908050I-11056J0D01*
G01*
X2530949D02*
G03*
X2551056Y901700I9051J-6350D01*
G01*
Y850900D02*
G03*
X2551056Y850900I-11056J0D01*
G01*
Y876300D02*
G03*
X2551056Y876300I-11056J0D01*
G01*
Y774700D02*
G03*
X2551056Y774700I-11056J0D01*
G01*
Y800100D02*
G03*
X2551056Y800100I-11056J0D01*
G01*
Y825500D02*
G03*
X2551056Y825500I-11056J0D01*
G01*
X2469114Y730503D02*
G03*
X2475230Y727964I6116J6097D01*
G01*
X2469123Y730493D02*
G03*
X2475230Y727964I6107J6107D01*
G01*
X2450064Y705103D02*
G03*
X2454704Y702691I6116J6097D01*
G01*
X2450073Y705093D02*
G03*
X2454704Y702691I6107J6107D01*
G01*
X2611068Y466142D02*
G03*
X2609469Y462280I3862J-3862D01*
G01*
X2553918Y467411D02*
G03*
X2552319Y463550I3862J-3862D01*
G01*
X2611068Y466142D02*
G03*
X2609469Y462280I3862J-3862D01*
G01*
X2577846Y461010D02*
G03*
X2570327Y468374I-7366J0D01*
G01*
X2553918Y467411D02*
G03*
X2552319Y463550I3862J-3862D01*
G01*
X2533396Y462280D02*
G03*
X2520569Y457337I-7366J0D01*
G01*
X2549271D02*
G03*
X2551176Y462280I-5461J4943D01*
G01*
D02*
G03*
X2538349Y457337I-7366J0D01*
G01*
X2475611Y541655D02*
G03*
X2462784Y536712I-7366J0D01*
G01*
X2473706D02*
G03*
X2475611Y541655I-5461J4943D01*
G01*
X2432431Y497977D02*
G03*
X2434336Y502920I-5461J4943D01*
G01*
D02*
G03*
X2421509Y497977I-7366J0D01*
G01*
X2575941Y456067D02*
G03*
X2577846Y461010I-5461J4943D01*
G01*
X2563241Y459648D02*
G03*
X2565019Y456067I7239J1362D01*
G01*
X2531491Y457337D02*
G03*
X2533396Y462280I-5461J4943D01*
G01*
X2514346Y461010D02*
G03*
X2501519Y456067I-7366J0D01*
G01*
X2512441D02*
G03*
X2514346Y461010I-5461J4943D01*
G01*
X2462784Y465285D02*
G03*
X2454529Y453527I-2794J-6816D01*
G01*
X2256536Y471805D02*
G03*
X2250135Y479108I-7366J0D01*
G01*
X2254631Y466862D02*
G03*
X2256536Y471805I-5461J4943D01*
G01*
X2250135Y479108D02*
G03*
X2256536Y486410I-965J7303D01*
G01*
D02*
G03*
X2241813Y486776I-7366J0D01*
G01*
X2241819Y471336D02*
G03*
X2243709Y466862I7351J469D01*
G01*
X2235534Y438920D02*
G03*
X2242058Y445770I-334J6850D01*
G01*
D02*
G03*
X2228350Y446104I-6858J0D01*
G01*
X2199588Y444552D02*
G03*
X2197989Y440690I3862J-3862D01*
G01*
X2199588Y444552D02*
G03*
X2197989Y440690I3862J-3862D01*
G01*
X2348230Y425923D02*
G03*
X2350008Y430530I-5080J4607D01*
G01*
D02*
G03*
X2338070Y425923I-6858J0D01*
G01*
X2409190Y418049D02*
G03*
X2410968Y422656I-5080J4607D01*
G01*
D02*
G03*
X2399030Y418049I-6858J0D01*
G01*
X2313940Y433543D02*
G03*
X2315718Y438150I-5080J4607D01*
G01*
D02*
G03*
X2303780Y433543I-6858J0D01*
G01*
X2177288Y438150D02*
G03*
X2165350Y433543I-6858J0D01*
G01*
X2211146Y428900D02*
G03*
X2209650Y425300I3584J-3600D01*
G01*
X2175510Y433543D02*
G03*
X2177288Y438150I-5080J4607D01*
G01*
X2211138Y428892D02*
G03*
X2209650Y425300I3592J-3592D01*
G01*
X2131060Y425923D02*
G03*
X2132838Y430530I-5080J4607D01*
G01*
D02*
G03*
X2120900Y425923I-6858J0D01*
G01*
X2091690Y418303D02*
G03*
X2093468Y422910I-5080J4607D01*
G01*
D02*
G03*
X2081530Y418303I-6858J0D01*
G01*
X2805930Y413084D02*
G03*
X2798746Y405900I-6850J-334D01*
G01*
X2785901Y400965D02*
G03*
X2776087Y397207I-3331J-5995D01*
G01*
X2789420Y395304D02*
G03*
X2788564Y398301I-6850J-334D01*
G01*
X2743096Y430529D02*
G03*
X2743127Y415798I104J-7365D01*
G01*
X2734810Y398098D02*
G03*
X2724531Y403703I-6850J-334D01*
G01*
Y391825D02*
G03*
X2727626Y390914I3429J5939D01*
G01*
X2753355Y381839D02*
G03*
X2749763Y383327I-3592J-3592D01*
G01*
X2753363Y381831D02*
G03*
X2749763Y383327I-3600J-3584D01*
G01*
X2743885Y374655D02*
G03*
X2747477Y373167I3592J3592D01*
G01*
X2743877Y374663D02*
G03*
X2747477Y373167I3600J3584D01*
G01*
X2686939Y385788D02*
G03*
X2686250Y374212I4191J-6058D01*
G01*
X2696410Y374594D02*
G03*
X2698496Y379730I-5280J5136D01*
G01*
D02*
G03*
X2697861Y382722I-7366J0D01*
G01*
X2645156Y370840D02*
G03*
X2643251Y375783I-7366J0D01*
G01*
X2577592Y392176D02*
G03*
X2575941Y396732I-7112J0D01*
G01*
X2565019D02*
G03*
X2577592Y392176I5461J-4556D01*
G01*
X2549652Y415163D02*
G03*
X2549271Y417460I-7112J0D01*
G01*
X2538349Y420909D02*
G03*
X2549652Y415163I4191J-5746D01*
G01*
X2533142Y407607D02*
G03*
X2531491Y412163I-7112J0D01*
G01*
X2520569D02*
G03*
X2533142Y407607I5461J-4556D01*
G01*
X2515362Y400050D02*
G03*
X2512441Y405796I-7112J0D01*
G01*
X2501519Y402347D02*
G03*
X2515362Y400050I6731J-2297D01*
G01*
X2620010Y372213D02*
G03*
X2622042Y377190I-5080J4977D01*
G01*
X2632329Y375783D02*
G03*
X2630426Y370660I5461J-4943D01*
G01*
X2622042Y377190D02*
G03*
X2620391Y381746I-7112J0D01*
G01*
X2609469D02*
G03*
X2609850Y372213I5461J-4556D01*
G01*
X2513838Y384810D02*
G03*
X2501011Y381433I-6858J0D01*
G01*
X2551938Y377190D02*
G03*
X2540000Y372583I-6858J0D01*
G01*
X2550160D02*
G03*
X2551938Y377190I-5080J4607D01*
G01*
X2511171Y379382D02*
G03*
X2513838Y384810I-4191J5428D01*
G01*
X2485898Y369570D02*
G03*
X2473706Y373881I-6858J0D01*
G01*
X2773680Y359410D02*
G03*
X2772184Y363010I-5080J0D01*
G01*
X2726436Y363220D02*
G03*
X2724531Y368163I-7366J0D01*
G01*
X2713609D02*
G03*
X2713101Y367536I5461J-4943D01*
G01*
Y358904D02*
G03*
X2726436Y363220I5969J4316D01*
G01*
X2773680Y359410D02*
G03*
X2772192Y363002I-5080J0D01*
G01*
X2711845Y339392D02*
G03*
X2715006Y345440I-4205J6048D01*
G01*
D02*
G03*
X2713101Y350383I-7366J0D01*
G01*
X2702179D02*
G03*
X2701685Y341104I5461J-4943D01*
G01*
X2696210Y368920D02*
G03*
X2696410Y370332I-4880J1412D01*
G01*
X2696210Y368920D02*
G03*
X2696410Y370332I-4880J1412D01*
G01*
X2686250Y371544D02*
G03*
X2686050Y370132I4880J-1412D01*
G01*
X2686250Y371544D02*
G03*
X2686050Y370132I4880J-1412D01*
G01*
X2637610Y363476D02*
G03*
X2645156Y370840I180J7364D01*
G01*
X2694722Y339308D02*
G03*
X2696210Y342900I-3592J3592D01*
G01*
X2694714Y339300D02*
G03*
X2696210Y342900I-3584J3600D01*
G01*
X2679446Y339090D02*
G03*
X2677541Y344033I-7366J0D01*
G01*
X2666619D02*
G03*
X2664716Y338910I5461J-4943D01*
G01*
X2710349Y334615D02*
G03*
X2711845Y338215I-3584J3600D01*
G01*
X2710357Y334623D02*
G03*
X2711845Y338215I-3592J3592D01*
G01*
X2671900Y331726D02*
G03*
X2672806Y331760I180J7364D01*
G01*
X2576031Y333104D02*
G03*
X2572430Y334600I-3600J-3584D01*
G01*
X2567051Y365760D02*
G03*
X2565451Y369622I-5461J0D01*
G01*
X2567051Y365760D02*
G03*
X2565451Y369622I-5461J0D01*
G01*
X2552319Y369570D02*
G03*
X2553918Y365709I5461J0D01*
G01*
X2552319Y369570D02*
G03*
X2553918Y365709I5461J0D01*
G01*
X2568187Y334600D02*
G03*
X2567051Y335920I-6597J-4527D01*
G01*
X2499868Y346710D02*
G03*
X2487930Y342103I-6858J0D01*
G01*
X2484120Y364963D02*
G03*
X2485898Y369570I-5080J4607D01*
G01*
X2454529Y358886D02*
G03*
X2452878Y354403I5461J-4556D01*
G01*
X2498090Y342103D02*
G03*
X2499868Y346710I-5080J4607D01*
G01*
X2472106Y343484D02*
G03*
X2473706Y347345I-3862J3862D01*
G01*
X2472106Y343484D02*
G03*
X2473706Y347345I-3862J3862D01*
G01*
X2556129Y335920D02*
G03*
X2556510Y323892I5461J-5847D01*
G01*
X2576023Y333112D02*
G03*
X2572430Y334600I-3592J-3592D01*
G01*
X2527808Y336804D02*
G03*
X2515870Y332197I-6858J0D01*
G01*
X2566670Y323892D02*
G03*
X2567272Y324440I-5080J6181D01*
G01*
X2526030Y332197D02*
G03*
X2527808Y336804I-5080J4607D01*
G01*
X2496594Y332950D02*
G03*
X2498090Y336550I-3584J3600D01*
G01*
X2496602Y332958D02*
G03*
X2498090Y336550I-3592J3592D01*
G01*
X2421509Y405630D02*
G03*
X2412606Y395328I-3823J-5694D01*
G01*
X2407702Y400268D02*
G03*
X2409190Y403860I-3592J3592D01*
G01*
X2387934Y400820D02*
G03*
X2394458Y407670I-334J6850D01*
G01*
X2407694Y400260D02*
G03*
X2409190Y403860I-3584J3600D01*
G01*
X2330450Y410683D02*
G03*
X2332228Y415290I-5080J4607D01*
G01*
X2394458Y407670D02*
G03*
X2380750Y408004I-6858J0D01*
G01*
X2332228Y415290D02*
G03*
X2320290Y410683I-6858J0D01*
G01*
X2287778Y392430D02*
G03*
X2274070Y392764I-6858J0D01*
G01*
X2350996Y378250D02*
G03*
X2349500Y374650I3584J-3600D01*
G01*
X2281254Y385580D02*
G03*
X2287778Y392430I-334J6850D01*
G01*
X2350988Y378242D02*
G03*
X2349500Y374650I3592J-3592D01*
G01*
X2195830Y387823D02*
G03*
X2197608Y392430I-5080J4607D01*
G01*
D02*
G03*
X2185670Y387823I-6858J0D01*
G01*
X2152650Y410683D02*
G03*
X2154428Y415290I-5080J4607D01*
G01*
D02*
G03*
X2142490Y410683I-6858J0D01*
G01*
X2108200Y403063D02*
G03*
X2109978Y407670I-5080J4607D01*
G01*
D02*
G03*
X2098040Y403063I-6858J0D01*
G01*
X2419858Y361950D02*
G03*
X2407920Y357343I-6858J0D01*
G01*
X2418080D02*
G03*
X2419858Y361950I-5080J4607D01*
G01*
X2389096Y369360D02*
G03*
X2387600Y365760I3584J-3600D01*
G01*
X2389088Y369352D02*
G03*
X2387600Y365760I3592J-3592D01*
G01*
X2367506Y374440D02*
G03*
X2366010Y370840I3584J-3600D01*
G01*
X2367498Y374432D02*
G03*
X2366010Y370840I3592J-3592D01*
G01*
X2328962Y338038D02*
G03*
X2330450Y341630I-3592J3592D01*
G01*
X2328954Y338030D02*
G03*
X2330450Y341630I-3584J3600D01*
G01*
X2440889Y327711D02*
G03*
X2439289Y323850I3862J-3862D01*
G01*
X2440889Y327711D02*
G03*
X2439289Y323850I3862J-3862D01*
G01*
X2346734Y326600D02*
G03*
X2348230Y330200I-3584J3600D01*
G01*
X2346742Y326608D02*
G03*
X2348230Y330200I-3592J3592D01*
G01*
X2358979Y322580D02*
G03*
X2359660Y325120I-4399J2540D01*
G01*
X2358979Y322580D02*
G03*
X2359660Y325120I-4399J2540D01*
G01*
X2256231Y374925D02*
G03*
X2254735Y371325I3584J-3600D01*
G01*
X2256223Y374917D02*
G03*
X2254735Y371325I3592J-3592D01*
G01*
X2312452Y336768D02*
G03*
X2313940Y340360I-3592J3592D01*
G01*
X2312444Y336760D02*
G03*
X2313940Y340360I-3584J3600D01*
G01*
X1666748Y422910D02*
G03*
X1654810Y418303I-6858J0D01*
G01*
X1615440Y425923D02*
G03*
X1617218Y430530I-5080J4607D01*
G01*
X1664970Y418303D02*
G03*
X1666748Y422910I-5080J4607D01*
G01*
X1573896Y456193D02*
G03*
X1580896Y463550I-366J7357D01*
G01*
D02*
G03*
X1566173Y463916I-7366J0D01*
G01*
X1573276Y476250D02*
G03*
X1560967Y481711I-7366J0D01*
G01*
Y470789D02*
G03*
X1573276Y476250I4943J5461D01*
G01*
X1617218Y430530D02*
G03*
X1605280Y425923I-6858J0D01*
G01*
X1598168Y415290D02*
G03*
X1586230Y410683I-6858J0D01*
G01*
X1572768Y438150D02*
G03*
X1560830Y433543I-6858J0D01*
G01*
X1570990D02*
G03*
X1572768Y438150I-5080J4607D01*
G01*
X1551940Y481711D02*
G03*
X1548078Y480112I0J-5461D01*
G01*
X1551940Y481711D02*
G03*
X1548078Y480112I0J-5461D01*
G01*
X1547368Y445770D02*
G03*
X1533660Y446104I-6858J0D01*
G01*
X1540332Y438074D02*
G03*
X1538732Y434213I3862J-3862D01*
G01*
X1540332Y438074D02*
G03*
X1538732Y434213I3862J-3862D01*
G01*
X1456690Y433543D02*
G03*
X1458468Y438150I-5080J4607D01*
G01*
D02*
G03*
X1446530Y433543I-6858J0D01*
G01*
X1416050Y425923D02*
G03*
X1417828Y430530I-5080J4607D01*
G01*
D02*
G03*
X1405890Y425923I-6858J0D01*
G01*
X1508201Y420645D02*
G03*
X1506705Y417045I3584J-3600D01*
G01*
X1508193Y420637D02*
G03*
X1506705Y417045I3592J-3592D01*
G01*
X1494738Y426772D02*
G03*
X1493139Y422910I3862J-3862D01*
G01*
X1494738Y426772D02*
G03*
X1493139Y422910I3862J-3862D01*
G01*
X1440688Y415290D02*
G03*
X1428750Y410683I-6858J0D01*
G01*
X1382094Y416060D02*
G03*
X1388618Y422910I-334J6850D01*
G01*
D02*
G03*
X1374910Y423244I-6858J0D01*
G01*
X2080768Y400050D02*
G03*
X2068830Y395443I-6858J0D01*
G01*
X2078990D02*
G03*
X2080768Y400050I-5080J4607D01*
G01*
X1952498Y384810D02*
G03*
X1940560Y380203I-6858J0D01*
G01*
X1950720D02*
G03*
X1952498Y384810I-5080J4607D01*
G01*
X1858518Y377190D02*
G03*
X1846580Y372583I-6858J0D01*
G01*
X1691640Y395443D02*
G03*
X1693418Y400050I-5080J4607D01*
G01*
X1839468Y384810D02*
G03*
X1827530Y380203I-6858J0D01*
G01*
X1693418Y400050D02*
G03*
X1681480Y395443I-6858J0D01*
G01*
X1837690Y380203D02*
G03*
X1839468Y384810I-5080J4607D01*
G01*
X1904238Y377190D02*
G03*
X1892300Y372583I-6858J0D01*
G01*
X1856740D02*
G03*
X1858518Y377190I-5080J4607D01*
G01*
X1902460Y372583D02*
G03*
X1904238Y377190I-5080J4607D01*
G01*
X1836194Y373590D02*
G03*
X1837690Y377190I-3584J3600D01*
G01*
X1836202Y373598D02*
G03*
X1837690Y377190I-3592J3592D01*
G01*
X1638300Y403063D02*
G03*
X1640078Y407670I-5080J4607D01*
G01*
D02*
G03*
X1628140Y403063I-6858J0D01*
G01*
X1596390Y410683D02*
G03*
X1598168Y415290I-5080J4607D01*
G01*
X2037080Y364963D02*
G03*
X2038858Y369570I-5080J4607D01*
G01*
X2062988Y361950D02*
G03*
X2051050Y357343I-6858J0D01*
G01*
X1753108Y369570D02*
G03*
X1741170Y364963I-6858J0D01*
G01*
X2038858Y369570D02*
G03*
X2026920Y364963I-6858J0D01*
G01*
X1751330D02*
G03*
X1753108Y369570I-5080J4607D01*
G01*
X2061210Y357343D02*
G03*
X2062988Y361950I-5080J4607D01*
G01*
X2049018Y354330D02*
G03*
X2037080Y358937I-6858J0D01*
G01*
X2047240Y349723D02*
G03*
X2049018Y354330I-5080J4607D01*
G01*
X2035592Y348198D02*
G03*
X2036782Y350075I-3592J3592D01*
G01*
X1727708Y361950D02*
G03*
X1715770Y357343I-6858J0D01*
G01*
X1739138Y354330D02*
G03*
X1725930Y356920I-6858J0D01*
G01*
X1737360Y349723D02*
G03*
X1739138Y354330I-5080J4607D01*
G01*
X1725930Y351740D02*
G03*
X1727200Y349723I6350J2590D01*
G01*
X1725930Y357343D02*
G03*
X1727708Y361950I-5080J4607D01*
G01*
X1492758Y392430D02*
G03*
X1479050Y392764I-6858J0D01*
G01*
X1558798Y392430D02*
G03*
X1549654Y398896I-6858J0D01*
G01*
X1557020Y387823D02*
G03*
X1558798Y392430I-5080J4607D01*
G01*
X1475966Y389680D02*
G03*
X1474470Y386080I3584J-3600D01*
G01*
X1486234Y385580D02*
G03*
X1492758Y392430I-334J6850D01*
G01*
X1438910Y410683D02*
G03*
X1440688Y415290I-5080J4607D01*
G01*
X1395730Y403063D02*
G03*
X1397508Y407670I-5080J4607D01*
G01*
D02*
G03*
X1385570Y403063I-6858J0D01*
G01*
X1362151Y410485D02*
G03*
X1360655Y406885I3584J-3600D01*
G01*
X1362143Y410477D02*
G03*
X1360655Y406885I3592J-3592D01*
G01*
X1475958Y389672D02*
G03*
X1474470Y386080I3592J-3592D01*
G01*
X1360655Y406205D02*
G03*
X1352550Y395443I-3025J-6155D01*
G01*
X907288Y430530D02*
G03*
X895350Y425923I-6858J0D01*
G01*
X951738Y422910D02*
G03*
X939800Y418303I-6858J0D01*
G01*
X949960D02*
G03*
X951738Y422910I-5080J4607D01*
G01*
X933450Y403063D02*
G03*
X935228Y407670I-5080J4607D01*
G01*
X905510Y425923D02*
G03*
X907288Y430530I-5080J4607D01*
G01*
X935228Y407670D02*
G03*
X923290Y403063I-6858J0D01*
G01*
X886968Y415290D02*
G03*
X875030Y410683I-6858J0D01*
G01*
X862330Y433543D02*
G03*
X864108Y438150I-5080J4607D01*
G01*
X885190Y410683D02*
G03*
X886968Y415290I-5080J4607D01*
G01*
X800100Y441163D02*
G03*
X801878Y445770I-5080J4607D01*
G01*
D02*
G03*
X789940Y441163I-6858J0D01*
G01*
X864108Y438150D02*
G03*
X852170Y433543I-6858J0D01*
G01*
X754888Y438150D02*
G03*
X742950Y433543I-6858J0D01*
G01*
X753110D02*
G03*
X754888Y438150I-5080J4607D01*
G01*
X706120Y425923D02*
G03*
X707898Y430530I-5080J4607D01*
G01*
X726440Y410683D02*
G03*
X728218Y415290I-5080J4607D01*
G01*
X707898Y430530D02*
G03*
X695960Y425923I-6858J0D01*
G01*
X672338Y422910D02*
G03*
X660400Y418303I-6858J0D01*
G01*
X670560D02*
G03*
X672338Y422910I-5080J4607D01*
G01*
X485063Y461010D02*
G03*
X488696Y467360I-3733J6350D01*
G01*
D02*
G03*
X476387Y472821I-7366J0D01*
G01*
Y461899D02*
G03*
X477597Y461010I4943J5461D01*
G01*
D02*
G03*
X473973Y455026I3733J-6350D01*
G01*
X481696Y447303D02*
G03*
X488696Y454660I-366J7357D01*
G01*
D02*
G03*
X485063Y461010I-7366J0D01*
G01*
X728218Y415290D02*
G03*
X716280Y410683I-6858J0D01*
G01*
X683260Y403063D02*
G03*
X685038Y407670I-5080J4607D01*
G01*
D02*
G03*
X673100Y403063I-6858J0D01*
G01*
X974090Y395443D02*
G03*
X975868Y400050I-5080J4607D01*
G01*
X1083818Y384810D02*
G03*
X1071880Y380203I-6858J0D01*
G01*
X975868Y400050D02*
G03*
X963930Y395443I-6858J0D01*
G01*
X1240028Y384810D02*
G03*
X1228090Y380203I-6858J0D01*
G01*
X1082040D02*
G03*
X1083818Y384810I-5080J4607D01*
G01*
X1238250Y380203D02*
G03*
X1240028Y384810I-5080J4607D01*
G01*
X1204468Y377190D02*
G03*
X1190760Y377524I-6858J0D01*
G01*
X1281938Y369570D02*
G03*
X1270000Y364963I-6858J0D01*
G01*
X1197944Y370340D02*
G03*
X1204468Y377190I-334J6850D01*
G01*
X1127760Y372583D02*
G03*
X1129538Y377190I-5080J4607D01*
G01*
D02*
G03*
X1117600Y372583I-6858J0D01*
G01*
X1183866Y370630D02*
G03*
X1182370Y367030I3584J-3600D01*
G01*
X1183858Y370622D02*
G03*
X1182370Y367030I3592J-3592D01*
G01*
X845058Y392430D02*
G03*
X833120Y387823I-6858J0D01*
G01*
X775034Y385580D02*
G03*
X781558Y392430I-334J6850D01*
G01*
X843280Y387823D02*
G03*
X845058Y392430I-5080J4607D01*
G01*
X1280160Y364963D02*
G03*
X1281938Y369570I-5080J4607D01*
G01*
X1043940Y364963D02*
G03*
X1045718Y369570I-5080J4607D01*
G01*
D02*
G03*
X1033780Y364963I-6858J0D01*
G01*
X1332738Y361950D02*
G03*
X1319246Y360212I-6858J0D01*
G01*
X1330960Y357343D02*
G03*
X1332738Y361950I-5080J4607D01*
G01*
X1319246Y360212D02*
G03*
X1310640Y349723I-3526J-5882D01*
G01*
X1029208Y354330D02*
G03*
X1017270Y349723I-6858J0D01*
G01*
X1017078Y361950D02*
G03*
X1005140Y357343I-6858J0D01*
G01*
X1015300D02*
G03*
X1017078Y361950I-5080J4607D01*
G01*
X1027430Y349723D02*
G03*
X1029208Y354330I-5080J4607D01*
G01*
X781558Y392430D02*
G03*
X767850Y392764I-6858J0D01*
G01*
X764766Y389680D02*
G03*
X763270Y386080I3584J-3600D01*
G01*
X764758Y389672D02*
G03*
X763270Y386080I3592J-3592D01*
G01*
X644271Y393394D02*
G03*
X649478Y400050I-1651J6656D01*
G01*
D02*
G03*
X635801Y399316I-6858J0D01*
G01*
X635607Y399121D02*
G03*
X634111Y395521I3584J-3600D01*
G01*
X635599Y399113D02*
G03*
X634111Y395521I3592J-3592D01*
G01*
X543894Y377960D02*
G03*
X550418Y384810I-334J6850D01*
G01*
D02*
G03*
X536710Y385144I-6858J0D01*
G01*
X481838Y377190D02*
G03*
X469900Y372583I-6858J0D01*
G01*
X480060D02*
G03*
X481838Y377190I-5080J4607D01*
G01*
X622808Y361950D02*
G03*
X610870Y357343I-6858J0D01*
G01*
X621030D02*
G03*
X622808Y361950I-5080J4607D01*
G01*
X606298Y354330D02*
G03*
X592590Y354664I-6858J0D01*
G01*
X520728Y369162D02*
G03*
X519232Y365562I3584J-3600D01*
G01*
X520720Y369154D02*
G03*
X519232Y365562I3592J-3592D01*
G01*
X566920Y369904D02*
G03*
X559736Y362720I-6850J-334D01*
G01*
X575310Y359410D02*
G03*
X573814Y363010I-5080J0D01*
G01*
X575310Y359410D02*
G03*
X573822Y363002I-5080J0D01*
G01*
X2013458Y346710D02*
G03*
X2001520Y342103I-6858J0D01*
G01*
X2035584Y348190D02*
G03*
X2036782Y350075I-3584J3600D01*
G01*
X2011680Y342103D02*
G03*
X2013458Y346710I-5080J4607D01*
G01*
X1930908Y339090D02*
G03*
X1918970Y334483I-6858J0D01*
G01*
X1763268Y346710D02*
G03*
X1751330Y351317I-6858J0D01*
G01*
X1821688Y339090D02*
G03*
X1809750Y334483I-6858J0D01*
G01*
X1761490Y342103D02*
G03*
X1763268Y346710I-5080J4607D01*
G01*
X1253998D02*
G03*
X1242060Y342103I-6858J0D01*
G01*
X1252220D02*
G03*
X1253998Y346710I-5080J4607D01*
G01*
X1219708Y339090D02*
G03*
X1207770Y334483I-6858J0D01*
G01*
X2059722Y338038D02*
G03*
X2061210Y341630I-3592J3592D01*
G01*
X2059714Y338030D02*
G03*
X2061210Y341630I-3584J3600D01*
G01*
X1929130Y334483D02*
G03*
X1930908Y339090I-5080J4607D01*
G01*
X1871218Y331470D02*
G03*
X1859280Y326863I-6858J0D01*
G01*
X1869440D02*
G03*
X1871218Y331470I-5080J4607D01*
G01*
X2077494Y324060D02*
G03*
X2078990Y327660I-3584J3600D01*
G01*
X2077502Y324068D02*
G03*
X2078990Y327660I-3592J3592D01*
G01*
X1855244Y324060D02*
G03*
X1856740Y327660I-3584J3600D01*
G01*
X1855252Y324068D02*
G03*
X1856740Y327660I-3592J3592D01*
G01*
X1819910Y334483D02*
G03*
X1821688Y339090I-5080J4607D01*
G01*
X1787116Y338880D02*
G03*
X1785620Y335280I3584J-3600D01*
G01*
X1787108Y338872D02*
G03*
X1785620Y335280I3592J-3592D01*
G01*
X1724442Y326608D02*
G03*
X1725930Y330200I-3592J3592D01*
G01*
X1724434Y326600D02*
G03*
X1725930Y330200I-3584J3600D01*
G01*
X1217930Y334483D02*
G03*
X1219708Y339090I-5080J4607D01*
G01*
X1173988Y331470D02*
G03*
X1161367Y335187I-6858J0D01*
G01*
X1320119Y322580D02*
G03*
X1320800Y325120I-4399J2540D01*
G01*
X1320119Y322580D02*
G03*
X1320800Y325120I-4399J2540D01*
G01*
X1172210Y326863D02*
G03*
X1173988Y331470I-5080J4607D01*
G01*
X1064768Y346710D02*
G03*
X1052830Y342103I-6858J0D01*
G01*
X1062990D02*
G03*
X1064768Y346710I-5080J4607D01*
G01*
X1106678Y339090D02*
G03*
X1094740Y334483I-6858J0D01*
G01*
X599774Y347480D02*
G03*
X606298Y354330I-334J6850D01*
G01*
X586966Y349040D02*
G03*
X585470Y345440I3584J-3600D01*
G01*
X586958Y349032D02*
G03*
X585470Y345440I3592J-3592D01*
G01*
X545330Y347044D02*
G03*
X538146Y339860I-6850J-334D01*
G01*
X508508Y339090D02*
G03*
X496570Y334483I-6858J0D01*
G01*
X551180Y339090D02*
G03*
X549684Y342690I-5080J0D01*
G01*
X551180Y339090D02*
G03*
X549692Y342682I-5080J0D01*
G01*
X375073Y342942D02*
G03*
X378934Y344541I0J5461D01*
G01*
X375073Y342942D02*
G03*
X378934Y344541I0J5461D01*
G01*
X1104900Y334483D02*
G03*
X1106678Y339090I-5080J4607D01*
G01*
X1161367Y335187D02*
G03*
X1160318Y334382I2543J-4398D01*
G01*
X1013804Y327170D02*
G03*
X1015300Y330770I-3584J3600D01*
G01*
X1013812Y327178D02*
G03*
X1015300Y330770I-3592J3592D01*
G01*
X1027269Y322580D02*
G03*
X1027430Y323850I-4919J1270D01*
G01*
X1027269Y322580D02*
G03*
X1027430Y323850I-4919J1270D01*
G01*
X506730Y334483D02*
G03*
X508508Y339090I-5080J4607D01*
G01*
X316093Y291211D02*
G03*
X316093Y280289I-4943J-5461D01*
G01*
X2786427Y908050D02*
X2806700Y887777D01*
X2766671Y908050D02*
X2806700Y868020D01*
X2805430Y908050D02*
X2806700Y906780D01*
Y745236D02*
Y906780D01*
X2746914Y908050D02*
X2806700Y848264D01*
X2727157Y908050D02*
X2806700Y828507D01*
X2723326Y892124D02*
X2806700Y808751D01*
X2726851Y908050D02*
X2805430D01*
X2721322Y785180D02*
X2806700Y870558D01*
X2724933Y808547D02*
X2806700Y890314D01*
X2740648Y745236D02*
X2806700Y811288D01*
X2760404Y745236D02*
X2806700Y791532D01*
X2728690Y772791D02*
X2806700Y850801D01*
X2799917Y745236D02*
X2806700Y752019D01*
X2780161Y745236D02*
X2806700Y771775D01*
X2728349Y847589D02*
X2806700Y769238D01*
X2726374Y869320D02*
X2806700Y788994D01*
X2720891Y745236D02*
X2806700Y831045D01*
X2728672Y827509D02*
X2806700Y749481D01*
X2723268Y885909D02*
X2745409Y908050D01*
X2726000Y868884D02*
X2765166Y908050D01*
X2727477Y830848D02*
X2804679Y908050D01*
X2728807Y851935D02*
X2784922Y908050D01*
X2707401D02*
X2708224Y907226D01*
X2719006Y861890D02*
X2725216Y868100D01*
X2721384Y815041D02*
X2791189Y745236D01*
X2724977Y791691D02*
X2771432Y745236D01*
X2716224Y839957D02*
X2719809Y836372D01*
X2727506Y769406D02*
X2751675Y745236D01*
X2729435Y727964D02*
X2737562Y719836D01*
X2711357Y834485D02*
X2716765Y839893D01*
X2711628Y765527D02*
X2731919Y745236D01*
X2794274Y719836D02*
X2802402Y727964D01*
X2806700Y719836D02*
Y727964D01*
X2788704D02*
X2796832Y719836D01*
X2795546Y681609D02*
X2797959Y679196D01*
X2793147D02*
X2795560Y681609D01*
X2774518Y719836D02*
X2782645Y727964D01*
X2768947D02*
X2777076Y719836D01*
X2775789Y681609D02*
X2778203Y679196D01*
X2773391D02*
X2775804Y681609D01*
X2806700Y679196D02*
Y681609D01*
X2800204Y666496D02*
X2803252Y669544D01*
X2787854D02*
X2790902Y666496D01*
X2806700Y652526D02*
Y656844D01*
Y666496D02*
Y669544D01*
X2768098D02*
X2771146Y666496D01*
X2760691D02*
X2763738Y669544D01*
X2780798Y656844D02*
X2785116Y652526D01*
X2780447Y666496D02*
X2783495Y669544D01*
X2749191Y727964D02*
X2757319Y719836D01*
X2754761D02*
X2762889Y727964D01*
X2735004Y719836D02*
X2743132Y727964D01*
X2736276Y681609D02*
X2738689Y679196D01*
X2733877D02*
X2736290Y681609D01*
X2715248Y719836D02*
X2723376Y727964D01*
X2709678D02*
X2717806Y719836D01*
X2716520Y681609D02*
X2718933Y679196D01*
X2714121D02*
X2716534Y681609D01*
X2753634Y679196D02*
X2756047Y681609D01*
X2756033D02*
X2758446Y679196D01*
X2728585Y669544D02*
X2731633Y666496D01*
X2748341Y669544D02*
X2751389Y666496D01*
X2740934D02*
X2743982Y669544D01*
X2721177Y666496D02*
X2724225Y669544D01*
X2708828D02*
X2711876Y666496D01*
X2721528Y656844D02*
X2725846Y652526D01*
X2707207D02*
X2711525Y656844D01*
X2700020Y895674D02*
X2710820Y884874D01*
X2690304Y885634D02*
X2714489Y861449D01*
X2700020Y908050D02*
X2708749D01*
X2670547Y865877D02*
X2707341Y829084D01*
X2660669Y855999D02*
X2709391Y807278D01*
X2650791Y846121D02*
X2712505Y784406D01*
X2640912Y836243D02*
X2708628Y768527D01*
X2562839Y745236D02*
X2710770Y893167D01*
X2582595Y745236D02*
X2708191Y870832D01*
X2641865Y745236D02*
X2712452Y815823D01*
X2625548Y831850D02*
X2712162Y745236D01*
X2701135D02*
X2719709Y763810D01*
X2661621Y745236D02*
X2709353Y792967D01*
X2478807Y745236D02*
X2806700D01*
X2622108D02*
X2708815Y831943D01*
X2459757Y719836D02*
X2806700D01*
X2475230Y727964D02*
X2806700D01*
X2700020Y902174D02*
X2705896Y908050D01*
X2680426Y875756D02*
X2706857Y849324D01*
X2700020Y895350D02*
Y908050D01*
X2602352Y745236D02*
X2706810Y849694D01*
X2636520Y831850D02*
X2700020Y895350D01*
X2599690Y831850D02*
X2636520D01*
X2543082Y745236D02*
X2629696Y831850D01*
X2548570Y869315D02*
X2672649Y745236D01*
X2550547Y847582D02*
X2652893Y745236D01*
X2681378D02*
X2707320Y771178D01*
X2636222Y719836D02*
X2644349Y727964D01*
X2630652D02*
X2638780Y719836D01*
X2695491D02*
X2703619Y727964D01*
X2689921D02*
X2698049Y719836D01*
X2605792Y831850D02*
X2692406Y745236D01*
X2550874Y827498D02*
X2633136Y745236D01*
X2616465Y719836D02*
X2624593Y727964D01*
X2610895D02*
X2619023Y719836D01*
X2675735D02*
X2683863Y727964D01*
X2677007Y681609D02*
X2679420Y679196D01*
X2674608D02*
X2677021Y681609D01*
X2696763D02*
X2699176Y679196D01*
X2694364D02*
X2696777Y681609D01*
X2435860D02*
X2806700D01*
X2670165Y727964D02*
X2678293Y719836D01*
X2435860Y679196D02*
X2806700D01*
X2669315Y669544D02*
X2672363Y666496D01*
X2689072Y669544D02*
X2692120Y666496D01*
X2701421D02*
X2704469Y669544D01*
X2682015Y656844D02*
X2686333Y652526D01*
X2701772Y656844D02*
X2706089Y652526D01*
X2687451D02*
X2691769Y656844D01*
X2435860Y666496D02*
X2806700D01*
X2435860Y669544D02*
X2806700D01*
X2435860Y656844D02*
X2806700D01*
X2681664Y666496D02*
X2684712Y669544D01*
X2650408Y727964D02*
X2658536Y719836D01*
X2655978D02*
X2664106Y727964D01*
X2637494Y681609D02*
X2639907Y679196D01*
X2657250Y681609D02*
X2659663Y679196D01*
X2654851D02*
X2657264Y681609D01*
X2635095Y679196D02*
X2637508Y681609D01*
X2617737D02*
X2620150Y679196D01*
X2629802Y669544D02*
X2632850Y666496D01*
X2622395D02*
X2625443Y669544D01*
X2649558D02*
X2652607Y666496D01*
X2661908D02*
X2664956Y669544D01*
X2647938Y652526D02*
X2652256Y656844D01*
X2667694Y652526D02*
X2672012Y656844D01*
X2662259D02*
X2666577Y652526D01*
X2642151Y666496D02*
X2645199Y669544D01*
X2622745Y656844D02*
X2627063Y652526D01*
X2642502Y656844D02*
X2646820Y652526D01*
X2628181D02*
X2632499Y656844D01*
X2800555D02*
X2804872Y652526D01*
X2805990D02*
X2806700Y653236D01*
X2786234Y652526D02*
X2790551Y656844D01*
X2775011Y642874D02*
X2806700Y611185D01*
X2794768Y642874D02*
X2806700Y630942D01*
X2735498Y642874D02*
X2806700Y571672D01*
X2715742Y642874D02*
X2806700Y551916D01*
X2755255Y642874D02*
X2806700Y591429D01*
X2705681Y473191D02*
X2806700Y574210D01*
X2707755Y495021D02*
X2806700Y593966D01*
X2783701Y472185D02*
X2806700Y495183D01*
X2773105Y466972D02*
X2776597Y463479D01*
X2772051Y460534D02*
X2776475Y464959D01*
X2763479Y471719D02*
X2806700Y514940D01*
X2725626Y473379D02*
X2806700Y554453D01*
X2741285Y656844D02*
X2745603Y652526D01*
X2746721D02*
X2751039Y656844D01*
X2726964Y652526D02*
X2731282Y656844D01*
X2766477Y652526D02*
X2770795Y656844D01*
X2761041D02*
X2765359Y652526D01*
X2699165Y481642D02*
X2707356Y473451D01*
X2708643Y491920D02*
X2727120Y473443D01*
X2758716Y461603D02*
X2760599Y459721D01*
X2715208Y462332D02*
X2719333Y466456D01*
X2715001Y465806D02*
X2716842Y463965D01*
X2713101Y460854D02*
X2719401Y467154D01*
X2789301Y458028D02*
X2806700Y475427D01*
X2789301Y438271D02*
X2806700Y455670D01*
X2778379Y438013D02*
Y459877D01*
X2789301Y450775D02*
X2806700Y433376D01*
X2789301Y438013D02*
Y459877D01*
X2724531Y452528D02*
X2806700Y534697D01*
X2757551Y446034D02*
X2760599Y449082D01*
X2771521Y432933D02*
Y459877D01*
X2760599Y432933D02*
Y459877D01*
X2790467Y429853D02*
X2800980Y419339D01*
X2776132Y425102D02*
X2778763Y427733D01*
X2771521Y440248D02*
X2778379Y447106D01*
X2771521Y448799D02*
X2778379Y441941D01*
X2757551Y443012D02*
X2760599Y439964D01*
X2734044Y466520D02*
X2746629Y453934D01*
X2724565Y456242D02*
X2746629Y434178D01*
X2757551Y431800D02*
Y459877D01*
X2746629Y434062D02*
Y459877D01*
X2698595Y462455D02*
X2702179Y458871D01*
X2724531Y456208D02*
X2727056Y458733D01*
X2743096Y430529D02*
X2746629Y434062D01*
X2752284Y421011D02*
X2758715Y427441D01*
X2750654Y422641D02*
X2755952Y427938D01*
X2741938Y430421D02*
X2746629Y435112D01*
X2724531Y432771D02*
X2746629Y454869D01*
X2724531Y436519D02*
X2736063Y424987D01*
X2697861Y423676D02*
X2702179Y419358D01*
X2671330Y517865D02*
X2796338Y642874D01*
X2695985D02*
X2806700Y532159D01*
X2689971Y595776D02*
X2737068Y642874D01*
X2656472D02*
X2806700Y492646D01*
X2676229Y642874D02*
X2806700Y512402D01*
X2435860Y642874D02*
X2806700D01*
X2435860Y652526D02*
X2806700D01*
X2544079Y469641D02*
X2717312Y642874D01*
X2524059Y469377D02*
X2697556Y642874D01*
X2691663Y587926D02*
X2806700Y472889D01*
X2671840Y508966D02*
X2691442Y489365D01*
X2671015Y569062D02*
X2768211Y471865D01*
X2651258Y549305D02*
X2701720Y498843D01*
X2661136Y559183D02*
X2748873Y471446D01*
X2570327Y468374D02*
X2685146Y583193D01*
X2616959Y642874D02*
X2673170Y586663D01*
X2636715Y642874D02*
X2682156Y597433D01*
X2597202Y642874D02*
X2663292Y576785D01*
X2577446Y642874D02*
X2653413Y566906D01*
X2557689Y642874D02*
X2643535Y557028D01*
X2537933Y642874D02*
X2633657Y547150D01*
X2518176Y642874D02*
X2623778Y537272D01*
X2473706Y478294D02*
X2638286Y642874D01*
X2473706Y498051D02*
X2618529Y642874D01*
X2641380Y539427D02*
X2661616Y519190D01*
X2660712Y500339D02*
X2681563Y479487D01*
X2650833Y490460D02*
X2671685Y469608D01*
X2631501Y529548D02*
X2652989Y508062D01*
X2621623Y519670D02*
X2643110Y498183D01*
X2611745Y509792D02*
X2633232Y488305D01*
X2601867Y499914D02*
X2623354Y478427D01*
X2689286Y471763D02*
X2696385Y464665D01*
X2696839Y464348D02*
X2700539Y468049D01*
X2668218Y466142D02*
X2693933Y491856D01*
X2680893Y578940D02*
X2806700Y453133D01*
X2677541Y460018D02*
X2701656Y484133D01*
X2640905Y467685D02*
X2806700Y633479D01*
X2577422Y463471D02*
X2756825Y642874D01*
X2643251Y450274D02*
X2806700Y613723D01*
X2575941Y442233D02*
X2776582Y642874D01*
X2697861Y445614D02*
X2702179Y449932D01*
X2697861Y425858D02*
X2702179Y430176D01*
X2697861Y443433D02*
X2702179Y439114D01*
X2677541Y445051D02*
X2686522Y454031D01*
X2679408Y461885D02*
X2685562Y455732D01*
X2677541Y425294D02*
X2686939Y434692D01*
X2677541Y443996D02*
X2686939Y434598D01*
X2620391Y460018D02*
X2666096Y505723D01*
X2631077Y470704D02*
X2634290Y467491D01*
X2640955Y480582D02*
X2666619Y454918D01*
X2553918Y467411D02*
X2677423Y590916D01*
X2611068Y466142D02*
X2658373Y513446D01*
X2473706Y438781D02*
X2677799Y642874D01*
X2473706Y458538D02*
X2658042Y642874D01*
X2621198Y460825D02*
X2632329Y449695D01*
X2643251Y430517D02*
X2666619Y453885D01*
X2644271Y457509D02*
X2666619Y435161D01*
X2620391Y441876D02*
X2632329Y429938D01*
X2620391Y447170D02*
X2631115Y457895D01*
X2620391Y427414D02*
X2632329Y439352D01*
X2620391Y441875D02*
X2632329Y429937D01*
X2560320Y871220D02*
Y908050D01*
X2551007Y851943D02*
X2565302Y866238D01*
X2549348Y908050D02*
X2560320Y897078D01*
Y871220D02*
X2599690Y831850D01*
X2549673Y830854D02*
X2575180Y856360D01*
X2545463Y885912D02*
X2560320Y900770D01*
X2545521Y892121D02*
X2560320Y877322D01*
X2549051Y908050D02*
X2560320D01*
X2547128Y808551D02*
X2585058Y846482D01*
X2548277Y868970D02*
X2560320Y881013D01*
X2550892Y772802D02*
X2609940Y831850D01*
X2557195Y719836D02*
X2565323Y727964D01*
X2551625D02*
X2559753Y719836D01*
X2576952D02*
X2585080Y727964D01*
X2571382D02*
X2579510Y719836D01*
X2543577Y815039D02*
X2613380Y745236D01*
X2543515Y785182D02*
X2594937Y836603D01*
X2547173Y791686D02*
X2593623Y745236D01*
X2549703Y769400D02*
X2573867Y745236D01*
X2541198Y861891D02*
X2547330Y868023D01*
X2529592Y908050D02*
X2530421Y907221D01*
X2538414Y839958D02*
X2541998Y836374D01*
X2533525Y834462D02*
X2538957Y839893D01*
X2509835Y908050D02*
X2533015Y884870D01*
X2533800Y765546D02*
X2554110Y745236D01*
X2537439Y719836D02*
X2545567Y727964D01*
X2531869D02*
X2539997Y719836D01*
X2523326Y745236D02*
X2541898Y763808D01*
X2517682Y719836D02*
X2525810Y727964D01*
X2512112D02*
X2520240Y719836D01*
X2591139Y727964D02*
X2599266Y719836D01*
X2596708D02*
X2604836Y727964D01*
X2595581Y679196D02*
X2597994Y681609D01*
X2615338Y679196D02*
X2617751Y681609D01*
X2597980D02*
X2600393Y679196D01*
X2578224Y681609D02*
X2580637Y679196D01*
X2575825D02*
X2578238Y681609D01*
X2582881Y666496D02*
X2585930Y669544D01*
X2570532D02*
X2573580Y666496D01*
X2602638D02*
X2605686Y669544D01*
X2610045D02*
X2613093Y666496D01*
X2590289Y669544D02*
X2593337Y666496D01*
X2608425Y652526D02*
X2612743Y656844D01*
X2602989D02*
X2607307Y652526D01*
X2568911D02*
X2573229Y656844D01*
X2563476D02*
X2567794Y652526D01*
X2588668D02*
X2592986Y656844D01*
X2583232D02*
X2587550Y652526D01*
X2538711Y681609D02*
X2541124Y679196D01*
X2556068D02*
X2558481Y681609D01*
X2536312Y679196D02*
X2538725Y681609D01*
X2558467D02*
X2560880Y679196D01*
X2531019Y669544D02*
X2534067Y666496D01*
X2518954Y681609D02*
X2521367Y679196D01*
X2516555D02*
X2518968Y681609D01*
X2523612Y666496D02*
X2526660Y669544D01*
X2511263D02*
X2514311Y666496D01*
X2550776Y669544D02*
X2553824Y666496D01*
X2563125D02*
X2566173Y669544D01*
X2543368Y666496D02*
X2546416Y669544D01*
X2549155Y652526D02*
X2553473Y656844D01*
X2543719D02*
X2548037Y652526D01*
X2509642D02*
X2513960Y656844D01*
X2504206D02*
X2508524Y652526D01*
X2529398D02*
X2533716Y656844D01*
X2523963D02*
X2528281Y652526D01*
X2450566Y908050D02*
X2529539Y829077D01*
X2490079Y908050D02*
X2536682Y861447D01*
X2470322Y908050D02*
X2529058Y849314D01*
X2435860Y883242D02*
X2534700Y784403D01*
X2441797Y782246D02*
X2530388Y870837D01*
X2435860Y815823D02*
X2528087Y908050D01*
X2435860D02*
X2530949D01*
X2435860Y835579D02*
X2508331Y908050D01*
X2435860Y796066D02*
X2532965Y893171D01*
X2435860Y902999D02*
X2531586Y807273D01*
X2471432Y752612D02*
X2534646Y815826D01*
X2483813Y745236D02*
X2531549Y792972D01*
X2461553Y762490D02*
X2531038Y831975D01*
X2503569Y745236D02*
X2529518Y771185D01*
X2497926Y719836D02*
X2506054Y727964D01*
X2435860Y863486D02*
X2530846Y768500D01*
X2451675Y772368D02*
X2529009Y849702D01*
X2435860Y843729D02*
X2534353Y745236D01*
X2435860Y823973D02*
X2514597Y745236D01*
X2435860Y804216D02*
X2494840Y745236D01*
X2435860Y788183D02*
X2478807Y745236D01*
X2435860Y756553D02*
X2439462Y760155D01*
X2435860Y763757D02*
X2469114Y730503D01*
X2435860Y743733D02*
Y763757D01*
Y875092D02*
X2468818Y908050D01*
X2435860Y894849D02*
X2449061Y908050D01*
X2435860Y855336D02*
X2488574Y908050D01*
X2435860Y788183D02*
Y908050D01*
X2459085Y720508D02*
X2469097Y730520D01*
X2492356Y727964D02*
X2500484Y719836D01*
X2471953Y728610D02*
X2480727Y719836D01*
X2449207Y730387D02*
X2459218Y740398D01*
X2439328Y740265D02*
X2449340Y750277D01*
X2435860Y744947D02*
X2460971Y719836D01*
X2435860Y743733D02*
X2459757Y719836D01*
X2478169D02*
X2486297Y727964D01*
X2479441Y681609D02*
X2481854Y679196D01*
X2477042D02*
X2479455Y681609D01*
X2499198D02*
X2501611Y679196D01*
X2496799D02*
X2499212Y681609D01*
X2459684D02*
X2462097Y679196D01*
X2457286D02*
X2459699Y681609D01*
X2471750Y669544D02*
X2474798Y666496D01*
X2464342D02*
X2467390Y669544D01*
X2491506D02*
X2494554Y666496D01*
X2503855D02*
X2506903Y669544D01*
X2484449Y656844D02*
X2488768Y652526D01*
X2498419Y642874D02*
X2613900Y527393D01*
X2489885Y652526D02*
X2494203Y656844D01*
X2484099Y666496D02*
X2487147Y669544D01*
X2464693Y656844D02*
X2469011Y652526D01*
X2475099Y538957D02*
X2579016Y642874D01*
X2470129Y652526D02*
X2474447Y656844D01*
X2435860Y702691D02*
X2454704D01*
X2441268D02*
X2446872Y708295D01*
X2435860Y679196D02*
Y681609D01*
Y719307D02*
X2450064Y705103D01*
X2435860Y717040D02*
X2436993Y718173D01*
X2435860Y705434D02*
X2438602Y702691D01*
X2435860D02*
Y719307D01*
X2444586Y666496D02*
X2447634Y669544D01*
X2451993D02*
X2455041Y666496D01*
X2439928Y681609D02*
X2442341Y679196D01*
X2450372Y652526D02*
X2454690Y656844D01*
X2444936D02*
X2449254Y652526D01*
X2437529Y679196D02*
X2439942Y681609D01*
X2435860Y666496D02*
Y669544D01*
Y638014D02*
X2440720Y642874D01*
X2435860Y652526D02*
Y656844D01*
X2473706Y517807D02*
X2598773Y642874D01*
X2478663D02*
X2604022Y517515D01*
X2464190Y547804D02*
X2559259Y642874D01*
X2458906D02*
X2594144Y507637D01*
X2473706Y529290D02*
X2537290Y465707D01*
X2439150Y642874D02*
X2584265Y497758D01*
X2435860Y626407D02*
X2574387Y487880D01*
X2435860Y626406D02*
X2574386Y487879D01*
X2435860Y606649D02*
X2564508Y478001D01*
X2430221Y592531D02*
X2554630Y468123D01*
X2591989Y490035D02*
X2613475Y468549D01*
X2435860Y598501D02*
X2480233Y642874D01*
X2435860Y618257D02*
X2460477Y642874D01*
X2462784Y465285D02*
Y536712D01*
X2420343Y582653D02*
X2460893Y542104D01*
X2435860Y598170D02*
Y642874D01*
X2410465Y572775D02*
X2462784Y520456D01*
X2426665Y510280D02*
X2462096Y545710D01*
X2473706Y509534D02*
X2518945Y464295D01*
X2461155Y465743D02*
X2462784Y467372D01*
X2432431Y491539D02*
X2458325Y465645D01*
X2514192Y459510D02*
X2518933Y464251D01*
X2473706Y489777D02*
X2500031Y463452D01*
X2432431Y476532D02*
X2462784Y506885D01*
X2432431Y496289D02*
X2462784Y526642D01*
X2582110Y480157D02*
X2609469Y452798D01*
X2582109Y480156D02*
X2609469Y452797D01*
X2575941Y422477D02*
X2609469Y456005D01*
X2572231Y470278D02*
X2609469Y433040D01*
X2549271Y455076D02*
X2552319Y458125D01*
X2549271Y453725D02*
X2552319Y450677D01*
X2549271Y417460D02*
Y457337D01*
X2563241Y449290D02*
X2565019Y451068D01*
X2563241Y439755D02*
X2565019Y437977D01*
X2549271Y433969D02*
X2552319Y430921D01*
X2563241Y419999D02*
X2565019Y418221D01*
X2563241Y429533D02*
X2565019Y431311D01*
X2531491Y437296D02*
X2538349Y444155D01*
X2531491Y451749D02*
X2538349Y444891D01*
X2549271Y435320D02*
X2552319Y438368D01*
X2531491Y417540D02*
X2538349Y424398D01*
X2531491Y457053D02*
X2536449Y462011D01*
X2538349Y420909D02*
Y457337D01*
X2432431Y456776D02*
X2462784Y487129D01*
X2473706Y470020D02*
X2501519Y442207D01*
X2432431Y471782D02*
X2454529Y449684D01*
X2512441Y438003D02*
X2520569Y446131D01*
X2531491Y431992D02*
X2538349Y425134D01*
X2512441Y451042D02*
X2520569Y442914D01*
X2512441Y418246D02*
X2520569Y426375D01*
X2512441Y431286D02*
X2520569Y423158D01*
X2432431Y452026D02*
X2454529Y429928D01*
X2432431Y437019D02*
X2452717Y457305D01*
X2473706Y419025D02*
X2501519Y446838D01*
X2473706Y450264D02*
X2501519Y422451D01*
X2364740Y527050D02*
X2435860Y598170D01*
X2400587Y562896D02*
X2462784Y500699D01*
X2380830Y543140D02*
X2419724Y504246D01*
X2390708Y553018D02*
X2462784Y480942D01*
X2370952Y533262D02*
X2421509Y482704D01*
X2254728Y476639D02*
X2305140Y527050D01*
X2251671Y493338D02*
X2285383Y527050D01*
X2315686Y438813D02*
X2519746Y642874D01*
X2254631Y456785D02*
X2324896Y527050D01*
X2337650D02*
X2421509Y443191D01*
X2357407Y527050D02*
X2421509Y462948D01*
X2226310Y527050D02*
X2364740D01*
X2223345Y522816D02*
X2303605Y442556D01*
X2242001Y444890D02*
X2243709Y443182D01*
X2200910Y500380D02*
X2226310Y525780D01*
X2213467Y512937D02*
X2240721Y485684D01*
X2226310Y525780D02*
Y527050D01*
X2199588Y444552D02*
X2241813Y486776D01*
X2203589Y503059D02*
X2230842Y475806D01*
X2186511Y500380D02*
X2220964Y465927D01*
X2166755Y500380D02*
X2211086Y456049D01*
X2146998Y500380D02*
X2201208Y446171D01*
X2107485Y500380D02*
X2165236Y442629D01*
X2238566Y468083D02*
X2243709Y462939D01*
X2228687Y458204D02*
X2234320Y452571D01*
X2241818Y443972D02*
X2243709Y445863D01*
X2218809Y448326D02*
X2224690Y442444D01*
X2317894Y527050D02*
X2421509Y423435D01*
X2349502Y433116D02*
X2419610Y503225D01*
X2298137Y527050D02*
X2398536Y426651D01*
X2313940Y417311D02*
X2539503Y642874D01*
X2256330Y470075D02*
X2303780Y422625D01*
X2254631Y437028D02*
X2344653Y527050D01*
X2177267Y438690D02*
X2265627Y527050D01*
X2238868D02*
X2336362Y429556D01*
X2208911Y430821D02*
X2243709Y465619D01*
X2405098Y429442D02*
X2421509Y445854D01*
X2313940Y432221D02*
X2324127Y422034D01*
X2231875Y435260D02*
X2243709Y423426D01*
X2208911Y438428D02*
X2241819Y471336D01*
X2211146Y428900D02*
X2228350Y446104D01*
X2219810Y421964D02*
X2236998Y439152D01*
X2219810Y423196D02*
X2235534Y438920D01*
X2132287Y433223D02*
X2199444Y500380D01*
X2127242D02*
X2197989Y429633D01*
X2087729Y500380D02*
X2165350Y422759D01*
X2088918Y429368D02*
X2159930Y500380D01*
X2208931Y438448D02*
X2214812Y432566D01*
X2208911Y418711D02*
X2209650Y417971D01*
X2805670Y414650D02*
X2806700Y413620D01*
X2805930Y413084D02*
X2806700Y412314D01*
X2805555Y415012D02*
X2806700Y416157D01*
Y412314D02*
Y642874D01*
X2786010Y415224D02*
X2806700Y435914D01*
X2754410Y426397D02*
X2779637Y401169D01*
X2772040Y401254D02*
X2778826Y408040D01*
X2773424Y427810D02*
X2806700Y394534D01*
X2766240Y420626D02*
X2785901Y400965D01*
X2806700Y394534D02*
Y397946D01*
X2805767Y395467D02*
X2806700Y396401D01*
X2798746Y405900D02*
X2806700Y397946D01*
X2799497Y385227D02*
X2800568Y386298D01*
X2797512Y387212D02*
X2798582Y388283D01*
X2795888Y405346D02*
X2796819Y406276D01*
X2788564Y398301D02*
X2800568Y386298D01*
X2762162Y411132D02*
X2768948Y417918D01*
X2724531Y413014D02*
X2735943Y424426D01*
X2750654Y422641D02*
X2776087Y397207D01*
X2724531Y403703D02*
Y456208D01*
X2677541Y405537D02*
X2686939Y414935D01*
X2677541Y424239D02*
X2686939Y414841D01*
Y385788D02*
Y453527D01*
X2643251Y391004D02*
X2666619Y414372D01*
X2733318Y402045D02*
X2745099Y413826D01*
X2741969Y390939D02*
X2754978Y403948D01*
X2697861Y386344D02*
X2702179Y390662D01*
X2697861Y403919D02*
X2702179Y399601D01*
X2697861Y406101D02*
X2702179Y410419D01*
X2677541Y385781D02*
X2686939Y395179D01*
X2677541Y404483D02*
X2686939Y395085D01*
X2789420Y395304D02*
X2799497Y385227D01*
X2752971Y382185D02*
X2764856Y394070D01*
X2734810Y398098D02*
X2749581Y383327D01*
X2743127Y415798D02*
X2782570Y376356D01*
X2762869Y372326D02*
X2774734Y384192D01*
X2727626Y390914D02*
X2743877Y374663D01*
X2713609Y368163D02*
Y458470D01*
X2724531Y416763D02*
X2777782Y363512D01*
X2724531Y368163D02*
Y391825D01*
X2782570Y368300D02*
Y376356D01*
X2753363Y381831D02*
X2772184Y363010D01*
X2724531Y373501D02*
X2734785Y383755D01*
X2724531Y377249D02*
X2758025Y343755D01*
X2714883Y344096D02*
X2744748Y373962D01*
X2713101Y367536D02*
Y461147D01*
X2697861Y382722D02*
Y453527D01*
X2702179Y350383D02*
Y461147D01*
X2677541Y344033D02*
Y460018D01*
X2643251Y399258D02*
X2666619Y375890D01*
X2643251Y375783D02*
Y456067D01*
X2666619Y344033D02*
Y462280D01*
X2644871Y372868D02*
X2666619Y394616D01*
X2697861Y384163D02*
X2702179Y379845D01*
X2696410Y370332D02*
Y374594D01*
X2686250Y371544D02*
Y374212D01*
X2677541Y384725D02*
X2683889Y378376D01*
X2677541Y384726D02*
X2683889Y378378D01*
X2677541Y366024D02*
X2685980Y374464D01*
X2643251Y438773D02*
X2666619Y415405D01*
X2643251Y410761D02*
X2666619Y434129D01*
X2620391Y422118D02*
X2632329Y410180D01*
X2643251Y419016D02*
X2666619Y395648D01*
X2620391Y407657D02*
X2632329Y419595D01*
X2575941Y446812D02*
X2609469Y413284D01*
X2575941Y402720D02*
X2609469Y436248D01*
X2565019Y396732D02*
Y456067D01*
X2575941Y427055D02*
X2609469Y393527D01*
X2575941Y396732D02*
Y456067D01*
X2643251Y419015D02*
X2666619Y395647D01*
X2620391Y402362D02*
X2632329Y390424D01*
X2620391Y387901D02*
X2632329Y399839D01*
X2563241Y409777D02*
X2565019Y411555D01*
X2549613Y415905D02*
X2552319Y418611D01*
X2563241Y400242D02*
X2565019Y398464D01*
X2531491Y412235D02*
X2552319Y391408D01*
X2531491Y412163D02*
Y457337D01*
X2520569Y412163D02*
Y457337D01*
X2512441Y405796D02*
Y456067D01*
X2501519Y402347D02*
Y456067D01*
X2473706Y430507D02*
X2501519Y402694D01*
X2473706Y399268D02*
X2501519Y427081D01*
X2254631Y397515D02*
X2499990Y642874D01*
X2549546Y413937D02*
X2552319Y411164D01*
X2515251Y401300D02*
X2519289Y405338D01*
X2512441Y411529D02*
X2519808Y404162D01*
X2505445Y391494D02*
X2507000Y393049D01*
X2473706Y410751D02*
X2500140Y384317D01*
X2620391Y381746D02*
Y460018D01*
X2632329Y375783D02*
Y456067D01*
X2609469Y381746D02*
Y462280D01*
X2620391Y382605D02*
X2630592Y372404D01*
X2575941Y407299D02*
X2608129Y375111D01*
X2564025Y371048D02*
X2609469Y416492D01*
X2563241Y371832D02*
Y459648D01*
X2575905Y387578D02*
X2609850Y353633D01*
X2567051Y354317D02*
X2609469Y396735D01*
X2626360Y334600D02*
X2666619Y374859D01*
X2643251Y379502D02*
X2666619Y356134D01*
X2620010Y367763D02*
X2632329Y380082D01*
X2563241Y380485D02*
X2609850Y333876D01*
X2567713Y335223D02*
X2608016Y375525D01*
X2552319Y369570D02*
Y463550D01*
X2511171Y377463D02*
X2541797Y408090D01*
X2522586Y401384D02*
X2541156Y382814D01*
X2511171Y357707D02*
X2552319Y398855D01*
X2510802Y393412D02*
X2540000Y364213D01*
X2473706Y379511D02*
X2501519Y407324D01*
X2473706Y373881D02*
Y536712D01*
X2432431Y392756D02*
X2454529Y370658D01*
X2511171Y373286D02*
X2540000Y344457D01*
X2511171Y322580D02*
Y379382D01*
X2485581Y371630D02*
X2500296Y386345D01*
X2501011Y322580D02*
Y381433D01*
X2473706Y390994D02*
X2501011Y363689D01*
X2772704Y362404D02*
X2782570Y372271D01*
X2773680Y359410D02*
X2782570Y368300D01*
X2747659Y373167D02*
X2763520Y357306D01*
X2696210Y366057D02*
X2702179Y360088D01*
X2696210Y364937D02*
X2702179Y370906D01*
X2696210Y366056D02*
X2702179Y360087D01*
X2763520Y349250D02*
Y357306D01*
X2713101Y350383D02*
Y358904D01*
X2696210Y345180D02*
X2702179Y351149D01*
X2701685Y340319D02*
Y341104D01*
X2696210Y346299D02*
X2701685Y340824D01*
X2696210Y342900D02*
Y368920D01*
X2686050Y345004D02*
Y370132D01*
X2620010Y360244D02*
X2630426Y370660D01*
X2620010Y360244D02*
Y372213D01*
X2677541Y346268D02*
X2686050Y354777D01*
X2677541Y345212D02*
X2681899Y340854D01*
X2677541Y364968D02*
X2686050Y356459D01*
X2620010Y363230D02*
X2621503Y361737D01*
X2626360Y352226D02*
X2637610Y363476D01*
X2724144Y357880D02*
X2748147Y333877D01*
X2714689Y347579D02*
X2738269Y323999D01*
X2714689Y347576D02*
X2738268Y323998D01*
X2736850Y322580D02*
X2763520Y349250D01*
X2732879Y322580D02*
X2763520Y353221D01*
X2711845Y338215D02*
Y339392D01*
X2679410Y338364D02*
X2686050Y345004D01*
X2713123Y322580D02*
X2755684Y365141D01*
X2683946Y322580D02*
X2701685Y340319D01*
X2698314Y322580D02*
X2736850D01*
X2709122Y333387D02*
X2719929Y322580D01*
X2699243Y323509D02*
X2700173Y322580D01*
X2677994D02*
X2694714Y339300D01*
X2689084Y333669D02*
X2692059Y330694D01*
X2698314Y322580D02*
X2710349Y334615D01*
X2677994Y322580D02*
X2683946D01*
X2639354Y363642D02*
X2664401Y338595D01*
X2628687Y354553D02*
X2654523Y328717D01*
X2626360Y337123D02*
X2640903Y322580D01*
X2634097D02*
X2666619Y355102D01*
X2648386Y322580D02*
X2664716Y338910D01*
X2594583Y322580D02*
X2609850Y337846D01*
X2580691Y328444D02*
X2609850Y357603D01*
X2626360Y322580D02*
Y352226D01*
X2609850Y322580D02*
Y372213D01*
X2662754Y322580D02*
X2671900Y331726D01*
X2662754Y322580D02*
X2663626D01*
X2679205Y323791D02*
X2680416Y322580D01*
X2663626D02*
X2672806Y331760D01*
X2576031Y333104D02*
X2586554Y322580D01*
X2626360D02*
X2648386D01*
X2586554D02*
X2609850D01*
X2563241Y371832D02*
X2565451Y369622D01*
X2567051Y335920D02*
Y365760D01*
X2553918Y365709D02*
X2556129Y363498D01*
X2550704Y373266D02*
X2552319Y371651D01*
X2511171Y337950D02*
X2540000Y366779D01*
X2556129Y335920D02*
Y363498D01*
X2567051Y337162D02*
X2569614Y334600D01*
X2550160Y337426D02*
X2556129Y343395D01*
X2568187Y334600D02*
X2572430D01*
X2550160Y354053D02*
X2556129Y348084D01*
X2550160Y357183D02*
X2556129Y363152D01*
X2527370Y334393D02*
X2540000Y347023D01*
X2511171Y353529D02*
X2521039Y343661D01*
X2484120Y350412D02*
X2501011Y367303D01*
X2499861Y346397D02*
X2501011Y347547D01*
X2484120Y360824D02*
X2491536Y353408D01*
X2484120Y334844D02*
Y364963D01*
X2473960Y334844D02*
Y364963D01*
X2473706Y347345D02*
Y365260D01*
X2499708Y345236D02*
X2501011Y343933D01*
X2487930Y338654D02*
Y342103D01*
X2498090Y336550D02*
Y342103D01*
X2484120Y334844D02*
X2487930Y338654D01*
X2484120Y341067D02*
X2487231Y337956D01*
X2467027Y338404D02*
X2472273Y333157D01*
X2550160Y334297D02*
X2553625Y330832D01*
X2567051Y356919D02*
X2601390Y322580D01*
X2550160D02*
Y372583D01*
X2527807Y336893D02*
X2540000Y324700D01*
Y322580D02*
Y372583D01*
X2535314Y322580D02*
X2540000Y327266D01*
X2567272Y324440D02*
X2570326D01*
X2566670Y322580D02*
Y323892D01*
X2570326Y324440D02*
X2572186Y322580D01*
X2566670D02*
X2572186D01*
X2550160D02*
X2556510D01*
X2526030D02*
X2540000D01*
X2556510D02*
Y323892D01*
X2555070Y322580D02*
X2556440Y323950D01*
X2511171Y333773D02*
X2515870Y329074D01*
X2461696Y322580D02*
X2473960Y334844D01*
X2440889Y327711D02*
X2460407Y347230D01*
X2438400Y325556D02*
X2460063Y347218D01*
X2456288Y322580D02*
X2473960Y340252D01*
X2451203Y322580D02*
X2472106Y343484D01*
X2495801Y322580D02*
X2501011Y327790D01*
X2511171Y322580D02*
X2515870D01*
X2494416Y330771D02*
X2501011Y324176D01*
X2526030Y322580D02*
Y332197D01*
X2515870Y322580D02*
Y332197D01*
X2457149Y328526D02*
X2462395Y323279D01*
X2451203Y322580D02*
X2461696D01*
X2486224D02*
X2501011D01*
X2486224D02*
X2496594Y332950D01*
X2432431Y417263D02*
X2454529Y439361D01*
X2432431Y432269D02*
X2454529Y410171D01*
X2409190Y413778D02*
X2421509Y426097D01*
X2432431Y397506D02*
X2454529Y419604D01*
X2421509Y405630D02*
Y497977D01*
X2278381Y527050D02*
X2399030Y406401D01*
X2348230Y412088D02*
X2421509Y485367D01*
X2389816Y414160D02*
X2397323Y421668D01*
X2348230Y392331D02*
X2421509Y465610D01*
X2399030Y405964D02*
Y418049D01*
X2409190Y415997D02*
X2418434Y406753D01*
X2409190Y403860D02*
Y418049D01*
X2432431Y412513D02*
X2454529Y390415D01*
X2412606Y392870D02*
Y395328D01*
X2406432Y398998D02*
X2412583Y392847D01*
X2332207Y415822D02*
X2338070Y421684D01*
X2332114Y414047D02*
X2338070Y408091D01*
X2348230Y417688D02*
X2369332Y396586D01*
X2258624Y527050D02*
X2379210Y406464D01*
X2313940Y412464D02*
X2320290Y406115D01*
X2254631Y412504D02*
X2274090Y393045D01*
X2386394Y399280D02*
X2389370Y396304D01*
X2330450Y395955D02*
X2338070Y388335D01*
X2330450Y394308D02*
X2338070Y401928D01*
X2376516Y389402D02*
X2379492Y386426D01*
X2348230Y397931D02*
X2359453Y386708D01*
X2313940Y397555D02*
X2320290Y403904D01*
X2313940Y392708D02*
X2320290Y386358D01*
X2287627Y390998D02*
X2303780Y407151D01*
X2432431Y377750D02*
X2454529Y399848D01*
X2389096Y369360D02*
X2412606Y392870D01*
X2376170Y361002D02*
X2411721Y396553D01*
X2454529Y358886D02*
Y453527D01*
X2432431Y333955D02*
Y497977D01*
X2367506Y374440D02*
X2399030Y405964D01*
X2350996Y378250D02*
X2380750Y408004D01*
X2376170Y368736D02*
X2407694Y400260D01*
X2359660Y372546D02*
X2387934Y400820D01*
X2397760Y362835D02*
X2421509Y386584D01*
X2419767Y385663D02*
X2421509Y383922D01*
X2397760Y363656D02*
X2421270Y387166D01*
X2432431Y357993D02*
X2454529Y380091D01*
X2421509Y322580D02*
Y387421D01*
X2396554Y389120D02*
X2402705Y382969D01*
X2366638Y379523D02*
X2369613Y376548D01*
X2386676Y379242D02*
X2392827Y373091D01*
X2320290Y343734D02*
Y410683D01*
X2330450Y341630D02*
Y410683D01*
X2313940Y340360D02*
Y433543D01*
X2348230Y330200D02*
Y425923D01*
X2338070Y332304D02*
Y425923D01*
X2254631Y377759D02*
X2303780Y426908D01*
Y342464D02*
Y433543D01*
X2256231Y374925D02*
X2274070Y392764D01*
X2348230Y378175D02*
X2349865Y376540D01*
X2313940Y377798D02*
X2320290Y384148D01*
X2330450Y376198D02*
X2338070Y368578D01*
X2330450Y374551D02*
X2338070Y382171D01*
X2264895Y368266D02*
X2282352Y385723D01*
X2264895Y369221D02*
X2281254Y385580D01*
X2264895Y348510D02*
X2303780Y387394D01*
X2281535Y385600D02*
X2303780Y363355D01*
X2254631Y417272D02*
X2364409Y527050D01*
X2254631Y452017D02*
X2303780Y402868D01*
X2221996Y425382D02*
X2243709Y403669D01*
X2219810Y402208D02*
X2243709Y426106D01*
X2175510Y397420D02*
X2197989Y419899D01*
X2175510Y417177D02*
X2197989Y439656D01*
X2091690Y412383D02*
X2179687Y500380D01*
X2131060Y412240D02*
X2245870Y527050D01*
X2175510Y432355D02*
X2197989Y409876D01*
X2208911Y398954D02*
X2209650Y398215D01*
X2208911Y391308D02*
X2209650Y392048D01*
X2208911Y411065D02*
X2209650Y411804D01*
X2219810Y407811D02*
X2243709Y383913D01*
X2197391Y390718D02*
X2197989Y390120D01*
X2195357Y397510D02*
X2197989Y400143D01*
X2175510Y412599D02*
X2189038Y399071D01*
X2154407Y415830D02*
X2165350Y426773D01*
X2154313Y414039D02*
X2165350Y403002D01*
X2131060Y417536D02*
X2142490Y406105D01*
X2109427Y410364D02*
X2120900Y421837D01*
X2091690Y417392D02*
X2097493Y411590D01*
X2152650Y394317D02*
X2165350Y407017D01*
X2131060Y392483D02*
X2142490Y403913D01*
X2108200Y389380D02*
X2120900Y402080D01*
X2131060Y397779D02*
X2142490Y386349D01*
X2108200Y400882D02*
X2120900Y388182D01*
X2091690Y392626D02*
X2098040Y398977D01*
X2080646Y401339D02*
X2081530Y402223D01*
X2091690Y397636D02*
X2098040Y391286D01*
X2078990Y390579D02*
X2081530Y388039D01*
X2254631Y432260D02*
X2303780Y383111D01*
X2219810Y382451D02*
X2243709Y406350D01*
X2219810Y337534D02*
Y423196D01*
X2254631Y322580D02*
Y466862D01*
X2243709Y322580D02*
Y466862D01*
X2209650Y334010D02*
Y425300D01*
X2175510Y322580D02*
Y433543D01*
X2208911Y322580D02*
Y438428D01*
X2197989Y322580D02*
Y440690D01*
X2254631Y392747D02*
X2264342Y383036D01*
X2208911Y379198D02*
X2209650Y378458D01*
X2195830Y378227D02*
X2197989Y380386D01*
X2219810Y362694D02*
X2243709Y386593D01*
X2219810Y388055D02*
X2243709Y364156D01*
X2175510Y392842D02*
X2185670Y382682D01*
X2175510Y377664D02*
X2185670Y387823D01*
X2195830Y322580D02*
Y387823D01*
X2185670Y322580D02*
Y387823D01*
X2131060Y322580D02*
Y425923D01*
X2142490Y322580D02*
Y410683D01*
X2120900Y322580D02*
Y425923D01*
X2165350Y322580D02*
Y433543D01*
X2152650Y322580D02*
Y410683D01*
X2091690Y322580D02*
Y418303D01*
X2081530Y322580D02*
Y418303D01*
X2108200Y322580D02*
Y403063D01*
X2098040Y322580D02*
Y403063D01*
X2152650Y395946D02*
X2165350Y383246D01*
X2152650Y374560D02*
X2165350Y387260D01*
X2131060Y372727D02*
X2142490Y384157D01*
X2152650Y376189D02*
X2165350Y363489D01*
X2131060Y378022D02*
X2142490Y366592D01*
X2091690Y377879D02*
X2098040Y371529D01*
X2091690Y372870D02*
X2098040Y379220D01*
X2108200Y381126D02*
X2120900Y368426D01*
X2108200Y369623D02*
X2120900Y382323D01*
X2409889Y375785D02*
X2421509Y364165D01*
X2419312Y364631D02*
X2421509Y366828D01*
X2432431Y373000D02*
X2451953Y353477D01*
X2400011Y365907D02*
X2406718Y359200D01*
X2376798Y369363D02*
X2387600Y358561D01*
X2432431Y353243D02*
X2442075Y343599D01*
X2418080Y343642D02*
X2421509Y347071D01*
X2418080Y347838D02*
X2421509Y344409D01*
X2432431Y338237D02*
X2454529Y360335D01*
X2432431Y333955D02*
X2452878Y354403D01*
X2397760Y343079D02*
X2407920Y353239D01*
X2376170Y341245D02*
X2387600Y352675D01*
X2397760Y348401D02*
X2407920Y338241D01*
X2376170Y350234D02*
X2387600Y338805D01*
X2359660Y366744D02*
X2366010Y360395D01*
X2359660Y364248D02*
X2366010Y370598D01*
X2349500Y327224D02*
Y374650D01*
X2348230Y358418D02*
X2349500Y357148D01*
X2348230Y372575D02*
X2349500Y373845D01*
X2313940Y358041D02*
X2320290Y364391D01*
X2330450Y356441D02*
X2338070Y348821D01*
X2330450Y354795D02*
X2338070Y362415D01*
X2359660Y344492D02*
X2366010Y350842D01*
X2359660Y346988D02*
X2366010Y340638D01*
X2348230Y352818D02*
X2349500Y354088D01*
X2348230Y333062D02*
X2349500Y334332D01*
X2348230Y338661D02*
X2349500Y337391D01*
X2313940Y353195D02*
X2320290Y346845D01*
X2329029Y338106D02*
X2336450Y330685D01*
X2418080Y328081D02*
X2421509Y324652D01*
X2397760Y328644D02*
X2403824Y322580D01*
X2418080D02*
Y357343D01*
X2407920Y322580D02*
Y357343D01*
X2397760Y323322D02*
X2407920Y333482D01*
X2377261Y322580D02*
X2387600Y332919D01*
X2397760Y322580D02*
Y363656D01*
X2387600Y322580D02*
Y365760D01*
X2438400Y324449D02*
X2439590Y325639D01*
X2438400Y322580D02*
Y325556D01*
X2439289Y322580D02*
Y323850D01*
X2438400Y322580D02*
X2439289D01*
X2418080Y323885D02*
X2421509Y327314D01*
X2376170Y322580D02*
X2387600D01*
X2418080D02*
X2421509D01*
X2397760D02*
X2407920D01*
X2366010D02*
Y370840D01*
X2359644Y324719D02*
X2366010Y331085D01*
X2359660Y325120D02*
Y372546D01*
X2376170Y330478D02*
X2384068Y322580D01*
X2376170D02*
Y368736D01*
X2328346Y322580D02*
X2338070Y332304D01*
X2317992Y322580D02*
X2338070Y342658D01*
X2344856Y322580D02*
X2349500Y327224D01*
X2358979Y322580D02*
X2366010D01*
X2359660Y327231D02*
X2364311Y322580D01*
X2342714D02*
X2346734Y326600D01*
X2319151Y328227D02*
X2324798Y322580D01*
X2342714D02*
X2344856D01*
X2343634Y323500D02*
X2344555Y322580D01*
X2313940Y372951D02*
X2320290Y366601D01*
X2271526Y375852D02*
X2303780Y343598D01*
X2264895Y362726D02*
X2294469Y333153D01*
X2208911Y371552D02*
X2209650Y372291D01*
X2195830Y358471D02*
X2197989Y360630D01*
X2219810Y342938D02*
X2243709Y366837D01*
X2219810Y368298D02*
X2243709Y344400D01*
X2312760Y337105D02*
X2320290Y344635D01*
X2208911Y339684D02*
X2209650Y338945D01*
X2208911Y332039D02*
X2209650Y332778D01*
X2208911Y351795D02*
X2209650Y352534D01*
X2208911Y359441D02*
X2209650Y358702D01*
X2195830Y338714D02*
X2197989Y340873D01*
X2195830Y352766D02*
X2197989Y350606D01*
X2195830Y372522D02*
X2197989Y370363D01*
X2175510Y357907D02*
X2185670Y368067D01*
X2175510Y373086D02*
X2185670Y362925D01*
X2152650Y354804D02*
X2165350Y367504D01*
X2131060Y352970D02*
X2142490Y364400D01*
X2091690Y353113D02*
X2098040Y359463D01*
X2078990Y360170D02*
X2081530Y362710D01*
X2108200Y361369D02*
X2120900Y348669D01*
X2108200Y349867D02*
X2120900Y362567D01*
X2175510Y353329D02*
X2185670Y343169D01*
X2175510Y338151D02*
X2185670Y348311D01*
X2152650Y356432D02*
X2165350Y343732D01*
X2152650Y335047D02*
X2165350Y347747D01*
X2131060Y333214D02*
X2142490Y344644D01*
X2131060Y358266D02*
X2142490Y346836D01*
X2091690Y358123D02*
X2098040Y351773D01*
X2091690Y338366D02*
X2098040Y332016D01*
X2091690Y333357D02*
X2098040Y339707D01*
X2264895Y328753D02*
X2303780Y367638D01*
X2278479Y322580D02*
X2303780Y347881D01*
X2264895Y342970D02*
X2284590Y323275D01*
X2299136Y322580D02*
X2320290Y343734D01*
X2283896Y322580D02*
X2303780Y342464D01*
X2219810Y348542D02*
X2243709Y324643D01*
X2226987Y330358D02*
X2243709Y347080D01*
X2264895Y322580D02*
Y369221D01*
X2254735Y322580D02*
Y371325D01*
X2298264Y322580D02*
X2312444Y336760D01*
X2298264Y322580D02*
X2299136D01*
X2264895D02*
X2283896D01*
X2313504D02*
X2328954Y338030D01*
X2313504Y322580D02*
X2328346D01*
X2234764D02*
X2243709D01*
X2219810Y337534D02*
X2234764Y322580D01*
X2264895Y323213D02*
X2265529Y322580D01*
X2238965D02*
X2243709Y327323D01*
X2175510Y333572D02*
X2185670Y323412D01*
X2195830Y333009D02*
X2197989Y330850D01*
X2159939Y322580D02*
X2165350Y327991D01*
X2209650Y322580D02*
Y334010D01*
X2179696Y322580D02*
X2185670Y328554D01*
X2108200Y341613D02*
X2120900Y328913D01*
X2108200Y330110D02*
X2120900Y342810D01*
X2152650Y336676D02*
X2165350Y323976D01*
X2131060Y338509D02*
X2142490Y327079D01*
X2152650Y322580D02*
X2165350D01*
X2175510D02*
X2185670D01*
X2140183D02*
X2142490Y324887D01*
X2219810Y323166D02*
X2220396Y322580D01*
X2195830D02*
X2197989D01*
X2091690D02*
X2098040D01*
X2080913D02*
X2081530Y323197D01*
X2131060Y322580D02*
X2142490D01*
X2108200D02*
X2120900D01*
X1637737Y412831D02*
X1725286Y500380D01*
X1666691Y422028D02*
X1745043Y500380D01*
X1617114Y431721D02*
X1685773Y500380D01*
X1690100Y405924D02*
X1784556Y500380D01*
X1615440Y410290D02*
X1705530Y500380D01*
X1570990Y425110D02*
X1646260Y500380D01*
X1574058D02*
X1653252Y421186D01*
X1569872Y443748D02*
X1626503Y500380D01*
X1593815D02*
X1687330Y406865D01*
X1570990Y405353D02*
X1666017Y500380D01*
X2048215D02*
X2119220Y429376D01*
X2067972Y500380D02*
X2146319Y422033D01*
X2008702Y500380D02*
X2081547Y427536D01*
X2028459Y500380D02*
X2120900Y407939D01*
X1988946Y500380D02*
X2081530Y407796D01*
X1615440Y419485D02*
X1626414Y408511D01*
X1569366Y482755D02*
X1586990Y500380D01*
X1576609Y470242D02*
X1606747Y500380D01*
X1566040Y468885D02*
X1567357Y467569D01*
X1551940Y481711D02*
X1560967D01*
X1554202Y470789D02*
X1560967D01*
X1597242Y411849D02*
X1605280Y419887D01*
X1577549Y457377D02*
X1603554Y431371D01*
X1570990Y424422D02*
X1586230Y409182D01*
X1556557Y438854D02*
X1559391Y436021D01*
X1566436Y448733D02*
X1593322Y421846D01*
X1902732Y381478D02*
X2021635Y500380D01*
X1890163D02*
X2026920Y363623D01*
X1858505Y376763D02*
X1982121Y500380D01*
X1870406D02*
X2021906Y348880D01*
X1856740Y355242D02*
X2001878Y500380D01*
X1833793Y391565D02*
X1942608Y500380D01*
X1830893D02*
X1941220Y390054D01*
X1850650Y500380D02*
X2000746Y350283D01*
X1837352Y375367D02*
X1962365Y500380D01*
X1969189D02*
X2067391Y402179D01*
X2035191Y375640D02*
X2080152Y420602D01*
X1950458Y389690D02*
X2061148Y500380D01*
X1950720Y350439D02*
X2100661Y500380D01*
X1950720Y370196D02*
X2080904Y500380D01*
X1949433D02*
X2068830Y380983D01*
X1909920Y500380D02*
X2034252Y376048D01*
X1929676Y500380D02*
X2068830Y361226D01*
X1902460Y361449D02*
X2041391Y500380D01*
X1692598D02*
X1820607Y372371D01*
X1712354Y500380D02*
X1826021Y386713D01*
X1691640Y387708D02*
X1804312Y500380D01*
X1691640Y367951D02*
X1824069Y500380D01*
X1672841D02*
X1810728Y362493D01*
X1664970Y400551D02*
X1764799Y500380D01*
X1554302D02*
X1654810Y399872D01*
X1653085Y500380D02*
X1800850Y352614D01*
X1613571Y500380D02*
X1740557Y373394D01*
X1771624Y500380D02*
X1891420Y380583D01*
X1811137Y500380D02*
X1940560Y370957D01*
X1753085Y370127D02*
X1883339Y500380D01*
X1791380D02*
X1940560Y351200D01*
X1756282Y353567D02*
X1903095Y500380D01*
X1727347Y364145D02*
X1863582Y500380D01*
X1732111D02*
X1848986Y383505D01*
X1751867Y500380D02*
X1892300Y359947D01*
X1691640Y348195D02*
X1843826Y500380D01*
X1539240D02*
X2200910D01*
X1549291Y465878D02*
X1558713Y456456D01*
X1539090Y452479D02*
X1557399Y470789D01*
X1536893Y498033D02*
X1553214Y481711D01*
X1527014Y488154D02*
X1541568Y473601D01*
X1515110Y476250D02*
X1539240Y500380D01*
X1494738Y426772D02*
X1548078Y480112D01*
X1517136Y478276D02*
X1531689Y463722D01*
X1547333Y445076D02*
X1566173Y463916D01*
X1546709Y448703D02*
X1548835Y446577D01*
X1540332Y438074D02*
X1541204Y438947D01*
X1549654Y431951D02*
X1573896Y456193D01*
X1549654Y423531D02*
X1560312Y434188D01*
X1539413Y455999D02*
X1543443Y451969D01*
X1459892Y476250D02*
X1502055Y434088D01*
X1479649Y476250D02*
X1511933Y443966D01*
X1452530Y444946D02*
X1483834Y476250D01*
X1456690Y429349D02*
X1503591Y476250D01*
X1440136D02*
X1493149Y423237D01*
X1420379Y476250D02*
X1451621Y445008D01*
X1361110Y476250D02*
X1404515Y432845D01*
X1417806Y429978D02*
X1464078Y476250D01*
X1400623D02*
X1446530Y430343D01*
X1499406Y476250D02*
X1521811Y453844D01*
X1529534Y446121D02*
X1531606Y444050D01*
X1519656Y436243D02*
X1521727Y434172D01*
X1509778Y426365D02*
X1511849Y424293D01*
X469900Y476250D02*
X1515110D01*
X1504061Y420648D02*
X1554202Y470789D01*
X1504061Y417451D02*
X1533801Y447190D01*
X1508201Y420645D02*
X1533660Y446104D01*
X1516865Y414941D02*
X1540844Y438920D01*
X1516865Y410498D02*
X1538732Y432365D01*
X1456690Y409593D02*
X1547477Y500380D01*
X1416050Y408466D02*
X1444814Y437230D01*
X1456690Y389836D02*
X1567234Y500380D01*
X1458468Y438161D02*
X1493139Y403490D01*
X1528912Y426987D02*
X1538732Y417167D01*
X1549654Y426002D02*
X1560830Y414826D01*
X1549654Y398896D02*
Y431951D01*
X1456690Y420183D02*
X1480377Y396496D01*
X1440268Y412928D02*
X1446530Y419189D01*
X1321597Y476250D02*
X1374756Y423090D01*
X1341353Y476250D02*
X1405890Y411713D01*
X1301840Y476250D02*
X1364878Y413212D01*
X1281287Y372486D02*
X1385051Y476250D01*
X1282083D02*
X1353118Y405215D01*
X1242570Y476250D02*
X1352550Y366270D01*
X1262327Y476250D02*
X1352550Y386027D01*
X1280160Y351602D02*
X1404808Y476250D01*
X1238250Y349205D02*
X1365295Y476250D01*
X1387874Y419803D02*
X1444321Y476250D01*
X1416050Y421310D02*
X1428750Y408610D01*
X1397274Y409446D02*
X1405890Y418062D01*
X1380866Y476250D02*
X1435084Y422032D01*
X1354430Y406116D02*
X1424565Y476250D01*
X1362151Y410485D02*
X1374910Y423244D01*
X1664970Y389712D02*
X1681480Y373202D01*
X2078990Y379926D02*
X2081530Y382467D01*
X2078990Y370823D02*
X2081530Y368283D01*
X1837690Y377190D02*
Y380203D01*
X1827530Y379294D02*
Y380203D01*
X1638300Y393637D02*
X1654810Y410147D01*
X1664970Y409468D02*
X1681480Y392958D01*
X1615440Y390534D02*
X1628060Y403153D01*
X1597866Y417303D02*
X1605280Y409889D01*
X1596390Y391240D02*
X1605280Y400130D01*
X1570990Y404665D02*
X1586230Y389426D01*
X1638300Y396625D02*
X1654810Y380115D01*
X1664970Y380794D02*
X1680686Y396510D01*
X1615440Y399729D02*
X1628140Y387029D01*
X1638300Y373881D02*
X1654810Y390391D01*
X1615440Y370777D02*
X1628140Y383477D01*
X1596390Y371484D02*
X1605280Y380374D01*
X1596390Y399022D02*
X1605280Y390132D01*
X1596390Y379266D02*
X1605280Y370376D01*
X1570990Y384909D02*
X1586230Y369669D01*
X2038478Y371822D02*
X2049344Y360955D01*
X2062762Y363698D02*
X2068830Y369767D01*
X2040213Y360906D02*
X2068830Y389523D01*
X1837356Y375378D02*
X1846580Y366154D01*
X2037080Y358937D02*
Y364963D01*
X2078990Y351066D02*
X2081530Y348526D01*
X2026920Y353894D02*
Y364963D01*
X2011277Y351726D02*
X2025930Y366379D01*
X1751330Y351317D02*
Y364963D01*
X1693375Y400820D02*
X1733050Y361145D01*
X1691640Y382798D02*
X1714212Y360226D01*
X1664970Y361038D02*
X1681480Y377548D01*
X1664970Y369955D02*
X1681480Y353445D01*
X1615440Y379972D02*
X1628140Y367272D01*
X1570990Y365840D02*
X1586230Y381080D01*
X1638300Y354124D02*
X1654810Y370634D01*
X1638300Y376869D02*
X1654810Y360359D01*
X1738937Y355978D02*
X1741170Y358211D01*
X1739095Y355100D02*
X1741170Y353025D01*
X1596390Y351727D02*
X1605280Y360617D01*
X1615440Y351021D02*
X1628140Y363721D01*
X1596390Y359509D02*
X1605280Y350619D01*
X1549654Y403774D02*
X1560830Y414950D01*
X1549654Y406245D02*
X1560830Y395069D01*
X1519033Y417109D02*
X1538732Y397410D01*
X1570990Y385597D02*
X1586230Y400837D01*
X1516865Y390742D02*
X1538732Y412608D01*
X1504061Y412325D02*
X1506705Y409680D01*
X1485898Y399288D02*
X1493139Y406529D01*
X1504061Y397694D02*
X1506705Y400338D01*
X1558763Y393126D02*
X1560830Y395193D01*
X1504061Y392568D02*
X1506705Y389924D01*
X1489966Y386907D02*
X1493139Y383734D01*
X1475966Y389680D02*
X1479050Y392764D01*
X1484630Y383976D02*
X1486234Y385580D01*
X1440572Y416544D02*
X1446530Y410586D01*
X1381940Y415906D02*
X1385570Y412277D01*
X1370815Y402744D02*
X1384868Y416796D01*
X1370815Y404781D02*
X1382094Y416060D01*
X1438910Y391813D02*
X1446530Y399433D01*
X1438910Y398450D02*
X1446530Y390830D01*
X1416050Y401553D02*
X1428750Y388853D01*
X1416050Y388709D02*
X1428750Y401409D01*
X1372062Y406028D02*
X1385570Y392520D01*
X1395730Y388146D02*
X1405890Y398306D01*
X1395730Y402117D02*
X1405890Y391956D01*
X1557020Y379122D02*
X1560830Y375312D01*
X1557020Y371627D02*
X1560830Y375437D01*
X1516865Y370985D02*
X1538732Y392852D01*
X1516865Y351229D02*
X1538732Y373095D01*
X1516865Y379764D02*
X1538732Y357897D01*
X1504061Y377938D02*
X1506705Y380582D01*
X1484630Y378263D02*
X1493139Y386772D01*
X1516865Y399520D02*
X1538732Y377654D01*
X1456690Y370080D02*
X1475053Y388442D01*
X1557020Y359366D02*
X1560830Y355556D01*
X1557020Y351870D02*
X1560830Y355680D01*
X1504061Y358181D02*
X1506705Y360825D01*
X1570990Y365152D02*
X1586230Y349912D01*
X1504061Y353055D02*
X1506705Y350411D01*
X1504061Y372812D02*
X1506705Y370167D01*
X1484630Y372486D02*
X1493139Y363977D01*
X1484630Y358507D02*
X1493139Y367015D01*
X1456690Y350323D02*
X1474470Y368103D01*
X1456690Y400426D02*
X1474470Y382646D01*
X1438910Y378693D02*
X1446530Y371073D01*
X1438910Y372056D02*
X1446530Y379676D01*
X1456690Y380670D02*
X1474470Y362890D01*
X1416050Y368953D02*
X1428750Y381653D01*
X1370815Y387518D02*
X1385570Y372763D01*
X1370815Y382988D02*
X1385570Y397742D01*
X1416050Y381796D02*
X1428750Y369096D01*
X1395730Y382360D02*
X1405890Y372200D01*
X1438910Y352300D02*
X1446530Y359920D01*
X1438910Y358937D02*
X1446530Y351316D01*
X1416050Y362040D02*
X1428750Y349340D01*
X1416050Y349196D02*
X1428750Y361896D01*
X1395730Y348633D02*
X1405890Y358793D01*
X1395730Y368389D02*
X1405890Y378549D01*
X1370815Y363231D02*
X1385570Y377986D01*
X1395730Y362603D02*
X1405890Y352443D01*
X1370815Y367761D02*
X1385570Y353007D01*
X943239Y429569D02*
X989920Y476250D01*
X949960Y416533D02*
X1009677Y476250D01*
X906916Y432759D02*
X950407Y476250D01*
X975422Y402482D02*
X1049190Y476250D01*
X905510Y411596D02*
X970164Y476250D01*
X862330Y427686D02*
X910894Y476250D01*
X886952D02*
X938314Y424889D01*
X862330Y407929D02*
X930651Y476250D01*
X867196D02*
X928942Y414504D01*
X928196Y414526D02*
X938221Y424551D01*
X935204Y408242D02*
X939800Y403646D01*
X886090Y411933D02*
X895350Y421193D01*
X886682Y417251D02*
X895350Y408583D01*
X827683Y476250D02*
X859211Y444722D01*
X859512Y444624D02*
X891138Y476250D01*
X801862Y446244D02*
X831868Y476250D01*
X800100Y404969D02*
X871381Y476250D01*
X807926D02*
X852170Y432006D01*
X768413Y476250D02*
X792511Y452152D01*
X754861Y438756D02*
X792355Y476250D01*
X788170D02*
X852170Y412250D01*
X800100Y424725D02*
X851625Y476250D01*
X863822Y440111D02*
X882071Y421862D01*
X862330Y421846D02*
X875030Y409146D01*
X847439Y476250D02*
X893585Y430104D01*
X1104274Y476250D02*
X1196558Y383967D01*
X1129384Y378635D02*
X1226999Y476250D01*
X1084518D02*
X1187002Y373766D01*
X1082040Y351048D02*
X1207242Y476250D01*
X1082040Y370804D02*
X1187486Y476250D01*
X1081462Y389983D02*
X1167729Y476250D01*
X1044771Y373048D02*
X1147973Y476250D01*
X1064761D02*
X1182370Y358641D01*
X1016552Y364585D02*
X1128216Y476250D01*
X1238570Y389038D02*
X1325782Y476250D01*
X1238250Y368962D02*
X1345538Y476250D01*
X1203567Y373792D02*
X1306025Y476250D01*
X1203057D02*
X1318902Y360405D01*
X1183301Y476250D02*
X1310640Y348911D01*
X1143788Y476250D02*
X1229460Y390578D01*
X1124031Y476250D02*
X1228090Y372191D01*
X1163544Y476250D02*
X1268454Y371340D01*
X1127760Y357254D02*
X1246756Y476250D01*
X965979D02*
X1071880Y370349D01*
X985735Y476250D02*
X1072219Y389766D01*
X974090Y381393D02*
X1068947Y476250D01*
X1005492D02*
X1117600Y364142D01*
X974090Y361637D02*
X1088703Y476250D01*
X926466D02*
X1032085Y370631D01*
X949960Y396777D02*
X1029434Y476250D01*
X946222D02*
X1071880Y350592D01*
X906709Y476250D02*
X1021794Y361165D01*
X905510Y418179D02*
X923290Y400399D01*
X949960Y413242D02*
X962216Y400986D01*
X801402Y443261D02*
X852170Y392493D01*
X1025248Y476250D02*
X1118714Y382785D01*
X905510Y391840D02*
X921514Y407844D01*
X800100Y424807D02*
X831423Y393483D01*
X774662Y399288D02*
X789940Y414566D01*
X800100Y365456D02*
X852170Y417526D01*
X800100Y385212D02*
X850776Y435888D01*
X707858Y431267D02*
X752842Y476250D01*
X748656D02*
X789940Y434967D01*
X709143Y476250D02*
X742803Y442590D01*
X728900Y476250D02*
X789940Y415210D01*
X689387Y476250D02*
X742950Y422687D01*
X649874Y476250D02*
X694304Y431819D01*
X666731Y429653D02*
X713329Y476250D01*
X610361D02*
X659823Y426787D01*
X670560Y413725D02*
X733085Y476250D01*
X669630D02*
X724486Y421394D01*
X753110Y417249D02*
X812111Y476250D01*
X670560Y416051D02*
X673726Y412885D01*
X488554Y468798D02*
X496007Y476250D01*
X488554Y468798D02*
X496007Y476250D01*
X472821Y472821D02*
X476250Y476250D01*
X466471Y472821D02*
X476387D01*
X466471D02*
X469900Y476250D01*
X472065D02*
X475494Y472821D01*
X466659Y461899D02*
X473753Y454806D01*
X455549Y461899D02*
X476387D01*
X451226Y457576D02*
X463874Y444927D01*
X441348Y447698D02*
X453996Y435049D01*
X431469Y437819D02*
X444118Y425171D01*
X421591Y427941D02*
X434240Y415293D01*
X630117Y476250D02*
X695960Y410407D01*
X706120Y409772D02*
X772598Y476250D01*
X590604D02*
X660400Y406454D01*
X753110Y432283D02*
X789940Y395453D01*
X753110Y397492D02*
X789940Y434322D01*
X567195Y369629D02*
X673816Y476250D01*
X570848D02*
X640519Y406578D01*
X575310Y357988D02*
X693572Y476250D01*
X529392Y351583D02*
X654059Y476250D01*
X726440Y410335D02*
X742950Y426845D01*
X706120Y420004D02*
X716280Y409844D01*
X753110Y412527D02*
X769162Y396475D01*
X727464Y418416D02*
X742950Y402930D01*
X684998Y408407D02*
X695960Y419368D01*
X643872Y406793D02*
X658737Y421659D01*
X531334Y476250D02*
X634111Y373473D01*
X548048Y389996D02*
X634302Y476250D01*
X551091D02*
X634111Y393230D01*
X511578Y476250D02*
X634111Y353717D01*
X491821Y476250D02*
X610870Y357201D01*
X480300Y381517D02*
X575033Y476250D01*
X365760Y372110D02*
X455549Y461899D01*
X480060Y361521D02*
X594789Y476250D01*
X486348Y461967D02*
X592703Y355612D01*
X481476Y447083D02*
X538806Y389753D01*
X471597Y437204D02*
X530184Y378618D01*
X441963Y407570D02*
X468994Y380537D01*
X461719Y427326D02*
X520329Y368716D01*
X451841Y417448D02*
X519232Y350057D01*
X411713Y418063D02*
X424361Y405414D01*
X401834Y408185D02*
X414483Y395536D01*
X372811Y353864D02*
X473973Y455026D01*
X353864Y353864D02*
X461899Y461899D01*
X933450Y390239D02*
X939800Y383889D01*
X933450Y380266D02*
X939800Y386617D01*
X933450Y400023D02*
X939800Y406373D01*
X949960Y377020D02*
X963930Y390990D01*
X949960Y393486D02*
X963930Y379516D01*
X1183866Y370630D02*
X1190760Y377524D01*
X885190Y391276D02*
X895350Y401436D01*
X885190Y398986D02*
X895350Y388826D01*
X862330Y402090D02*
X875030Y389390D01*
X905510Y398423D02*
X923290Y380643D01*
X862330Y388173D02*
X875030Y400873D01*
X844727Y390327D02*
X852170Y397769D01*
X800100Y405050D02*
X833120Y372030D01*
X905510Y372083D02*
X923290Y389863D01*
X885190Y371520D02*
X895350Y381680D01*
X862330Y382333D02*
X875030Y369633D01*
X885190Y379230D02*
X895350Y369070D01*
X862330Y368416D02*
X875030Y381116D01*
X778745Y386892D02*
X789940Y375697D01*
X843280Y369123D02*
X852170Y378013D01*
X843280Y381627D02*
X852170Y372737D01*
X1332336Y364265D02*
X1352550Y384479D01*
X1192530Y364926D02*
X1197944Y370340D01*
X1238938Y381100D02*
X1270000Y350038D01*
X1204387Y376138D02*
X1228090Y352434D01*
X1192530Y362755D02*
X1201008Y371233D01*
X1043940Y352461D02*
X1071787Y380308D01*
X1238250Y362031D02*
X1246725Y353555D01*
X1062777Y351541D02*
X1071880Y360644D01*
X1043940Y358775D02*
X1052203Y350513D01*
X1028683Y356961D02*
X1033780Y362057D01*
X1029185Y353773D02*
X1033780Y349179D01*
X974090Y389112D02*
X1003890Y359313D01*
X949960Y373729D02*
X963930Y359759D01*
X933450Y370483D02*
X939800Y364133D01*
X949960Y357263D02*
X963930Y371233D01*
X905510Y378666D02*
X923290Y360886D01*
X773430Y372450D02*
X789940Y355940D01*
X905510Y352327D02*
X923290Y370107D01*
X800100Y385293D02*
X833120Y352273D01*
X933450Y360510D02*
X939800Y366860D01*
X885190Y351763D02*
X895350Y361923D01*
X885190Y359473D02*
X895350Y349313D01*
X862330Y362576D02*
X875030Y349877D01*
X843280Y361870D02*
X852170Y352980D01*
X862330Y348660D02*
X875030Y361360D01*
X843280Y349366D02*
X852170Y358256D01*
X726440Y399684D02*
X742950Y383174D01*
X726440Y390579D02*
X742950Y407089D01*
X773430Y378299D02*
X789940Y394809D01*
X753110Y392770D02*
X763270Y382610D01*
X706120Y400247D02*
X716280Y390087D01*
X683395Y403216D02*
X695960Y390651D01*
X706120Y390015D02*
X716280Y400175D01*
X683260Y386912D02*
X695960Y399612D01*
X764766Y389680D02*
X767850Y392764D01*
X773430Y383976D02*
X775034Y385580D01*
X753110Y377735D02*
X763894Y388520D01*
X726440Y370822D02*
X742950Y387332D01*
X683260Y383594D02*
X695960Y370894D01*
X706120Y370259D02*
X716280Y380419D01*
X706120Y380491D02*
X716280Y370331D01*
X670560Y393968D02*
X673100Y396508D01*
X670560Y396294D02*
X673100Y393754D01*
X649148Y397949D02*
X660400Y386698D01*
X644271Y387436D02*
X660400Y403565D01*
X391956Y398306D02*
X404605Y385658D01*
X670560Y374212D02*
X673100Y376752D01*
X670560Y376538D02*
X673100Y373998D01*
X548503Y380056D02*
X554710Y373848D01*
X382078Y388428D02*
X394726Y375779D01*
X520728Y369162D02*
X536710Y385144D01*
X726440Y379927D02*
X742950Y363417D01*
X683260Y367155D02*
X695960Y379855D01*
X644271Y383070D02*
X660400Y366941D01*
X773430Y358542D02*
X789940Y375052D01*
X753110Y373014D02*
X763270Y362854D01*
X644271Y367679D02*
X660400Y383808D01*
X622005Y365170D02*
X634111Y377276D01*
X598143Y361064D02*
X634466Y397388D01*
X753110Y357979D02*
X763270Y368139D01*
X726440Y351065D02*
X742950Y367575D01*
X683260Y363838D02*
X695960Y351138D01*
X706120Y350502D02*
X716280Y360662D01*
X706120Y360734D02*
X716280Y350574D01*
X670560Y354455D02*
X673100Y356995D01*
X670560Y356781D02*
X673100Y354241D01*
X529392Y363457D02*
X543894Y377960D01*
X566920Y369904D02*
X573814Y363010D01*
X432084Y397691D02*
X469900Y359875D01*
X372200Y378550D02*
X384848Y365901D01*
X361032Y369961D02*
X374970Y356023D01*
X325618Y353864D02*
X365760Y372110D01*
X559736Y362720D02*
X565150Y357306D01*
X586966Y349040D02*
X592590Y354664D01*
X529392Y359653D02*
X535958Y353087D01*
X325618Y353864D02*
X372811D01*
X333867Y357613D02*
X337616Y353864D01*
X347449Y363787D02*
X357373Y353864D01*
X334107D02*
X341181Y360938D01*
X2051050Y343734D02*
Y357343D01*
X2047240Y348176D02*
X2051050Y351987D01*
X2037080Y342464D02*
Y349723D01*
X2061210Y342390D02*
X2068830Y350010D01*
X2061210Y341630D02*
Y357343D01*
X1926145Y345620D02*
X1940560Y360036D01*
X2011680Y338654D02*
X2026920Y353894D01*
X1902460Y341692D02*
X1940560Y379792D01*
X2061210Y349090D02*
X2068830Y341470D01*
X2078990Y340413D02*
X2081530Y342953D01*
X2047240Y343303D02*
X2048929Y341614D01*
X2047220Y339904D02*
X2051050Y343734D01*
X2047240Y340360D02*
Y349723D01*
X2011680Y338654D02*
Y342103D01*
X2001520Y337384D02*
Y342103D01*
X1857975Y374516D02*
X1892300Y340191D01*
X1902460Y369544D02*
X1926514Y345490D01*
X1827791Y365187D02*
X1846580Y346398D01*
X1856740Y335485D02*
X1892300Y371045D01*
X1821640Y339899D02*
X1846580Y364839D01*
X1761490Y339018D02*
X1922852Y500380D01*
X1633328D02*
X1790972Y342736D01*
X1787116Y338880D02*
X1827530Y379294D01*
X1691640Y363042D02*
X1715770Y338912D01*
X1808034Y345430D02*
X1809758Y343706D01*
X1725930Y342971D02*
X1727200Y344241D01*
X1725930Y348508D02*
X1727200Y347238D01*
X1664970Y341281D02*
X1681480Y357791D01*
X1638300Y334368D02*
X1654810Y350878D01*
X1638300Y357112D02*
X1654810Y340602D01*
X2068830Y329764D02*
Y395443D01*
X2078990Y327660D02*
Y395443D01*
X1950884Y380390D02*
X1997705Y333569D01*
X1962374Y322580D02*
X2140174Y500380D01*
X1950720Y322580D02*
Y380203D01*
Y330683D02*
X2120417Y500380D01*
X1846580Y329764D02*
Y372583D01*
X1940560Y322580D02*
Y380203D01*
X1856740Y327660D02*
Y372583D01*
X1950720Y360797D02*
X1987826Y323690D01*
X1902460Y349787D02*
X1918970Y333277D01*
X1902460Y322580D02*
Y372583D01*
X2017196Y322580D02*
X2037080Y342464D01*
X2009974Y322580D02*
X2035584Y348190D01*
X1871072Y330061D02*
X1892300Y351289D01*
X1824078Y322580D02*
X1846580Y345082D01*
X1892300Y322580D02*
Y372583D01*
X1856740Y355994D02*
X1890154Y322580D01*
X1795780Y333176D02*
X1836194Y373590D01*
X1751330Y362621D02*
X1785620Y328331D01*
X1691640Y322580D02*
Y395443D01*
X1764808Y322580D02*
X1825855Y383627D01*
X1741170Y322580D02*
Y364963D01*
X1654810Y322580D02*
Y418303D01*
X1638300Y322580D02*
Y403063D01*
X1681480Y322580D02*
Y395443D01*
X1664970Y322580D02*
Y418303D01*
X1817913Y355308D02*
X1845018Y328203D01*
X1727200Y322580D02*
Y349723D01*
X1725930Y330200D02*
Y351740D01*
X1761490Y322580D02*
Y342103D01*
X1737360Y322580D02*
Y349723D01*
X1715770Y332304D02*
Y357343D01*
X1664970Y350199D02*
X1681480Y333689D01*
X1691640Y328438D02*
X1715770Y352568D01*
X1691640Y343285D02*
X1709196Y325730D01*
X1570990Y346084D02*
X1586230Y361324D01*
X1615440Y360215D02*
X1628140Y347515D01*
X1516865Y360007D02*
X1538732Y338141D01*
X1516865Y331472D02*
X1538732Y353339D01*
X1516865Y325469D02*
Y414941D01*
X1370815Y343475D02*
X1385570Y358229D01*
X1484630Y352730D02*
X1493139Y344221D01*
X1222814Y476250D02*
X1352550Y346514D01*
X1456690Y360913D02*
X1474470Y343133D01*
X1330960Y343132D02*
X1352550Y364722D01*
X1484630Y338750D02*
X1493139Y347259D01*
X1615440Y331264D02*
X1628140Y343964D01*
X1456690Y330566D02*
X1474470Y348346D01*
X1570990Y345396D02*
X1586230Y330156D01*
X1416050Y329440D02*
X1428750Y342140D01*
X1395730Y342847D02*
X1405890Y332687D01*
X1370815Y348005D02*
X1385570Y333250D01*
X1416050Y342283D02*
X1428750Y329583D01*
X1330960Y348347D02*
X1352550Y326757D01*
X1253774Y344973D02*
X1270000Y361199D01*
X1214917Y345629D02*
X1228090Y358802D01*
X1280160Y331846D02*
X1351564Y403250D01*
X1280160Y359634D02*
X1310640Y329154D01*
X1192530Y342998D02*
X1228090Y378558D01*
X1194186Y366582D02*
X1215256Y345512D01*
X1127760Y337498D02*
X1266512Y476250D01*
X1045005D02*
X1182370Y338885D01*
X1310640Y327224D02*
Y349723D01*
X1253986Y346296D02*
X1270000Y330281D01*
X1320800Y325120D02*
Y349723D01*
Y325120D02*
Y349723D01*
X1238250Y342274D02*
X1242060Y338464D01*
X1168042Y338267D02*
X1182370Y352595D01*
X1192530Y348481D02*
X1207770Y333241D01*
X1560830Y322580D02*
Y433543D01*
X1570990Y322580D02*
Y433543D01*
X1538732Y322580D02*
Y434213D01*
X1615440Y322580D02*
Y425923D01*
X1605280Y322580D02*
Y425923D01*
X1456690Y322580D02*
Y433543D01*
X1446530Y322580D02*
Y433543D01*
X1504061Y322580D02*
Y420648D01*
X1493139Y322580D02*
Y422910D01*
X1586230Y322580D02*
Y410683D01*
X1557020Y322580D02*
Y387823D01*
X1506705Y323365D02*
Y417045D01*
X1628140Y322580D02*
Y403063D01*
X1596390Y322580D02*
Y410683D01*
X1438910Y322580D02*
Y410683D01*
X1428750Y322580D02*
Y410683D01*
X1484630Y322580D02*
Y383976D01*
X1474470Y322580D02*
Y386080D01*
X1385570Y322580D02*
Y403063D01*
X1395730Y322580D02*
Y403063D01*
X1370815Y322580D02*
Y404781D01*
X1416050Y322580D02*
Y425923D01*
X1405890Y322580D02*
Y425923D01*
X1352550Y324684D02*
Y395443D01*
X1132599Y322580D02*
X1286269Y476250D01*
X1238250Y322580D02*
Y380203D01*
X1228090Y322580D02*
Y380203D01*
X1280160Y322580D02*
Y364963D01*
X1330960Y323376D02*
X1352550Y344966D01*
X1270000Y322580D02*
Y364963D01*
X1330960Y322580D02*
Y357343D01*
X1290651Y322580D02*
X1310640Y342569D01*
X1252220Y323414D02*
Y342103D01*
X1182370Y322580D02*
Y367030D01*
X1242060Y322580D02*
Y342103D01*
X1192530Y322580D02*
Y364926D01*
X2029090Y341696D02*
X2032701Y338085D01*
X2056114Y334430D02*
X2064805Y325739D01*
X2019212Y331818D02*
X2022823Y328207D01*
X1930450Y341553D02*
X1940560Y331444D01*
X1856740Y336238D02*
X1858299Y334679D01*
X1929130Y328849D02*
X1940560Y340279D01*
X2078990Y331310D02*
X2081530Y328770D01*
X1869440Y325954D02*
Y326863D01*
X1853764Y322580D02*
X1859280D01*
Y323850D02*
Y326863D01*
X1809750Y322580D02*
Y334483D01*
X1798156Y335552D02*
X1809750Y323958D01*
X1819910Y333554D02*
X1830885Y322580D01*
X1819910D02*
Y334483D01*
X1737360Y337078D02*
X1741170Y333268D01*
X1737360Y334645D02*
X1741170Y338455D01*
X1804321Y322580D02*
X1809750Y328009D01*
X1795780Y322580D02*
X1809750D01*
X1795780D02*
Y333176D01*
X1853764Y322580D02*
X1855244Y324060D01*
X1839396Y322580D02*
X1846580Y329764D01*
X1725765Y328917D02*
X1727200Y327482D01*
X1691640Y322580D02*
X1706046D01*
X1982130D02*
X2001520Y341970D01*
X1986716Y322580D02*
X2001520Y337384D01*
X1950720Y341040D02*
X1969180Y322580D01*
X2061157D02*
X2068830Y330253D01*
X2044264Y322580D02*
X2059714Y338030D01*
X1903104Y322580D02*
X1917520Y336996D01*
X1902460Y330031D02*
X1909911Y322580D01*
X1929130D02*
Y334483D01*
X1918970Y322580D02*
Y334483D01*
X2061646Y322580D02*
X2068830Y329764D01*
X2044264Y322580D02*
X2061646D01*
X2046235Y324551D02*
X2048206Y322580D01*
X2076014D02*
X2081530D01*
X2076014D02*
X2077494Y324060D01*
X1929130Y322580D02*
X1940560D01*
X1902460D02*
X1918970D01*
X2009974D02*
X2017196D01*
X1950720D02*
X1986716D01*
X1785620D02*
Y335280D01*
X1761490Y332705D02*
X1771615Y322580D01*
X1751330D02*
Y342103D01*
X1883348Y322580D02*
X1892300Y331532D01*
X1869440Y325954D02*
X1872814Y322580D01*
X1706046D02*
X1715770Y332304D01*
X1705539Y322580D02*
X1715770Y332811D01*
X1751330Y322580D02*
Y342103D01*
X1720414Y322580D02*
X1724434Y326600D01*
X1784565Y322580D02*
X1785620Y323635D01*
X1819910Y322580D02*
X1839396D01*
X1761490D02*
X1785620D01*
X1872814D02*
X1892300D01*
X1859280D02*
Y323850D01*
X1720414Y322580D02*
X1727200D01*
X1691640Y323529D02*
X1692589Y322580D01*
X1737360D02*
X1741170D01*
X1725295D02*
X1727200Y324485D01*
X1596390Y331971D02*
X1605280Y340861D01*
X1596390Y339752D02*
X1605280Y330862D01*
X1557020Y339609D02*
X1560830Y335799D01*
X1615440Y340459D02*
X1628140Y327759D01*
X1570990Y326327D02*
X1586230Y341567D01*
X1504061Y338424D02*
X1506705Y341069D01*
X1438910Y332543D02*
X1446530Y340163D01*
X1456690Y341157D02*
X1474470Y323377D01*
X1438910Y339180D02*
X1446530Y331560D01*
X1557020Y332114D02*
X1560830Y335924D01*
X1504061Y333299D02*
X1506705Y330654D01*
X1395730Y328876D02*
X1405890Y339036D01*
X1484630Y332973D02*
X1493139Y324464D01*
X1395730Y322580D02*
X1405890D01*
X1370815Y323718D02*
X1385570Y338473D01*
X1350446Y322580D02*
X1352550Y324684D01*
X1370815Y322580D02*
X1385570D01*
X1370815Y328248D02*
X1376484Y322580D01*
X1217930Y328885D02*
X1228090Y339045D01*
X1238250Y329449D02*
X1242060Y333259D01*
X1219272Y341496D02*
X1228090Y332678D01*
X1280160Y339878D02*
X1297458Y322580D01*
X1252220Y323662D02*
X1270000Y341442D01*
X1207770Y322580D02*
Y334483D01*
X1192530Y323242D02*
X1206311Y337023D01*
X1330960Y328591D02*
X1336971Y322580D01*
X1349921D02*
X1352550Y325209D01*
X1330960Y322580D02*
X1350446D01*
X1172210Y322678D02*
X1182370Y332838D01*
X1305996Y322580D02*
X1310640Y327224D01*
X1280160Y322580D02*
X1305996D01*
X1638300Y337355D02*
X1653076Y322580D01*
X1646269D02*
X1654810Y331121D01*
X1626512Y322580D02*
X1628140Y324208D01*
X1666026Y322580D02*
X1681480Y338035D01*
X1664970Y330442D02*
X1672832Y322580D01*
X1516865Y340251D02*
X1534536Y322580D01*
X1516865Y325469D02*
X1519754Y322580D01*
X1570990Y325639D02*
X1574049Y322580D01*
X1527730D02*
X1538732Y333582D01*
X1596390Y322580D02*
X1605280D01*
X1615440D02*
X1628140D01*
X1570990D02*
X1586230D01*
X1664970D02*
X1681480D01*
X1638300D02*
X1654810D01*
X1506705D02*
Y323365D01*
X1504061Y322580D02*
X1506705D01*
X1557020D02*
X1560830D01*
X1519754D02*
X1538732D01*
X1252220Y328304D02*
X1257944Y322580D01*
X1320800D02*
Y325120D01*
X1252220Y323414D02*
X1253054Y322580D01*
X1488217D02*
X1493139Y327502D01*
X1468460Y322580D02*
X1474470Y328590D01*
X1173207Y328291D02*
X1178918Y322580D01*
X1172210D02*
Y326863D01*
X1217930Y322580D02*
Y334483D01*
X1192530Y328725D02*
X1198675Y322580D01*
X1416050D02*
X1428750D01*
X1438910D02*
X1446530D01*
X1253054D02*
X1270000D01*
X1484630D02*
X1493139D01*
X1456690D02*
X1474470D01*
X1192530D02*
X1207770D01*
X1172210D02*
X1182370D01*
X1238250D02*
X1242060D01*
X1217930D02*
X1228090D01*
X1082040Y379945D02*
X1117600Y344385D01*
X1082040Y360189D02*
X1096923Y345306D01*
X1128275Y373224D02*
X1163951Y337547D01*
X1082040Y331291D02*
X1117600Y366851D01*
X974090Y341880D02*
X1108460Y476250D01*
X974090Y369356D02*
X1005140Y338306D01*
X949960Y353973D02*
X963930Y340003D01*
X1015300Y330770D02*
Y357343D01*
X1005140Y332874D02*
Y357343D01*
X1027430Y335951D02*
X1033780Y342301D01*
X1104900Y334394D02*
X1117600Y347094D01*
X1043940Y332704D02*
X1052830Y341594D01*
X1015300Y343577D02*
X1017270Y345547D01*
X1015300Y347902D02*
X1017270Y345932D01*
X949960Y337507D02*
X963930Y351477D01*
X933450Y340753D02*
X939800Y347103D01*
X800100Y365537D02*
X833120Y332517D01*
X905510Y358910D02*
X923290Y341130D01*
X800100Y345699D02*
X833120Y378719D01*
X800100Y331034D02*
Y441163D01*
X789940Y328930D02*
Y441163D01*
X753110Y353257D02*
X763270Y343097D01*
X726440Y360171D02*
X742950Y343661D01*
X773430Y352694D02*
X789940Y336184D01*
X773430Y338786D02*
X789940Y355296D01*
X933450Y350726D02*
X939800Y344376D01*
X905510Y332570D02*
X923290Y350350D01*
X885190Y332006D02*
X895350Y342166D01*
X862330Y328903D02*
X875030Y341603D01*
X862330Y342820D02*
X875030Y330120D01*
X843280Y342113D02*
X852170Y333223D01*
X753110Y338222D02*
X763270Y348382D01*
X726440Y331309D02*
X742950Y347819D01*
X706120Y330746D02*
X716280Y340905D01*
X1071880Y322580D02*
Y380203D01*
X1082040Y322580D02*
Y380203D01*
X974090Y322580D02*
Y395443D01*
X1127760Y322580D02*
Y372583D01*
X1117600Y322580D02*
Y372583D01*
X939800Y322580D02*
Y418303D01*
X933450Y322580D02*
Y403063D01*
X963930Y322580D02*
Y395443D01*
X949960Y322580D02*
Y418303D01*
X1043940Y322580D02*
Y364963D01*
X1127760Y353982D02*
X1153839Y327903D01*
X1033780Y322580D02*
Y364963D01*
X1062990Y322580D02*
Y342103D01*
X1052830Y322580D02*
Y342103D01*
X1017270Y325954D02*
Y349723D01*
X974090Y349599D02*
X997978Y325712D01*
X1027430Y323850D02*
Y349723D01*
X974546Y322580D02*
X1005140Y353174D01*
X852170Y322580D02*
Y433543D01*
X862330Y322580D02*
Y433543D01*
X753110Y322580D02*
Y433543D01*
X905510Y322580D02*
Y425923D01*
X895350Y322580D02*
Y425923D01*
X716280Y322580D02*
Y410683D01*
X706120Y322580D02*
Y425923D01*
X742950Y322580D02*
Y433543D01*
X726440Y322580D02*
Y410683D01*
X875030Y322580D02*
Y410683D01*
X843280Y322580D02*
Y387823D01*
X833120Y322580D02*
Y387823D01*
X923290Y322580D02*
Y403063D01*
X885190Y322580D02*
Y410683D01*
X802646Y328489D02*
X833120Y358963D01*
X763270Y322580D02*
Y386080D01*
X800100Y345780D02*
X823300Y322580D01*
X773430D02*
Y383976D01*
X644271Y347923D02*
X660400Y364052D01*
X683260Y347399D02*
X695960Y360099D01*
X644271Y363313D02*
X660400Y347184D01*
X621030Y344438D02*
X634111Y357519D01*
X480060Y341764D02*
X614546Y476250D01*
X537368Y371434D02*
X565150Y343652D01*
X595630Y338795D02*
X610870Y354035D01*
X575310Y338231D02*
X592706Y355627D01*
X600722Y347593D02*
X610870Y337445D01*
X621030Y347041D02*
X634111Y333960D01*
X595630Y343336D02*
X599774Y347480D01*
X706120Y340978D02*
X716280Y330818D01*
X683260Y344081D02*
X695960Y331381D01*
X575310Y353248D02*
X585470Y343088D01*
X551180Y333858D02*
X565150Y347828D01*
X545266Y347701D02*
X560011Y362445D01*
X545330Y347044D02*
X549684Y342690D01*
X503690Y345638D02*
X519232Y361179D01*
X480060Y369472D02*
X503999Y345533D01*
X378934Y344541D02*
X481696Y447303D01*
X480060Y349715D02*
X496570Y333205D01*
X422206Y387813D02*
X469900Y340119D01*
X506730Y328921D02*
X519232Y341423D01*
X508093Y341439D02*
X519232Y330300D01*
X301590Y342942D02*
X375073D01*
X295133Y334646D02*
X303429Y342942D01*
X295133Y340007D02*
X301590Y342942D01*
X670560Y322580D02*
Y418303D01*
X673100Y322580D02*
Y403063D01*
X660400Y322580D02*
Y418303D01*
X695960Y322580D02*
Y425923D01*
X683260Y322580D02*
Y403063D01*
X644271Y322580D02*
Y393394D01*
X634111Y322580D02*
Y395521D01*
X370237Y291211D02*
X555276Y476250D01*
X350481Y291211D02*
X535520Y476250D01*
X644271Y328166D02*
X660400Y344295D01*
X644271Y343557D02*
X660400Y327428D01*
X595630Y322580D02*
Y343336D01*
X621030Y322580D02*
Y357343D01*
X610870Y322580D02*
Y357343D01*
X565150Y322580D02*
Y357306D01*
X529392Y322580D02*
Y363457D01*
X585470Y322580D02*
Y345440D01*
X575310Y322580D02*
Y359410D01*
X480060Y322580D02*
Y372583D01*
X519232Y322580D02*
Y365562D01*
X469900Y321310D02*
Y372583D01*
X409750Y291211D02*
X469900Y351361D01*
X412328Y377935D02*
X469426Y320836D01*
X402449Y368056D02*
X450085Y320421D01*
X392571Y358178D02*
X447929Y302820D01*
X330724Y291211D02*
X515763Y476250D01*
X389994Y291211D02*
X469900Y371117D01*
X328781Y342942D02*
X380512Y291211D01*
X348538Y342942D02*
X400269Y291211D01*
X312706Y292950D02*
X362698Y342942D01*
X382693Y348300D02*
X439782Y291211D01*
X368294Y342942D02*
X420025Y291211D01*
X295133Y295133D02*
X342942Y342942D01*
X295133Y314890D02*
X323185Y342942D01*
X312706Y292950D02*
X362698Y342942D01*
X309025D02*
X360756Y291211D01*
X1062990Y339725D02*
X1071880Y330835D01*
X1106036Y336193D02*
X1117600Y324629D01*
X1082040Y340432D02*
X1094740Y327732D01*
X1062990Y331998D02*
X1071880Y340888D01*
X1043940Y339019D02*
X1052830Y330129D01*
X885190Y339716D02*
X895350Y329557D01*
X1027430Y335772D02*
X1033780Y329422D01*
X905510Y339153D02*
X922083Y322580D01*
X1014824Y328622D02*
X1017270Y326176D01*
X933450Y322580D02*
X939800D01*
X933450Y330970D02*
X939800Y324620D01*
X885190Y322580D02*
X895350D01*
X862330D02*
X875030D01*
X915277D02*
X923290Y330593D01*
X905510Y322580D02*
X923290D01*
X726440Y340414D02*
X742950Y323904D01*
X843280Y329610D02*
X852170Y338500D01*
X683260Y327642D02*
X695960Y340342D01*
X816494Y322580D02*
X833120Y339206D01*
X776981Y322580D02*
X789940Y335539D01*
X670560Y337024D02*
X673100Y334484D01*
X670560Y334699D02*
X673100Y337239D01*
X621030Y324682D02*
X634111Y337763D01*
X599172Y322580D02*
X610870Y334278D01*
X789940Y322580D02*
Y328930D01*
X773430Y322580D02*
X789940D01*
X773430Y332937D02*
X783787Y322580D01*
X808554D02*
X833120D01*
X800100Y331034D02*
X808554Y322580D01*
X753110Y333501D02*
X763270Y323341D01*
X670560Y322580D02*
X673100D01*
X757224D02*
X763270Y328626D01*
X753110Y322580D02*
X763270D01*
X1104900D02*
Y334483D01*
X1112842Y322580D02*
X1117600Y327338D01*
X1094740Y322580D02*
Y334483D01*
X1148516Y322580D02*
X1160318Y334382D01*
X1127760Y334225D02*
X1139405Y322580D01*
X1009214D02*
X1013804Y327170D01*
X994846Y322580D02*
X1005140Y332874D01*
X1093085Y322580D02*
X1094740Y324235D01*
X1013896Y322580D02*
X1017270Y325954D01*
X1062990Y322580D02*
X1071880D01*
X1082040D02*
X1094740D01*
X1043940D02*
X1052830D01*
X1127760D02*
X1148516D01*
X1104900D02*
X1117600D01*
X1009214D02*
X1013896D01*
X1027269D02*
X1033780D01*
X949960Y334216D02*
X961596Y322580D01*
X954790D02*
X963930Y331720D01*
X935033Y322580D02*
X939800Y327347D01*
X994303Y322580D02*
X1005140Y333418D01*
X974090Y329843D02*
X981353Y322580D01*
X658441D02*
X660400Y324539D01*
X621030Y327285D02*
X625735Y322580D01*
X737468D02*
X742950Y328062D01*
X683260Y324324D02*
X685004Y322580D01*
X726440D02*
X742950D01*
X843280D02*
X852170D01*
X706120D02*
X716280D01*
X974090D02*
X994846D01*
X949960D02*
X963930D01*
X644271Y323800D02*
X645491Y322580D01*
X621030D02*
X634111D01*
X683260D02*
X695960D01*
X644271D02*
X660400D01*
X551180Y337865D02*
X565150Y323895D01*
X575310Y333492D02*
X585470Y323332D01*
X538146Y339860D02*
X541020Y336986D01*
X551180Y322580D02*
Y339090D01*
X541020Y322580D02*
Y336986D01*
X529392Y331826D02*
X537489Y339924D01*
X529392Y339897D02*
X541020Y328269D01*
X506730Y322580D02*
Y334483D01*
X579415Y322580D02*
X585470Y328635D01*
X575310Y322580D02*
X585470D01*
X559659D02*
X565150Y328071D01*
X595630Y322580D02*
X610870D01*
X595630Y332928D02*
X605978Y322580D01*
X529392D02*
X541020D01*
X506730D02*
X519232D01*
X551180D02*
X565150D01*
X539902D02*
X541020Y323698D01*
X480632Y322580D02*
X495102Y337050D01*
X480060Y329959D02*
X487439Y322580D01*
X279536Y332917D02*
X284211Y328242D01*
X496570Y322580D02*
Y334483D01*
X458717Y320421D02*
X469900Y331604D01*
X267970Y327660D02*
X284211Y335042D01*
X267970Y327240D02*
X268741Y328010D01*
X267970Y307483D02*
X284211Y323724D01*
X267970Y324727D02*
X284211Y308486D01*
X480060Y322580D02*
X496570D01*
X466471Y317881D02*
X469900Y321310D01*
X466471Y317881D02*
Y320421D01*
X447929Y301879D02*
X450469D01*
X448870D02*
X449670Y301080D01*
X447929Y320421D02*
X466471D01*
X447929Y301879D02*
Y320421D01*
Y302820D02*
X448870Y301879D01*
X295133Y317320D02*
X321242Y291211D01*
X429507D02*
X447929Y309633D01*
X439801Y291211D02*
X450469Y301879D01*
X332164Y280289D02*
X363533Y248920D01*
X351921Y280289D02*
X383290Y248920D01*
X347703D02*
X379072Y280289D01*
X316093Y291211D02*
X439801D01*
X295133Y337077D02*
X340999Y291211D01*
X327946Y248920D02*
X359315Y280289D01*
X308190Y248920D02*
X339559Y280289D01*
X391434D02*
X410157Y261567D01*
X411191Y280289D02*
X420035Y271445D01*
X371678Y280289D02*
X400278Y251688D01*
X397510Y248920D02*
X428879Y280289D01*
X387216Y248920D02*
X418585Y280289D01*
X316093D02*
X428879D01*
X295133Y248920D02*
X397510D01*
X367459D02*
X398828Y280289D01*
X313814Y278883D02*
X343777Y248920D01*
X295133Y297564D02*
X304283Y288414D01*
X267970Y267970D02*
X284211Y284211D01*
X295133Y248920D02*
Y340007D01*
X284211Y248920D02*
Y335042D01*
X267970Y287727D02*
X284211Y303968D01*
X267970Y304970D02*
X284211Y288729D01*
X267970Y285214D02*
X284211Y268972D01*
X267970Y248920D02*
Y327660D01*
X295133Y275377D02*
X303950Y284194D01*
X295133Y255620D02*
X319802Y280289D01*
X295133Y275377D02*
X303950Y284194D01*
X295133Y277807D02*
X324020Y248920D01*
X295133Y258050D02*
X304264Y248920D01*
X267970D02*
X284211D01*
X267970Y265457D02*
X284211Y249216D01*
X268677Y248920D02*
X284211Y264455D01*
X268677Y248920D02*
X284211Y264455D01*
M02*
