G04*
G04 #@! TF.GenerationSoftware,Altium Limited,Altium Designer,23.7.1 (13)*
G04*
G04 Layer_Color=16711935*
%FSLAX44Y44*%
%MOMM*%
G71*
G04*
G04 #@! TF.SameCoordinates,0223C93B-7FE2-4649-842A-E085946BCD85*
G04*
G04*
G04 #@! TF.FilePolarity,Negative*
G04*
G01*
G75*
%ADD16C,2.7200*%
%ADD17C,5.7912*%
%ADD18C,2.8000*%
%ADD19R,2.8000X2.8000*%
%ADD20R,1.3462X1.3462*%
%ADD21C,1.3462*%
%ADD22C,1.4032*%
%ADD23R,1.6002X1.6002*%
%ADD24C,1.6002*%
%ADD25R,1.7272X1.7272*%
%ADD26C,1.7272*%
%ADD27C,1.7032*%
%ADD28R,1.7032X1.7032*%
%ADD29R,1.7032X1.7032*%
%ADD30R,1.8032X1.8032*%
%ADD31C,1.8032*%
%ADD32C,1.6032*%
%ADD33P,1.9038X4X265.0*%
%ADD34C,0.8128*%
%ADD35C,0.9652*%
%ADD36C,0.8636*%
%ADD37C,0.9144*%
%ADD38C,1.0922*%
D16*
X1536070Y1037010D02*
D03*
X1628770D02*
D03*
X1582420Y1007010D02*
D03*
X1663070Y1036990D02*
D03*
X1755770D02*
D03*
X1709420Y1006990D02*
D03*
D17*
X1432420Y613410D02*
D03*
X1859420D02*
D03*
D18*
X1978670Y1084580D02*
D03*
X1931670D02*
D03*
X1978670Y965200D02*
D03*
X1931670D02*
D03*
D19*
X1884670Y1084580D02*
D03*
Y965200D02*
D03*
D20*
X1746250Y311150D02*
D03*
X2546350D02*
D03*
X120650Y252730D02*
D03*
X990600D02*
D03*
X1701800D02*
D03*
X2413000D02*
D03*
X2724150Y311150D02*
D03*
X2012950D02*
D03*
X1301750D02*
D03*
X590550D02*
D03*
X768350Y252730D02*
D03*
X1479550D02*
D03*
X2190750D02*
D03*
X2901950D02*
D03*
X2235200Y311150D02*
D03*
X1524000D02*
D03*
X812800D02*
D03*
X946150Y252730D02*
D03*
X1657350D02*
D03*
X2368550D02*
D03*
X2768600Y311150D02*
D03*
X2057400D02*
D03*
X1346200D02*
D03*
X635000D02*
D03*
X723900Y252730D02*
D03*
X1435100D02*
D03*
X2146300D02*
D03*
X2857500D02*
D03*
X2279650Y311150D02*
D03*
X1568450D02*
D03*
X857250D02*
D03*
X679450Y252730D02*
D03*
X1390650D02*
D03*
X2101850D02*
D03*
X2813050D02*
D03*
X2324100Y311150D02*
D03*
X1612900D02*
D03*
X901700D02*
D03*
Y252730D02*
D03*
X1612900D02*
D03*
X2324100D02*
D03*
X2813050Y311150D02*
D03*
X2101850D02*
D03*
X1390650D02*
D03*
X679450D02*
D03*
X635000Y252730D02*
D03*
X1346200D02*
D03*
X2057400D02*
D03*
X2768600D02*
D03*
X2368550Y311150D02*
D03*
X1657350D02*
D03*
X946150D02*
D03*
X857250Y252730D02*
D03*
X1568450D02*
D03*
X2279650D02*
D03*
X2857500Y311150D02*
D03*
X2146300D02*
D03*
X1435100D02*
D03*
X723900D02*
D03*
X590550Y252730D02*
D03*
X1301750D02*
D03*
X2012950D02*
D03*
X2724150D02*
D03*
X2413000Y311150D02*
D03*
X1701800D02*
D03*
X990600D02*
D03*
X120650D02*
D03*
X812800Y252730D02*
D03*
X1524000D02*
D03*
X2235200D02*
D03*
X2901950Y311150D02*
D03*
X2190750D02*
D03*
X1479550D02*
D03*
X768350D02*
D03*
X546100Y252730D02*
D03*
X1257300D02*
D03*
X1968500D02*
D03*
X2679700D02*
D03*
X2457450Y311150D02*
D03*
X1035050D02*
D03*
X165100D02*
D03*
X501650Y252730D02*
D03*
X1212850D02*
D03*
X1924050D02*
D03*
X2635250D02*
D03*
X2501900Y311150D02*
D03*
X1790700D02*
D03*
X1079500D02*
D03*
X209550D02*
D03*
X457200Y252730D02*
D03*
X1168400D02*
D03*
X1879600D02*
D03*
X2590800D02*
D03*
X1835150Y311150D02*
D03*
X1123950D02*
D03*
X254000D02*
D03*
Y252730D02*
D03*
X1123950D02*
D03*
X1835150D02*
D03*
X2546350D02*
D03*
X2590800Y311150D02*
D03*
X1879600D02*
D03*
X1168400D02*
D03*
X457200D02*
D03*
X209550Y252730D02*
D03*
X1079500D02*
D03*
X1790700D02*
D03*
X2501900D02*
D03*
X2635250Y311150D02*
D03*
X1924050D02*
D03*
X1212850D02*
D03*
X501650D02*
D03*
X165100Y252730D02*
D03*
X1035050D02*
D03*
X1746250D02*
D03*
X2457450D02*
D03*
X2679700Y311150D02*
D03*
X1968500D02*
D03*
X1257300D02*
D03*
X546100D02*
D03*
D21*
X1746250Y285750D02*
D03*
X2546350D02*
D03*
X120650Y227330D02*
D03*
X990600D02*
D03*
X1701800D02*
D03*
X2413000D02*
D03*
X2724150Y285750D02*
D03*
X2012950D02*
D03*
X1301750D02*
D03*
X590550D02*
D03*
X768350Y227330D02*
D03*
X1479550D02*
D03*
X2190750D02*
D03*
X2901950D02*
D03*
X2235200Y285750D02*
D03*
X1524000D02*
D03*
X812800D02*
D03*
X248821Y488106D02*
D03*
X289785Y348403D02*
D03*
X946150Y227330D02*
D03*
X1657350D02*
D03*
X2368550D02*
D03*
X2768600Y285750D02*
D03*
X2057400D02*
D03*
X1346200D02*
D03*
X635000D02*
D03*
X723900Y227330D02*
D03*
X1435100D02*
D03*
X2146300D02*
D03*
X2857500D02*
D03*
X2279650Y285750D02*
D03*
X1568450D02*
D03*
X857250D02*
D03*
X277393Y454055D02*
D03*
X679450Y227330D02*
D03*
X1390650D02*
D03*
X2101850D02*
D03*
X2813050D02*
D03*
X2324100Y285750D02*
D03*
X1612900D02*
D03*
X901700D02*
D03*
X305965Y420005D02*
D03*
X261213Y382453D02*
D03*
X901700Y227330D02*
D03*
X1612900D02*
D03*
X2324100D02*
D03*
X2813050Y285750D02*
D03*
X2101850D02*
D03*
X1390650D02*
D03*
X679450D02*
D03*
X635000Y227330D02*
D03*
X1346200D02*
D03*
X2057400D02*
D03*
X2768600D02*
D03*
X2368550Y285750D02*
D03*
X1657350D02*
D03*
X946150D02*
D03*
X334537Y385954D02*
D03*
X232641Y416504D02*
D03*
X857250Y227330D02*
D03*
X1568450D02*
D03*
X2279650D02*
D03*
X2857500Y285750D02*
D03*
X2146300D02*
D03*
X1435100D02*
D03*
X723900D02*
D03*
X590550Y227330D02*
D03*
X1301750D02*
D03*
X2012950D02*
D03*
X2724150D02*
D03*
X2413000Y285750D02*
D03*
X1701800D02*
D03*
X990600D02*
D03*
X120650D02*
D03*
X204069Y450554D02*
D03*
X812800Y227330D02*
D03*
X1524000D02*
D03*
X2235200D02*
D03*
X2901950Y285750D02*
D03*
X2190750D02*
D03*
X1479550D02*
D03*
X768350D02*
D03*
X546100Y227330D02*
D03*
X1257300D02*
D03*
X1968500D02*
D03*
X2679700D02*
D03*
X2457450Y285750D02*
D03*
X1035050D02*
D03*
X165100D02*
D03*
X501650Y227330D02*
D03*
X1212850D02*
D03*
X1924050D02*
D03*
X2635250D02*
D03*
X2501900Y285750D02*
D03*
X1790700D02*
D03*
X1079500D02*
D03*
X209550D02*
D03*
X457200Y227330D02*
D03*
X1168400D02*
D03*
X1879600D02*
D03*
X2590800D02*
D03*
X1835150Y285750D02*
D03*
X1123950D02*
D03*
X254000D02*
D03*
Y227330D02*
D03*
X1123950D02*
D03*
X1835150D02*
D03*
X2546350D02*
D03*
X2590800Y285750D02*
D03*
X1879600D02*
D03*
X1168400D02*
D03*
X457200D02*
D03*
X209550Y227330D02*
D03*
X1079500D02*
D03*
X1790700D02*
D03*
X2501900D02*
D03*
X2635250Y285750D02*
D03*
X1924050D02*
D03*
X1212850D02*
D03*
X501650D02*
D03*
X165100Y227330D02*
D03*
X1035050D02*
D03*
X1746250D02*
D03*
X2457450D02*
D03*
X2679700Y285750D02*
D03*
X1968500D02*
D03*
X1257300D02*
D03*
X546100D02*
D03*
D22*
X1264920Y849630D02*
D03*
X1290320D02*
D03*
X3008630Y651510D02*
D03*
Y626110D02*
D03*
D23*
X1969770Y843479D02*
D03*
X1971040Y781050D02*
D03*
D24*
X1995170Y843479D02*
D03*
X1996440Y781050D02*
D03*
D25*
X1196340Y850900D02*
D03*
D26*
X1221740D02*
D03*
X2286000Y925830D02*
D03*
X2362200Y849630D02*
D03*
D27*
X2984500Y736600D02*
D03*
Y762000D02*
D03*
Y787400D02*
D03*
Y812800D02*
D03*
Y838200D02*
D03*
Y863600D02*
D03*
Y889000D02*
D03*
Y914400D02*
D03*
Y939800D02*
D03*
Y965200D02*
D03*
Y990600D02*
D03*
Y1016000D02*
D03*
Y1041400D02*
D03*
Y1066800D02*
D03*
X2832100Y736600D02*
D03*
Y762000D02*
D03*
Y787400D02*
D03*
Y812800D02*
D03*
Y838200D02*
D03*
Y863600D02*
D03*
Y889000D02*
D03*
Y914400D02*
D03*
Y939800D02*
D03*
Y965200D02*
D03*
Y990600D02*
D03*
Y1016000D02*
D03*
Y1041400D02*
D03*
Y1066800D02*
D03*
X1410970D02*
D03*
X1436370D02*
D03*
X2258060Y718820D02*
D03*
X2283460D02*
D03*
X2308860D02*
D03*
X2334260D02*
D03*
X2359660D02*
D03*
X2717800Y774700D02*
D03*
Y800100D02*
D03*
Y825500D02*
D03*
Y850900D02*
D03*
Y876300D02*
D03*
Y901700D02*
D03*
Y927100D02*
D03*
Y952500D02*
D03*
Y977900D02*
D03*
Y1003300D02*
D03*
Y1028700D02*
D03*
Y1054100D02*
D03*
Y1079500D02*
D03*
X2540000Y774700D02*
D03*
Y800100D02*
D03*
Y825500D02*
D03*
Y850900D02*
D03*
Y876300D02*
D03*
Y901700D02*
D03*
Y927100D02*
D03*
Y952500D02*
D03*
Y977900D02*
D03*
Y1003300D02*
D03*
Y1028700D02*
D03*
Y1054100D02*
D03*
Y1079500D02*
D03*
D28*
X2984500Y1092200D02*
D03*
X2832100D02*
D03*
X2717800Y1104900D02*
D03*
X2540000D02*
D03*
D29*
X1385570Y1066800D02*
D03*
X2385060Y718820D02*
D03*
D30*
X1221740Y919480D02*
D03*
D31*
X1247140D02*
D03*
X1272540D02*
D03*
D32*
X1922780Y852170D02*
D03*
Y775970D02*
D03*
X1887220Y876300D02*
D03*
Y800100D02*
D03*
D33*
X268278Y504433D02*
D03*
X309242Y364729D02*
D03*
X296850Y470382D02*
D03*
X325422Y436332D02*
D03*
X280670Y398780D02*
D03*
X353994Y402281D02*
D03*
X252098Y432831D02*
D03*
X223526Y466881D02*
D03*
D34*
X2870200Y787400D02*
D03*
X2880360Y778510D02*
D03*
X2421890Y674370D02*
D03*
X2816860Y661670D02*
D03*
Y647700D02*
D03*
D35*
X2707640Y345440D02*
D03*
X1573530Y463550D02*
D03*
X2249170Y471805D02*
D03*
X2684780Y590550D02*
D03*
X2426970Y502920D02*
D03*
X2468245Y541655D02*
D03*
X2249170Y486410D02*
D03*
X2506980Y461010D02*
D03*
X2526030Y462280D02*
D03*
X2459990Y458470D02*
D03*
X1565910Y476250D02*
D03*
X481330Y467360D02*
D03*
X311150Y285750D02*
D03*
X481330Y454660D02*
D03*
X289560Y227330D02*
D03*
X2672080Y339090D02*
D03*
X2743200Y423164D02*
D03*
X2543810Y462280D02*
D03*
X2570480Y461010D02*
D03*
X2719070Y363220D02*
D03*
X2726690Y466090D02*
D03*
X2752090Y464820D02*
D03*
X2637790Y461010D02*
D03*
Y370840D02*
D03*
X2691130Y379730D02*
D03*
X2692400Y458470D02*
D03*
X2701290Y491490D02*
D03*
X2707640Y466090D02*
D03*
X2665730Y513080D02*
D03*
X2766060Y464820D02*
D03*
Y427990D02*
D03*
X2783840Y433070D02*
D03*
Y464820D02*
D03*
D36*
X1551940Y392430D02*
D03*
X2479040Y369570D02*
D03*
X1659890Y422910D02*
D03*
X1633220Y407670D02*
D03*
X2520950Y336804D02*
D03*
X2727960Y397764D02*
D03*
X2782570Y394970D02*
D03*
X2506980Y384810D02*
D03*
X2545080Y377190D02*
D03*
X2799080Y412750D02*
D03*
X2404110Y422656D02*
D03*
X2417686Y399936D02*
D03*
X2343150Y430530D02*
D03*
X2387600Y407670D02*
D03*
X2493010Y346710D02*
D03*
X2413000Y361950D02*
D03*
X2325370Y415290D02*
D03*
X2308860Y438150D02*
D03*
X2280920Y392430D02*
D03*
X2235200Y445770D02*
D03*
X2190750Y392430D02*
D03*
X2170430Y438150D02*
D03*
X2147570Y415290D02*
D03*
X2125980Y430530D02*
D03*
X2103120Y407670D02*
D03*
X2086610Y422910D02*
D03*
X2073910Y400050D02*
D03*
X2056130Y361950D02*
D03*
X2042160Y354330D02*
D03*
X2032000Y369570D02*
D03*
X2006600Y346710D02*
D03*
X1945640Y384810D02*
D03*
X1924050Y339090D02*
D03*
X1897380Y377190D02*
D03*
X1864360Y331470D02*
D03*
X1851660Y377190D02*
D03*
X1814830Y339090D02*
D03*
X1832610Y384810D02*
D03*
X1756410Y346710D02*
D03*
X1746250Y369570D02*
D03*
X1732280Y354330D02*
D03*
X1720850Y361950D02*
D03*
X1686560Y400050D02*
D03*
X1610360Y430530D02*
D03*
X1591310Y415290D02*
D03*
X1565910Y438150D02*
D03*
X1540510Y445770D02*
D03*
X1485900Y392430D02*
D03*
X1451610Y438150D02*
D03*
X1433830Y415290D02*
D03*
X1410970Y430530D02*
D03*
X1390650Y407670D02*
D03*
X1381760Y422910D02*
D03*
X1357630Y400050D02*
D03*
X1325880Y361950D02*
D03*
X1315720Y354330D02*
D03*
X1275080Y369570D02*
D03*
X1247140Y346710D02*
D03*
X1233170Y384810D02*
D03*
X1212850Y339090D02*
D03*
X1197610Y377190D02*
D03*
X1167130Y331470D02*
D03*
X1122680Y377190D02*
D03*
X1099820Y339090D02*
D03*
X1076960Y384810D02*
D03*
X1057910Y346710D02*
D03*
X1038860Y369570D02*
D03*
X1010220Y361950D02*
D03*
X1022350Y354330D02*
D03*
X969010Y400050D02*
D03*
X944880Y422910D02*
D03*
X928370Y407670D02*
D03*
X900430Y430530D02*
D03*
X880110Y415290D02*
D03*
X857250Y438150D02*
D03*
X838200Y392430D02*
D03*
X795020Y445770D02*
D03*
X774700Y392430D02*
D03*
X748030Y438150D02*
D03*
X599440Y354330D02*
D03*
X665480Y422910D02*
D03*
X642620Y400050D02*
D03*
X560070Y369570D02*
D03*
X538480Y346710D02*
D03*
X543560Y384810D02*
D03*
X721360Y415290D02*
D03*
X701040Y430530D02*
D03*
X678180Y407670D02*
D03*
X615950Y361950D02*
D03*
X474980Y377190D02*
D03*
X501650Y339090D02*
D03*
D37*
X2508250Y400050D02*
D03*
X2526030Y407607D02*
D03*
X2614930Y377190D02*
D03*
X2570480Y392176D02*
D03*
X2542540Y415163D02*
D03*
X2459990Y354330D02*
D03*
D38*
X2561590Y330073D02*
D03*
M02*
