G04*
G04 #@! TF.GenerationSoftware,Altium Limited,Altium Designer,23.7.1 (13)*
G04*
G04 Layer_Physical_Order=1*
G04 Layer_Color=255*
%FSLAX44Y44*%
%MOMM*%
G71*
G04*
G04 #@! TF.SameCoordinates,0223C93B-7FE2-4649-842A-E085946BCD85*
G04*
G04*
G04 #@! TF.FilePolarity,Positive*
G04*
G01*
G75*
%ADD11C,0.2540*%
%ADD14C,1.0160*%
%ADD16C,2.7200*%
%ADD18C,2.8000*%
%ADD19R,2.8000X2.8000*%
%ADD39C,0.3048*%
%ADD40C,0.3810*%
%ADD41C,5.5880*%
%ADD42R,1.1430X1.1430*%
%ADD43C,1.1430*%
%ADD44C,1.2000*%
%ADD45R,1.3970X1.3970*%
%ADD46C,1.3970*%
%ADD47R,1.5240X1.5240*%
%ADD48C,1.5240*%
%ADD49C,1.5000*%
%ADD50R,1.5000X1.5000*%
%ADD51R,1.5000X1.5000*%
%ADD52R,1.6000X1.6000*%
%ADD53C,1.6000*%
%ADD54C,1.4000*%
%ADD55P,1.6165X4X265.0*%
%ADD56C,0.6096*%
%ADD57C,0.7620*%
%ADD58C,0.6604*%
%ADD59C,0.7112*%
%ADD60C,0.8890*%
G36*
X1436370Y906780D02*
X1435100Y905510D01*
X1383419D01*
X1382933Y906683D01*
X1404620Y928370D01*
X1414780D01*
X1436370Y906780D01*
D02*
G37*
G36*
X1339850Y1084993D02*
Y1068070D01*
X1326085D01*
X1325538Y1069216D01*
X1338653Y1085417D01*
X1339850Y1084993D01*
D02*
G37*
G36*
X1775460Y979170D02*
X1638300D01*
Y1023966D01*
X1639059Y1024473D01*
X1641307Y1026721D01*
X1643073Y1029365D01*
X1644290Y1032302D01*
X1644910Y1035420D01*
Y1038599D01*
X1644290Y1041718D01*
X1643073Y1044655D01*
X1641307Y1047299D01*
X1639059Y1049547D01*
X1638300Y1050053D01*
Y1062990D01*
X1775460D01*
Y979170D01*
D02*
G37*
G36*
X2801717Y446943D02*
X2801230Y445770D01*
X2789309D01*
X2788823Y446943D01*
X2795270Y453390D01*
X2801717Y446943D01*
D02*
G37*
%LPC*%
G36*
X1757360Y1053130D02*
X1754180D01*
X1751062Y1052510D01*
X1748125Y1051293D01*
X1745749Y1049705D01*
X1747810Y1047644D01*
X1745116Y1044949D01*
X1743055Y1047011D01*
X1741467Y1044635D01*
X1740250Y1041698D01*
X1739630Y1038580D01*
Y1035400D01*
X1740250Y1032282D01*
X1741467Y1029345D01*
X1743055Y1026969D01*
X1745116Y1029031D01*
X1747810Y1026337D01*
X1745749Y1024275D01*
X1748125Y1022687D01*
X1751062Y1021470D01*
X1754180Y1020850D01*
X1757360D01*
X1760478Y1021470D01*
X1763415Y1022687D01*
X1765791Y1024275D01*
X1763729Y1026337D01*
X1766423Y1029031D01*
X1768485Y1026969D01*
X1770073Y1029345D01*
X1771290Y1032282D01*
X1771910Y1035400D01*
Y1038580D01*
X1771290Y1041698D01*
X1770073Y1044635D01*
X1768485Y1047011D01*
X1766423Y1044949D01*
X1763729Y1047644D01*
X1765791Y1049705D01*
X1763415Y1051293D01*
X1760478Y1052510D01*
X1757360Y1053130D01*
D02*
G37*
G36*
X1664660D02*
X1661480D01*
X1658362Y1052510D01*
X1655425Y1051293D01*
X1653049Y1049705D01*
X1655111Y1047644D01*
X1652417Y1044949D01*
X1650355Y1047011D01*
X1648767Y1044635D01*
X1647550Y1041698D01*
X1646930Y1038580D01*
Y1035400D01*
X1647550Y1032282D01*
X1648767Y1029345D01*
X1650355Y1026969D01*
X1652417Y1029031D01*
X1655111Y1026337D01*
X1653049Y1024275D01*
X1655425Y1022687D01*
X1658362Y1021470D01*
X1661480Y1020850D01*
X1664660D01*
X1667778Y1021470D01*
X1670715Y1022687D01*
X1673091Y1024275D01*
X1671030Y1026337D01*
X1673724Y1029031D01*
X1675786Y1026969D01*
X1677373Y1029345D01*
X1678590Y1032282D01*
X1679210Y1035400D01*
Y1038580D01*
X1678590Y1041698D01*
X1677373Y1044635D01*
X1675786Y1047011D01*
X1673724Y1044949D01*
X1671030Y1047644D01*
X1673091Y1049705D01*
X1670715Y1051293D01*
X1667778Y1052510D01*
X1664660Y1053130D01*
D02*
G37*
G36*
X1711010Y1023130D02*
X1707830D01*
X1704712Y1022510D01*
X1701775Y1021293D01*
X1699399Y1019706D01*
X1701461Y1017644D01*
X1698766Y1014950D01*
X1696705Y1017011D01*
X1695117Y1014635D01*
X1693900Y1011698D01*
X1693280Y1008580D01*
Y1005400D01*
X1693900Y1002282D01*
X1695117Y999345D01*
X1696705Y996969D01*
X1698766Y999031D01*
X1701461Y996337D01*
X1699399Y994275D01*
X1701775Y992687D01*
X1704712Y991470D01*
X1707830Y990850D01*
X1711010D01*
X1714128Y991470D01*
X1717065Y992687D01*
X1719441Y994275D01*
X1717379Y996337D01*
X1720074Y999031D01*
X1722135Y996969D01*
X1723723Y999345D01*
X1724940Y1002282D01*
X1725560Y1005400D01*
Y1008580D01*
X1724940Y1011698D01*
X1723723Y1014635D01*
X1722135Y1017011D01*
X1720074Y1014950D01*
X1717379Y1017644D01*
X1719441Y1019706D01*
X1717065Y1021293D01*
X1714128Y1022510D01*
X1711010Y1023130D01*
D02*
G37*
%LPD*%
D11*
X2816860Y661670D02*
X2870200Y715010D01*
Y787400D01*
X2880360Y711200D02*
Y778510D01*
X2816860Y647700D02*
X2880360Y711200D01*
X2900680Y734060D02*
Y820420D01*
Y734060D02*
X3008630Y626110D01*
X2832100Y889000D02*
X2900680Y820420D01*
X2385060Y711200D02*
X2421890Y674370D01*
X2385060Y711200D02*
Y722630D01*
X2832100Y914400D02*
X2929890Y816610D01*
X1272540Y919480D02*
X1275080D01*
X1978670Y1084580D02*
Y1085300D01*
X1922780Y852170D02*
X1961079D01*
X1969770Y843479D01*
X1887220Y864870D02*
Y876300D01*
Y864870D02*
X1971040Y781050D01*
X2929890Y730250D02*
Y816610D01*
Y730250D02*
X3008630Y651510D01*
D14*
X1409700Y923290D02*
Y1069340D01*
X2308860Y718820D02*
Y722630D01*
X1362710Y1111250D02*
X1952720D01*
X1221740Y919480D02*
Y970280D01*
X1318260Y1066800D02*
X1362710Y1111250D01*
X1318260Y1066800D02*
X1385570D01*
X1221740Y970280D02*
X1318260Y1066800D01*
X2286000Y925830D02*
X2360541Y851289D01*
X2359853Y849630D02*
X2360541Y850317D01*
Y851289D01*
X1929130Y967740D02*
X1931670Y965200D01*
X1929130Y967740D02*
Y991940D01*
X1884080Y1036990D02*
X1929130Y991940D01*
X1884080Y1036990D02*
X1931670Y1084580D01*
X2127250Y904240D02*
X2343030Y1120020D01*
X1275080Y919480D02*
X1290320Y904240D01*
X2343030Y1120020D02*
X2702680D01*
X2717800Y1104900D01*
X1290320Y849630D02*
Y904240D01*
X2127250D01*
X2308860Y722630D01*
X1196340Y850900D02*
Y906780D01*
X1209040Y919480D01*
X1221740D01*
X1952720Y1111250D02*
X1978670Y1085300D01*
X1755770Y1036990D02*
X1884080D01*
D16*
X1536070Y1037010D02*
D03*
X1628770D02*
D03*
X1582420Y1007010D02*
D03*
X1663070Y1036990D02*
D03*
X1755770D02*
D03*
X1709420Y1006990D02*
D03*
D18*
X1978670Y1084580D02*
D03*
X1931670D02*
D03*
X1978670Y965200D02*
D03*
X1931670D02*
D03*
D19*
X1884670Y1084580D02*
D03*
Y965200D02*
D03*
D39*
X318166Y331093D02*
X318167Y331093D01*
X2926080Y293370D02*
Y331470D01*
X2784715Y432195D02*
X2787577D01*
X2825689Y431861D02*
X2926080Y331470D01*
X2787911Y431861D02*
X2825689D01*
X2783840Y433070D02*
X2784715Y432195D01*
X2787577D02*
X2787911Y431861D01*
X2782603Y433070D02*
X2783840D01*
X2235200Y445770D02*
X2823210D01*
X2704879Y346964D02*
X2706403Y345440D01*
X2006600Y346710D02*
X2493010D01*
X1756410D02*
X2006600D01*
X2706403Y345440D02*
X2707640D01*
X2493264Y346964D02*
X2704879D01*
X838200Y392430D02*
X2280920D01*
X1357630Y400050D02*
X1686560D01*
X2073910D01*
X969010D02*
X1357630D01*
X2404491Y422783D02*
X2742819D01*
X2308860Y438150D02*
X2777523D01*
X2343658Y431038D02*
X2761775D01*
X1233170Y384810D02*
X1832610D01*
X1451610Y438150D02*
X1565910D01*
X1659890Y422910D02*
X2086610D01*
X1540510Y445770D02*
X2235200D01*
X1591310Y415290D02*
X2147570D01*
X1633220Y407670D02*
X2103120D01*
X2170430Y438150D02*
X2308860D01*
X1610360Y430530D02*
X2125980D01*
X2542540Y415290D02*
X2542667Y415163D01*
X795020Y445770D02*
X1540510D01*
X1565910Y438150D02*
X2170430D01*
X1390650Y407670D02*
X1633220D01*
X1381760Y422910D02*
X1659890D01*
X257810Y256540D02*
X393969D01*
X237773Y268253D02*
X382553D01*
X246602Y262509D02*
X391382D01*
X393969Y256540D02*
X468899Y331470D01*
X213741Y256921D02*
X241014D01*
X176530Y264160D02*
X233680D01*
X241014Y256921D02*
X246602Y262509D01*
X142240Y274320D02*
X379730D01*
X165100Y252730D02*
X176530Y264160D01*
X233680D02*
X237773Y268253D01*
X209550Y252730D02*
X213741Y256921D01*
X120650Y252730D02*
X142240Y274320D01*
X254000Y252730D02*
X257810Y256540D01*
X282491Y490220D02*
X412750D01*
X457200Y445770D01*
X377901Y453390D02*
X393141Y438150D01*
X313842Y453390D02*
X377901D01*
X2417686Y399936D02*
X2724826D01*
X2526030Y407670D02*
X2539257D01*
X2103120D02*
X2387600D01*
X2525966D02*
X2526030Y407607D01*
X2387600Y407670D02*
X2525966D01*
X2646680Y384810D02*
X2651760Y379730D01*
X2592578Y384556D02*
X2592832Y384810D01*
X2567324Y384556D02*
X2592578D01*
X2592832Y384810D02*
X2646680D01*
X1945640D02*
X2506980D01*
X2567070D01*
X2493010Y346710D02*
X2493264Y346964D01*
X1924050Y339090D02*
X2520442D01*
X1814830D02*
X1924050D01*
X2671572Y338582D02*
X2672080Y339090D01*
X2520950Y338582D02*
X2671572D01*
X2520442Y339090D02*
X2520950Y338582D01*
Y336804D02*
Y338582D01*
X2213123Y329438D02*
X2560955D01*
X2211091Y331470D02*
X2213123Y329438D01*
X2560955D02*
X2561590Y330073D01*
X1167130Y331470D02*
X2211091D01*
X2459990Y354330D02*
X2719070D01*
X2724150Y349250D01*
X2042160Y354330D02*
X2459990D01*
X2567070Y384810D02*
X2567324Y384556D01*
X2570480Y392176D02*
X2570874Y392570D01*
X2724826Y399936D02*
X2726998Y397764D01*
X2570874Y392570D02*
X2708770D01*
X2417572Y400050D02*
X2417686Y399936D01*
X2761775Y431038D02*
X2764823Y427990D01*
X2769997Y407543D02*
X2782570Y394970D01*
X2325370Y415290D02*
X2325434Y415227D01*
X2542477D02*
X2542540Y415163D01*
X2742819Y422783D02*
X2743200Y423164D01*
X2325434Y415227D02*
X2542477D01*
X2343150Y430530D02*
X2343658Y431038D01*
X2125980Y430530D02*
X2343150D01*
X2539384Y407543D02*
X2769997D01*
X2795705Y415163D02*
X2798118Y412750D01*
X2539257Y407670D02*
X2539384Y407543D01*
X2542667Y415163D02*
X2795705D01*
X2280920Y392430D02*
X2281047Y392303D01*
X2570353D01*
X2570480Y392176D01*
X2413000Y361950D02*
X2719070D01*
X2745486Y274066D02*
Y336804D01*
X2719070Y363220D02*
X2745486Y336804D01*
X2708770Y392570D02*
X2722880Y378460D01*
X2726998Y397764D02*
X2727960D01*
X2764823Y427990D02*
X2766060D01*
X2798118Y412750D02*
X2799080D01*
X2777523Y438150D02*
X2782603Y433070D01*
X2147570Y415290D02*
X2325370D01*
X2635283Y369570D02*
X2636553Y370840D01*
X2637790D01*
X2032000Y369570D02*
X2635283D01*
X1851660Y377190D02*
X1897380D01*
X2545080D02*
X2614930D01*
X1897380D02*
X2545080D01*
X1832610Y384810D02*
X1945640D01*
X2404110Y422402D02*
X2404491Y422783D01*
X2651760Y379730D02*
X2691130D01*
X2056130Y361950D02*
X2413000D01*
X2823210Y445770D02*
X2932430Y336550D01*
X2722880Y378460D02*
X2849880D01*
X2901950Y311150D02*
Y326390D01*
X2849880Y378460D02*
X2901950Y326390D01*
X2086610Y422910D02*
X2403856D01*
X2073910Y400050D02*
X2417572D01*
X2901950Y269240D02*
X2926080Y293370D01*
X2857500Y252730D02*
X2874010Y269240D01*
X2901950D01*
Y252730D02*
X2932430Y283210D01*
Y336550D01*
X318074Y331185D02*
X318166Y331093D01*
X318167Y331093D02*
X319059Y330200D01*
X2724150Y311150D02*
Y349250D01*
Y252730D02*
X2745486Y274066D01*
X1720850Y361950D02*
X2056130D01*
X1732280Y354330D02*
X2042160D01*
X1746250Y369570D02*
X2032000D01*
X1197610Y377190D02*
X1851660D01*
X1212850Y339090D02*
X1814830D01*
X1099820D02*
X1212850D01*
X468899Y331470D02*
X1167130D01*
X1247140Y346710D02*
X1756410D01*
X1275080Y369570D02*
X1746250D01*
X1315720Y354330D02*
X1732280D01*
X1325880Y361950D02*
X1720850D01*
X1410970Y430530D02*
X1610360D01*
X1433830Y415290D02*
X1591310D01*
X857250Y438150D02*
X1451610D01*
X880110Y415290D02*
X1433830D01*
X900430Y430530D02*
X1410970D01*
X928370Y407670D02*
X1390650D01*
X944880Y422910D02*
X1381760D01*
X642620Y400050D02*
X969010D01*
X1010220Y361950D02*
X1325880D01*
X615950D02*
X1010220D01*
X1022350Y354330D02*
X1315720D01*
X1038860Y369570D02*
X1275080D01*
X1057910Y346710D02*
X1247140D01*
X1076960Y384810D02*
X1233170D01*
X1122680Y377190D02*
X1197610D01*
X501650Y339090D02*
X1099820D01*
X474980Y377190D02*
X1122680D01*
X543560Y384810D02*
X1076960D01*
X444500D02*
X543560D01*
X538480Y346710D02*
X1057910D01*
X461010D02*
X538480D01*
X560070Y369570D02*
X1038860D01*
X457200D02*
X560070D01*
X599440Y354330D02*
X1022350D01*
X459740D02*
X599440D01*
X678180Y407670D02*
X928370D01*
X774700Y392430D02*
X838200D01*
X665480Y422910D02*
X944880D01*
X374623D02*
X665480D01*
X701040Y430530D02*
X900430D01*
X721360Y415290D02*
X880110D01*
X748030Y438150D02*
X857250D01*
X457200Y445770D02*
X795020D01*
X438150Y392430D02*
X774700D01*
X393141Y438150D02*
X748030D01*
X426720Y415290D02*
X721360D01*
X369570Y358140D02*
X426720Y415290D01*
X353994Y402281D02*
X353994D01*
X374623Y422910D01*
X325422Y436332D02*
X330614D01*
X336416Y430530D01*
X701040D01*
X439420Y400050D02*
X439520Y400150D01*
X642520D02*
X642620Y400050D01*
X439520Y400150D02*
X642520D01*
X375920Y330200D02*
X438150Y392430D01*
X429260Y407670D02*
X678180D01*
X372110Y350520D02*
X429260Y407670D01*
X434340Y400050D02*
X439420D01*
X382270Y322580D02*
X444500Y384810D01*
X453390Y377190D02*
X474980D01*
X389129Y301499D02*
X457200Y369570D01*
X458470Y361950D02*
X615950D01*
X467963Y339090D02*
X501650D01*
X268278Y504433D02*
X282491Y490220D01*
X268278Y504433D02*
X268278D01*
X296850Y470382D02*
X313842Y453390D01*
X296850Y470382D02*
X296850D01*
X252098Y432831D02*
X266939D01*
X341630Y358140D02*
X369570D01*
X266939Y432831D02*
X341630Y358140D01*
X280670Y398780D02*
X285862D01*
X297292Y387350D01*
X302260D01*
X339090Y350520D02*
X372110D01*
X302260Y387350D02*
X339090Y350520D01*
X309242Y364729D02*
X309242D01*
X333611Y340360D01*
X374650D01*
X434340Y400050D01*
X223526Y443461D02*
Y466881D01*
Y443461D02*
X318074Y331185D01*
X319059Y330200D02*
X375920D01*
X209550Y311150D02*
X220980Y322580D01*
X382270D01*
X254000Y311150D02*
X387350D01*
X453390Y377190D01*
X217076Y301499D02*
X246474D01*
X174879Y301371D02*
X216948D01*
X217076Y301499D01*
X244287Y295783D02*
X263713D01*
X263841Y295911D01*
X135889D02*
X172437D01*
X219391D02*
X244159D01*
X263841D02*
X392431D01*
X244159D02*
X244287Y295783D01*
X246474Y301499D02*
X246602Y301371D01*
X261398D01*
X261526Y301499D01*
X172564Y295783D02*
X219263D01*
X219391Y295911D01*
X172437D02*
X172564Y295783D01*
X165100Y311150D02*
X174879Y301371D01*
X120650Y311150D02*
X135889Y295911D01*
X261526Y301499D02*
X389129D01*
X392431Y295911D02*
X458470Y361950D01*
X379730Y274320D02*
X459740Y354330D01*
X382553Y268253D02*
X461010Y346710D01*
X391382Y262509D02*
X467963Y339090D01*
D40*
X2359660Y849630D02*
X2362200D01*
X2795270Y447040D02*
X2795270Y977900D01*
X2249805Y471170D02*
X2411730D01*
X1573530Y463550D02*
X2420620D01*
X2249170Y471805D02*
X2249805Y471170D01*
X2684780Y590550D02*
Y792480D01*
X2717800Y825500D01*
X2444750Y984250D02*
X2540000Y1079500D01*
X2369820Y516890D02*
X2444750Y591820D01*
Y984250D01*
X2230120Y516890D02*
X2369820D01*
X2457450Y582930D02*
Y971550D01*
X2540000Y1054100D01*
X2377440Y502920D02*
X2457450Y582930D01*
X2471420Y576580D02*
Y960120D01*
X2540000Y1028700D01*
X2381250Y486410D02*
X2471420Y576580D01*
X1549400Y491490D02*
X2204720D01*
X2230120Y516890D01*
X2212340Y476250D02*
X2239010Y502920D01*
X2377440D01*
X2426970D02*
X2457450Y533400D01*
X2411730Y471170D02*
X2499360Y558800D01*
X2420620Y463550D02*
X2510790Y553720D01*
X1565910Y476250D02*
X2212340D01*
X2249170Y486410D02*
X2381250D01*
X2482850Y946150D02*
X2540000Y1003300D01*
X2482850Y570230D02*
Y946150D01*
X2457450Y544830D02*
X2482850Y570230D01*
X2457450Y533400D02*
Y544830D01*
X2490470Y928370D02*
X2540000Y977900D01*
X2490470Y563880D02*
Y928370D01*
X2468245Y541655D02*
X2490470Y563880D01*
X2499360Y911860D02*
X2540000Y952500D01*
X2499360Y558800D02*
Y911860D01*
X2510790Y897890D02*
X2540000Y927100D01*
X2510790Y553720D02*
Y897890D01*
X2429510Y454660D02*
X2519680Y544830D01*
X2459990Y458470D02*
X2540000Y538480D01*
X482600Y454660D02*
X2429510D01*
X2506980Y462280D02*
X2551945Y507245D01*
X2526030Y462280D02*
X2566670Y502920D01*
X2540000Y800100D02*
X2551945Y788155D01*
Y507245D02*
Y788155D01*
X2566670Y502920D02*
Y798830D01*
X1525270Y467360D02*
X1549400Y491490D01*
X481330Y467360D02*
X1525270D01*
X2235200Y227330D02*
X2279650D01*
X2324100D01*
X2368550D01*
X2413000D01*
X2457450D01*
X2501900D01*
X2546350D01*
X2590800D01*
X2635250D01*
X2679700D01*
X2724150D01*
X2768600D01*
X2813050D01*
X2857500D01*
X2901950D01*
X2857500Y285750D02*
X2901950D01*
X2813050D02*
X2857500D01*
X2768600D02*
X2813050D01*
X2679700D02*
X2724150D01*
X2635250D02*
X2679700D01*
X2590800D02*
X2635250D01*
X2546350D02*
X2590800D01*
X2501900D02*
X2546350D01*
X2457450D02*
X2501900D01*
X2413000D02*
X2457450D01*
X2368550D02*
X2413000D01*
X2324100D02*
X2368550D01*
X2279650D02*
X2324100D01*
X2235200D02*
X2279650D01*
X2146300D02*
X2190750D01*
X2101850D02*
X2146300D01*
X2057400D02*
X2101850D01*
X2012950D02*
X2057400D01*
X1968500D02*
X2012950D01*
X1924050D02*
X1968500D01*
X1879600D02*
X1924050D01*
X1835150D02*
X1879600D01*
X1790700D02*
X1835150D01*
X1746250D02*
X1790700D01*
X1701800D02*
X1746250D01*
X1657350D02*
X1701800D01*
X1612900D02*
X1657350D01*
X1568450D02*
X1612900D01*
X1524000D02*
X1568450D01*
X2146300Y227330D02*
X2190750D01*
X2101850D02*
X2146300D01*
X2057400D02*
X2101850D01*
X2012950D02*
X2057400D01*
X1968500D02*
X2012950D01*
X1924050D02*
X1968500D01*
X1879600D02*
X1924050D01*
X1835150D02*
X1879600D01*
X1790700D02*
X1835150D01*
X1746250D02*
X1790700D01*
X1701800D02*
X1746250D01*
X1657350D02*
X1701800D01*
X1612900D02*
X1657350D01*
X1568450D02*
X1612900D01*
X1524000D02*
X1568450D01*
X1435100D02*
X1479550D01*
X1390650D02*
X1435100D01*
X1346200D02*
X1390650D01*
X1301750D02*
X1346200D01*
X1257300D02*
X1301750D01*
X1212850D02*
X1257300D01*
X1168400D02*
X1212850D01*
X1123950D02*
X1168400D01*
X1079500D02*
X1123950D01*
X1035050D02*
X1079500D01*
X990600D02*
X1035050D01*
X946150D02*
X990600D01*
X901700D02*
X946150D01*
X857250D02*
X901700D01*
X812800D02*
X857250D01*
X1435100Y285750D02*
X1479550D01*
X1390650D02*
X1435100D01*
X1346200D02*
X1390650D01*
X1301750D02*
X1346200D01*
X1257300D02*
X1301750D01*
X1212850D02*
X1257300D01*
X1168400D02*
X1212850D01*
X1123950D02*
X1168400D01*
X1079500D02*
X1123950D01*
X1035050D02*
X1079500D01*
X990600D02*
X1035050D01*
X946150D02*
X990600D01*
X901700D02*
X946150D01*
X857250D02*
X901700D01*
X812800D02*
X857250D01*
X305965Y420005D02*
X333079Y392891D01*
Y387412D02*
Y392891D01*
Y387412D02*
X334537Y385954D01*
X277393Y454055D02*
X291163Y440285D01*
Y434806D02*
Y440285D01*
Y434806D02*
X305965Y420005D01*
X248821Y488106D02*
X262591Y474336D01*
Y468857D02*
Y474336D01*
Y468857D02*
X277393Y454055D01*
X723900Y285750D02*
X768350D01*
X679450D02*
X723900D01*
X635000D02*
X679450D01*
X590550D02*
X635000D01*
X546100D02*
X590550D01*
X501650D02*
X546100D01*
X457200D02*
X501650D01*
X254000D02*
X309880D01*
X289560Y227330D02*
X457200D01*
X209550Y285750D02*
X254000D01*
X165100D02*
X209550D01*
X120650D02*
X165100D01*
X2519680Y881380D02*
X2540000Y901700D01*
X2519680Y544830D02*
Y881380D01*
X2578100Y500380D02*
Y821690D01*
X2540000Y538480D02*
Y774700D01*
X254000Y227330D02*
X289560D01*
X261213Y382453D02*
X274983Y368683D01*
Y363204D02*
Y368683D01*
Y363204D02*
X289785Y348403D01*
X232641Y416504D02*
X246411Y402733D01*
Y397255D02*
Y402733D01*
Y397255D02*
X261213Y382453D01*
X204069Y450554D02*
X231183Y423440D01*
Y417962D02*
Y423440D01*
Y417962D02*
X232641Y416504D01*
X723900Y227330D02*
X768350D01*
X679450D02*
X723900D01*
X635000D02*
X679450D01*
X590550D02*
X635000D01*
X546100D02*
X590550D01*
X501650D02*
X546100D01*
X457200D02*
X501650D01*
X209550D02*
X254000D01*
X165100D02*
X209550D01*
X120650D02*
X165100D01*
X2540000Y825500D02*
X2566670Y798830D01*
X2543810Y462280D02*
Y466090D01*
X2578100Y500380D01*
X2549979Y849811D02*
X2578100Y821690D01*
X2541089Y849811D02*
X2549979D01*
X2540000Y850900D02*
X2541089Y849811D01*
X2592126Y482656D02*
Y824174D01*
X2570480Y461010D02*
X2592126Y482656D01*
X2540000Y876300D02*
X2592126Y824174D01*
X2725420Y466090D02*
X2739390Y480060D01*
X2717800Y927100D02*
X2739390Y905510D01*
Y480060D02*
Y905510D01*
X2717800Y952500D02*
X2743200D01*
X2752090Y943610D01*
Y464820D02*
Y943610D01*
X2637790Y461010D02*
Y821690D01*
X2717800Y901700D01*
X2653030Y499110D02*
X2692400Y459740D01*
X2653030Y499110D02*
Y513080D01*
X2701228Y491428D02*
Y783528D01*
X2717800Y476250D02*
Y774700D01*
X2707640Y466090D02*
X2717800Y476250D01*
X2665730Y513080D02*
Y798830D01*
Y511810D02*
Y513080D01*
X2701228Y783528D02*
X2717800Y800100D01*
X2665730Y798830D02*
X2717800Y850900D01*
X2653030Y513080D02*
X2653030Y811530D01*
X2717800Y876300D01*
X2766060Y466090D02*
Y958850D01*
X2744470Y1028700D02*
X2795270Y977900D01*
X2783840Y464820D02*
Y962660D01*
X2717800Y977900D02*
X2747010D01*
X2766060Y958850D01*
X2743200Y1003300D02*
X2783840Y962660D01*
X2717800Y1003300D02*
X2743200D01*
X2717800Y1028700D02*
X2744470D01*
X2802890Y918210D02*
Y1008380D01*
Y918210D02*
X2832100Y889000D01*
X2717800Y1054100D02*
X2757170D01*
X2802890Y1008380D01*
X2717800Y1079500D02*
X2750820D01*
X2810510Y1019810D01*
Y935990D02*
X2832100Y914400D01*
X2810510Y935990D02*
Y1019810D01*
D41*
X1432420Y613410D02*
D03*
X1859420D02*
D03*
D42*
X1746250Y311150D02*
D03*
X2546350D02*
D03*
X120650Y252730D02*
D03*
X990600D02*
D03*
X1701800D02*
D03*
X2413000D02*
D03*
X2724150Y311150D02*
D03*
X2012950D02*
D03*
X1301750D02*
D03*
X590550D02*
D03*
X768350Y252730D02*
D03*
X1479550D02*
D03*
X2190750D02*
D03*
X2901950D02*
D03*
X2235200Y311150D02*
D03*
X1524000D02*
D03*
X812800D02*
D03*
X946150Y252730D02*
D03*
X1657350D02*
D03*
X2368550D02*
D03*
X2768600Y311150D02*
D03*
X2057400D02*
D03*
X1346200D02*
D03*
X635000D02*
D03*
X723900Y252730D02*
D03*
X1435100D02*
D03*
X2146300D02*
D03*
X2857500D02*
D03*
X2279650Y311150D02*
D03*
X1568450D02*
D03*
X857250D02*
D03*
X679450Y252730D02*
D03*
X1390650D02*
D03*
X2101850D02*
D03*
X2813050D02*
D03*
X2324100Y311150D02*
D03*
X1612900D02*
D03*
X901700D02*
D03*
Y252730D02*
D03*
X1612900D02*
D03*
X2324100D02*
D03*
X2813050Y311150D02*
D03*
X2101850D02*
D03*
X1390650D02*
D03*
X679450D02*
D03*
X635000Y252730D02*
D03*
X1346200D02*
D03*
X2057400D02*
D03*
X2768600D02*
D03*
X2368550Y311150D02*
D03*
X1657350D02*
D03*
X946150D02*
D03*
X857250Y252730D02*
D03*
X1568450D02*
D03*
X2279650D02*
D03*
X2857500Y311150D02*
D03*
X2146300D02*
D03*
X1435100D02*
D03*
X723900D02*
D03*
X590550Y252730D02*
D03*
X1301750D02*
D03*
X2012950D02*
D03*
X2724150D02*
D03*
X2413000Y311150D02*
D03*
X1701800D02*
D03*
X990600D02*
D03*
X120650D02*
D03*
X812800Y252730D02*
D03*
X1524000D02*
D03*
X2235200D02*
D03*
X2901950Y311150D02*
D03*
X2190750D02*
D03*
X1479550D02*
D03*
X768350D02*
D03*
X546100Y252730D02*
D03*
X1257300D02*
D03*
X1968500D02*
D03*
X2679700D02*
D03*
X2457450Y311150D02*
D03*
X1035050D02*
D03*
X165100D02*
D03*
X501650Y252730D02*
D03*
X1212850D02*
D03*
X1924050D02*
D03*
X2635250D02*
D03*
X2501900Y311150D02*
D03*
X1790700D02*
D03*
X1079500D02*
D03*
X209550D02*
D03*
X457200Y252730D02*
D03*
X1168400D02*
D03*
X1879600D02*
D03*
X2590800D02*
D03*
X1835150Y311150D02*
D03*
X1123950D02*
D03*
X254000D02*
D03*
Y252730D02*
D03*
X1123950D02*
D03*
X1835150D02*
D03*
X2546350D02*
D03*
X2590800Y311150D02*
D03*
X1879600D02*
D03*
X1168400D02*
D03*
X457200D02*
D03*
X209550Y252730D02*
D03*
X1079500D02*
D03*
X1790700D02*
D03*
X2501900D02*
D03*
X2635250Y311150D02*
D03*
X1924050D02*
D03*
X1212850D02*
D03*
X501650D02*
D03*
X165100Y252730D02*
D03*
X1035050D02*
D03*
X1746250D02*
D03*
X2457450D02*
D03*
X2679700Y311150D02*
D03*
X1968500D02*
D03*
X1257300D02*
D03*
X546100D02*
D03*
D43*
X1746250Y285750D02*
D03*
X2546350D02*
D03*
X120650Y227330D02*
D03*
X990600D02*
D03*
X1701800D02*
D03*
X2413000D02*
D03*
X2724150Y285750D02*
D03*
X2012950D02*
D03*
X1301750D02*
D03*
X590550D02*
D03*
X768350Y227330D02*
D03*
X1479550D02*
D03*
X2190750D02*
D03*
X2901950D02*
D03*
X2235200Y285750D02*
D03*
X1524000D02*
D03*
X812800D02*
D03*
X248821Y488106D02*
D03*
X289785Y348403D02*
D03*
X946150Y227330D02*
D03*
X1657350D02*
D03*
X2368550D02*
D03*
X2768600Y285750D02*
D03*
X2057400D02*
D03*
X1346200D02*
D03*
X635000D02*
D03*
X723900Y227330D02*
D03*
X1435100D02*
D03*
X2146300D02*
D03*
X2857500D02*
D03*
X2279650Y285750D02*
D03*
X1568450D02*
D03*
X857250D02*
D03*
X277393Y454055D02*
D03*
X679450Y227330D02*
D03*
X1390650D02*
D03*
X2101850D02*
D03*
X2813050D02*
D03*
X2324100Y285750D02*
D03*
X1612900D02*
D03*
X901700D02*
D03*
X305965Y420005D02*
D03*
X261213Y382453D02*
D03*
X901700Y227330D02*
D03*
X1612900D02*
D03*
X2324100D02*
D03*
X2813050Y285750D02*
D03*
X2101850D02*
D03*
X1390650D02*
D03*
X679450D02*
D03*
X635000Y227330D02*
D03*
X1346200D02*
D03*
X2057400D02*
D03*
X2768600D02*
D03*
X2368550Y285750D02*
D03*
X1657350D02*
D03*
X946150D02*
D03*
X334537Y385954D02*
D03*
X232641Y416504D02*
D03*
X857250Y227330D02*
D03*
X1568450D02*
D03*
X2279650D02*
D03*
X2857500Y285750D02*
D03*
X2146300D02*
D03*
X1435100D02*
D03*
X723900D02*
D03*
X590550Y227330D02*
D03*
X1301750D02*
D03*
X2012950D02*
D03*
X2724150D02*
D03*
X2413000Y285750D02*
D03*
X1701800D02*
D03*
X990600D02*
D03*
X120650D02*
D03*
X204069Y450554D02*
D03*
X812800Y227330D02*
D03*
X1524000D02*
D03*
X2235200D02*
D03*
X2901950Y285750D02*
D03*
X2190750D02*
D03*
X1479550D02*
D03*
X768350D02*
D03*
X546100Y227330D02*
D03*
X1257300D02*
D03*
X1968500D02*
D03*
X2679700D02*
D03*
X2457450Y285750D02*
D03*
X1035050D02*
D03*
X165100D02*
D03*
X501650Y227330D02*
D03*
X1212850D02*
D03*
X1924050D02*
D03*
X2635250D02*
D03*
X2501900Y285750D02*
D03*
X1790700D02*
D03*
X1079500D02*
D03*
X209550D02*
D03*
X457200Y227330D02*
D03*
X1168400D02*
D03*
X1879600D02*
D03*
X2590800D02*
D03*
X1835150Y285750D02*
D03*
X1123950D02*
D03*
X254000D02*
D03*
Y227330D02*
D03*
X1123950D02*
D03*
X1835150D02*
D03*
X2546350D02*
D03*
X2590800Y285750D02*
D03*
X1879600D02*
D03*
X1168400D02*
D03*
X457200D02*
D03*
X209550Y227330D02*
D03*
X1079500D02*
D03*
X1790700D02*
D03*
X2501900D02*
D03*
X2635250Y285750D02*
D03*
X1924050D02*
D03*
X1212850D02*
D03*
X501650D02*
D03*
X165100Y227330D02*
D03*
X1035050D02*
D03*
X1746250D02*
D03*
X2457450D02*
D03*
X2679700Y285750D02*
D03*
X1968500D02*
D03*
X1257300D02*
D03*
X546100D02*
D03*
D44*
X1264920Y849630D02*
D03*
X1290320D02*
D03*
X3008630Y651510D02*
D03*
Y626110D02*
D03*
D45*
X1969770Y843479D02*
D03*
X1971040Y781050D02*
D03*
D46*
X1995170Y843479D02*
D03*
X1996440Y781050D02*
D03*
D47*
X1196340Y850900D02*
D03*
D48*
X1221740D02*
D03*
X2286000Y925830D02*
D03*
X2362200Y849630D02*
D03*
D49*
X2984500Y736600D02*
D03*
Y762000D02*
D03*
Y787400D02*
D03*
Y812800D02*
D03*
Y838200D02*
D03*
Y863600D02*
D03*
Y889000D02*
D03*
Y914400D02*
D03*
Y939800D02*
D03*
Y965200D02*
D03*
Y990600D02*
D03*
Y1016000D02*
D03*
Y1041400D02*
D03*
Y1066800D02*
D03*
X2832100Y736600D02*
D03*
Y762000D02*
D03*
Y787400D02*
D03*
Y812800D02*
D03*
Y838200D02*
D03*
Y863600D02*
D03*
Y889000D02*
D03*
Y914400D02*
D03*
Y939800D02*
D03*
Y965200D02*
D03*
Y990600D02*
D03*
Y1016000D02*
D03*
Y1041400D02*
D03*
Y1066800D02*
D03*
X1410970D02*
D03*
X1436370D02*
D03*
X2258060Y718820D02*
D03*
X2283460D02*
D03*
X2308860D02*
D03*
X2334260D02*
D03*
X2359660D02*
D03*
X2717800Y774700D02*
D03*
Y800100D02*
D03*
Y825500D02*
D03*
Y850900D02*
D03*
Y876300D02*
D03*
Y901700D02*
D03*
Y927100D02*
D03*
Y952500D02*
D03*
Y977900D02*
D03*
Y1003300D02*
D03*
Y1028700D02*
D03*
Y1054100D02*
D03*
Y1079500D02*
D03*
X2540000Y774700D02*
D03*
Y800100D02*
D03*
Y825500D02*
D03*
Y850900D02*
D03*
Y876300D02*
D03*
Y901700D02*
D03*
Y927100D02*
D03*
Y952500D02*
D03*
Y977900D02*
D03*
Y1003300D02*
D03*
Y1028700D02*
D03*
Y1054100D02*
D03*
Y1079500D02*
D03*
D50*
X2984500Y1092200D02*
D03*
X2832100D02*
D03*
X2717800Y1104900D02*
D03*
X2540000D02*
D03*
D51*
X1385570Y1066800D02*
D03*
X2385060Y718820D02*
D03*
D52*
X1221740Y919480D02*
D03*
D53*
X1247140D02*
D03*
X1272540D02*
D03*
D54*
X1922780Y852170D02*
D03*
Y775970D02*
D03*
X1887220Y876300D02*
D03*
Y800100D02*
D03*
D55*
X268278Y504433D02*
D03*
X309242Y364729D02*
D03*
X296850Y470382D02*
D03*
X325422Y436332D02*
D03*
X280670Y398780D02*
D03*
X353994Y402281D02*
D03*
X252098Y432831D02*
D03*
X223526Y466881D02*
D03*
D56*
X2870200Y787400D02*
D03*
X2880360Y778510D02*
D03*
X2421890Y674370D02*
D03*
X2816860Y661670D02*
D03*
Y647700D02*
D03*
D57*
X2707640Y345440D02*
D03*
X1573530Y463550D02*
D03*
X2249170Y471805D02*
D03*
X2684780Y590550D02*
D03*
X2426970Y502920D02*
D03*
X2468245Y541655D02*
D03*
X2249170Y486410D02*
D03*
X2506980Y461010D02*
D03*
X2526030Y462280D02*
D03*
X2459990Y458470D02*
D03*
X1565910Y476250D02*
D03*
X481330Y467360D02*
D03*
X311150Y285750D02*
D03*
X481330Y454660D02*
D03*
X289560Y227330D02*
D03*
X2672080Y339090D02*
D03*
X2743200Y423164D02*
D03*
X2543810Y462280D02*
D03*
X2570480Y461010D02*
D03*
X2719070Y363220D02*
D03*
X2726690Y466090D02*
D03*
X2752090Y464820D02*
D03*
X2637790Y461010D02*
D03*
Y370840D02*
D03*
X2691130Y379730D02*
D03*
X2692400Y458470D02*
D03*
X2701290Y491490D02*
D03*
X2707640Y466090D02*
D03*
X2665730Y513080D02*
D03*
X2766060Y464820D02*
D03*
Y427990D02*
D03*
X2783840Y433070D02*
D03*
Y464820D02*
D03*
D58*
X1551940Y392430D02*
D03*
X2479040Y369570D02*
D03*
X1659890Y422910D02*
D03*
X1633220Y407670D02*
D03*
X2520950Y336804D02*
D03*
X2727960Y397764D02*
D03*
X2782570Y394970D02*
D03*
X2506980Y384810D02*
D03*
X2545080Y377190D02*
D03*
X2799080Y412750D02*
D03*
X2404110Y422656D02*
D03*
X2417686Y399936D02*
D03*
X2343150Y430530D02*
D03*
X2387600Y407670D02*
D03*
X2493010Y346710D02*
D03*
X2413000Y361950D02*
D03*
X2325370Y415290D02*
D03*
X2308860Y438150D02*
D03*
X2280920Y392430D02*
D03*
X2235200Y445770D02*
D03*
X2190750Y392430D02*
D03*
X2170430Y438150D02*
D03*
X2147570Y415290D02*
D03*
X2125980Y430530D02*
D03*
X2103120Y407670D02*
D03*
X2086610Y422910D02*
D03*
X2073910Y400050D02*
D03*
X2056130Y361950D02*
D03*
X2042160Y354330D02*
D03*
X2032000Y369570D02*
D03*
X2006600Y346710D02*
D03*
X1945640Y384810D02*
D03*
X1924050Y339090D02*
D03*
X1897380Y377190D02*
D03*
X1864360Y331470D02*
D03*
X1851660Y377190D02*
D03*
X1814830Y339090D02*
D03*
X1832610Y384810D02*
D03*
X1756410Y346710D02*
D03*
X1746250Y369570D02*
D03*
X1732280Y354330D02*
D03*
X1720850Y361950D02*
D03*
X1686560Y400050D02*
D03*
X1610360Y430530D02*
D03*
X1591310Y415290D02*
D03*
X1565910Y438150D02*
D03*
X1540510Y445770D02*
D03*
X1485900Y392430D02*
D03*
X1451610Y438150D02*
D03*
X1433830Y415290D02*
D03*
X1410970Y430530D02*
D03*
X1390650Y407670D02*
D03*
X1381760Y422910D02*
D03*
X1357630Y400050D02*
D03*
X1325880Y361950D02*
D03*
X1315720Y354330D02*
D03*
X1275080Y369570D02*
D03*
X1247140Y346710D02*
D03*
X1233170Y384810D02*
D03*
X1212850Y339090D02*
D03*
X1197610Y377190D02*
D03*
X1167130Y331470D02*
D03*
X1122680Y377190D02*
D03*
X1099820Y339090D02*
D03*
X1076960Y384810D02*
D03*
X1057910Y346710D02*
D03*
X1038860Y369570D02*
D03*
X1010220Y361950D02*
D03*
X1022350Y354330D02*
D03*
X969010Y400050D02*
D03*
X944880Y422910D02*
D03*
X928370Y407670D02*
D03*
X900430Y430530D02*
D03*
X880110Y415290D02*
D03*
X857250Y438150D02*
D03*
X838200Y392430D02*
D03*
X795020Y445770D02*
D03*
X774700Y392430D02*
D03*
X748030Y438150D02*
D03*
X599440Y354330D02*
D03*
X665480Y422910D02*
D03*
X642620Y400050D02*
D03*
X560070Y369570D02*
D03*
X538480Y346710D02*
D03*
X543560Y384810D02*
D03*
X721360Y415290D02*
D03*
X701040Y430530D02*
D03*
X678180Y407670D02*
D03*
X615950Y361950D02*
D03*
X474980Y377190D02*
D03*
X501650Y339090D02*
D03*
D59*
X2508250Y400050D02*
D03*
X2526030Y407607D02*
D03*
X2614930Y377190D02*
D03*
X2570480Y392176D02*
D03*
X2542540Y415163D02*
D03*
X2459990Y354330D02*
D03*
D60*
X2561590Y330073D02*
D03*
M02*
