G04*
G04 #@! TF.GenerationSoftware,Altium Limited,Altium Designer,23.7.1 (13)*
G04*
G04 Layer_Color=16711935*
%FSLAX44Y44*%
%MOMM*%
G71*
G04*
G04 #@! TF.SameCoordinates,0223C93B-7FE2-4649-842A-E085946BCD85*
G04*
G04*
G04 #@! TF.FilePolarity,Positive*
G04*
G01*
G75*
%ADD12C,0.2000*%
G36*
X1934342Y1089308D02*
X1934407D01*
X1934582Y1089290D01*
X1934776Y1089262D01*
X1934980Y1089216D01*
X1935202Y1089160D01*
X1935405Y1089086D01*
X1935414D01*
X1935433Y1089077D01*
X1935461Y1089059D01*
X1935498Y1089040D01*
X1935590Y1088994D01*
X1935710Y1088911D01*
X1935849Y1088818D01*
X1935988Y1088698D01*
X1936117Y1088559D01*
X1936237Y1088402D01*
Y1088393D01*
X1936247Y1088384D01*
X1936265Y1088356D01*
X1936284Y1088328D01*
X1936330Y1088236D01*
X1936385Y1088115D01*
X1936450Y1087968D01*
X1936496Y1087792D01*
X1936542Y1087607D01*
X1936561Y1087404D01*
X1935747Y1087339D01*
Y1087348D01*
Y1087367D01*
X1935738Y1087394D01*
X1935729Y1087440D01*
X1935701Y1087542D01*
X1935664Y1087681D01*
X1935609Y1087829D01*
X1935525Y1087977D01*
X1935424Y1088115D01*
X1935294Y1088245D01*
X1935276Y1088254D01*
X1935230Y1088291D01*
X1935137Y1088347D01*
X1935017Y1088402D01*
X1934860Y1088458D01*
X1934675Y1088513D01*
X1934444Y1088550D01*
X1934185Y1088559D01*
X1934055D01*
X1934000Y1088550D01*
X1933926Y1088541D01*
X1933759Y1088522D01*
X1933575Y1088485D01*
X1933390Y1088439D01*
X1933214Y1088365D01*
X1933140Y1088319D01*
X1933066Y1088273D01*
X1933048Y1088263D01*
X1933011Y1088226D01*
X1932955Y1088162D01*
X1932900Y1088088D01*
X1932835Y1087986D01*
X1932780Y1087875D01*
X1932742Y1087746D01*
X1932724Y1087598D01*
Y1087579D01*
Y1087542D01*
X1932733Y1087477D01*
X1932752Y1087404D01*
X1932780Y1087311D01*
X1932826Y1087219D01*
X1932881Y1087126D01*
X1932964Y1087034D01*
X1932974Y1087025D01*
X1933020Y1086997D01*
X1933057Y1086969D01*
X1933094Y1086951D01*
X1933149Y1086923D01*
X1933214Y1086886D01*
X1933297Y1086858D01*
X1933390Y1086821D01*
X1933491Y1086784D01*
X1933612Y1086738D01*
X1933741Y1086701D01*
X1933889Y1086655D01*
X1934055Y1086618D01*
X1934240Y1086572D01*
X1934250D01*
X1934286Y1086562D01*
X1934342Y1086553D01*
X1934407Y1086535D01*
X1934490Y1086516D01*
X1934592Y1086488D01*
X1934693Y1086460D01*
X1934804Y1086433D01*
X1935045Y1086368D01*
X1935276Y1086303D01*
X1935387Y1086266D01*
X1935488Y1086229D01*
X1935581Y1086202D01*
X1935655Y1086165D01*
X1935664D01*
X1935683Y1086155D01*
X1935710Y1086137D01*
X1935747Y1086118D01*
X1935849Y1086063D01*
X1935969Y1085989D01*
X1936108Y1085887D01*
X1936247Y1085776D01*
X1936376Y1085647D01*
X1936487Y1085508D01*
X1936496Y1085490D01*
X1936533Y1085443D01*
X1936570Y1085360D01*
X1936626Y1085249D01*
X1936672Y1085120D01*
X1936718Y1084963D01*
X1936746Y1084787D01*
X1936755Y1084602D01*
Y1084593D01*
Y1084584D01*
Y1084556D01*
Y1084519D01*
X1936737Y1084417D01*
X1936718Y1084288D01*
X1936681Y1084140D01*
X1936635Y1083983D01*
X1936561Y1083816D01*
X1936459Y1083641D01*
Y1083631D01*
X1936450Y1083622D01*
X1936404Y1083567D01*
X1936339Y1083483D01*
X1936247Y1083391D01*
X1936126Y1083280D01*
X1935978Y1083160D01*
X1935812Y1083049D01*
X1935618Y1082947D01*
X1935609D01*
X1935590Y1082938D01*
X1935562Y1082929D01*
X1935525Y1082910D01*
X1935470Y1082892D01*
X1935405Y1082864D01*
X1935257Y1082827D01*
X1935082Y1082781D01*
X1934869Y1082735D01*
X1934638Y1082707D01*
X1934388Y1082698D01*
X1934240D01*
X1934166Y1082707D01*
X1934083D01*
X1933991Y1082716D01*
X1933880Y1082725D01*
X1933649Y1082762D01*
X1933408Y1082799D01*
X1933168Y1082864D01*
X1932937Y1082947D01*
X1932927D01*
X1932909Y1082956D01*
X1932881Y1082975D01*
X1932844Y1082993D01*
X1932733Y1083049D01*
X1932604Y1083132D01*
X1932456Y1083243D01*
X1932299Y1083372D01*
X1932151Y1083530D01*
X1932012Y1083705D01*
Y1083715D01*
X1931994Y1083733D01*
X1931984Y1083761D01*
X1931957Y1083798D01*
X1931938Y1083844D01*
X1931910Y1083900D01*
X1931846Y1084038D01*
X1931781Y1084214D01*
X1931725Y1084408D01*
X1931689Y1084630D01*
X1931670Y1084861D01*
X1932465Y1084935D01*
Y1084926D01*
Y1084917D01*
X1932474Y1084889D01*
Y1084852D01*
X1932493Y1084769D01*
X1932521Y1084648D01*
X1932558Y1084528D01*
X1932595Y1084389D01*
X1932659Y1084260D01*
X1932724Y1084140D01*
X1932733Y1084131D01*
X1932761Y1084094D01*
X1932807Y1084029D01*
X1932881Y1083964D01*
X1932974Y1083881D01*
X1933075Y1083798D01*
X1933214Y1083715D01*
X1933362Y1083641D01*
X1933371D01*
X1933380Y1083631D01*
X1933408Y1083622D01*
X1933436Y1083613D01*
X1933528Y1083585D01*
X1933649Y1083548D01*
X1933797Y1083511D01*
X1933963Y1083483D01*
X1934148Y1083465D01*
X1934351Y1083456D01*
X1934434D01*
X1934527Y1083465D01*
X1934638Y1083474D01*
X1934767Y1083493D01*
X1934915Y1083511D01*
X1935063Y1083548D01*
X1935202Y1083594D01*
X1935220Y1083604D01*
X1935267Y1083622D01*
X1935331Y1083659D01*
X1935414Y1083696D01*
X1935498Y1083761D01*
X1935590Y1083826D01*
X1935683Y1083900D01*
X1935757Y1083992D01*
X1935766Y1084001D01*
X1935784Y1084038D01*
X1935812Y1084084D01*
X1935849Y1084158D01*
X1935886Y1084232D01*
X1935914Y1084325D01*
X1935932Y1084426D01*
X1935941Y1084537D01*
Y1084547D01*
Y1084593D01*
X1935932Y1084648D01*
X1935923Y1084722D01*
X1935895Y1084796D01*
X1935867Y1084889D01*
X1935821Y1084981D01*
X1935757Y1085064D01*
X1935747Y1085074D01*
X1935720Y1085101D01*
X1935683Y1085138D01*
X1935618Y1085194D01*
X1935544Y1085249D01*
X1935442Y1085314D01*
X1935322Y1085379D01*
X1935183Y1085434D01*
X1935174Y1085443D01*
X1935128Y1085453D01*
X1935054Y1085480D01*
X1935008Y1085490D01*
X1934943Y1085508D01*
X1934878Y1085536D01*
X1934795Y1085554D01*
X1934703Y1085582D01*
X1934592Y1085610D01*
X1934481Y1085638D01*
X1934351Y1085675D01*
X1934203Y1085712D01*
X1934046Y1085749D01*
X1934037D01*
X1934009Y1085758D01*
X1933963Y1085767D01*
X1933907Y1085786D01*
X1933833Y1085804D01*
X1933750Y1085823D01*
X1933565Y1085878D01*
X1933362Y1085943D01*
X1933149Y1086008D01*
X1932964Y1086072D01*
X1932881Y1086109D01*
X1932807Y1086146D01*
X1932798D01*
X1932789Y1086155D01*
X1932733Y1086192D01*
X1932650Y1086239D01*
X1932558Y1086313D01*
X1932447Y1086396D01*
X1932336Y1086497D01*
X1932225Y1086618D01*
X1932132Y1086747D01*
X1932123Y1086766D01*
X1932095Y1086812D01*
X1932058Y1086886D01*
X1932021Y1086978D01*
X1931984Y1087098D01*
X1931947Y1087237D01*
X1931920Y1087385D01*
X1931910Y1087542D01*
Y1087551D01*
Y1087561D01*
Y1087589D01*
Y1087626D01*
X1931929Y1087718D01*
X1931947Y1087838D01*
X1931975Y1087977D01*
X1932021Y1088134D01*
X1932086Y1088291D01*
X1932178Y1088448D01*
Y1088458D01*
X1932188Y1088467D01*
X1932234Y1088522D01*
X1932299Y1088596D01*
X1932382Y1088689D01*
X1932493Y1088790D01*
X1932632Y1088901D01*
X1932798Y1089003D01*
X1932983Y1089096D01*
X1932992D01*
X1933011Y1089105D01*
X1933038Y1089114D01*
X1933075Y1089133D01*
X1933122Y1089151D01*
X1933186Y1089169D01*
X1933325Y1089206D01*
X1933501Y1089243D01*
X1933704Y1089280D01*
X1933917Y1089308D01*
X1934157Y1089317D01*
X1934277D01*
X1934342Y1089308D01*
D02*
G37*
G36*
X1943810Y1082809D02*
X1942977D01*
X1941637Y1087681D01*
Y1087690D01*
X1941628Y1087709D01*
X1941618Y1087736D01*
X1941609Y1087783D01*
X1941581Y1087884D01*
X1941553Y1088005D01*
X1941517Y1088134D01*
X1941480Y1088254D01*
X1941452Y1088356D01*
X1941443Y1088402D01*
X1941433Y1088430D01*
Y1088421D01*
X1941424Y1088411D01*
X1941415Y1088356D01*
X1941396Y1088273D01*
X1941369Y1088171D01*
X1941341Y1088060D01*
X1941304Y1087931D01*
X1941276Y1087801D01*
X1941239Y1087681D01*
X1939889Y1082809D01*
X1939002D01*
X1937328Y1089206D01*
X1938207D01*
X1939159Y1085009D01*
Y1085000D01*
X1939168Y1084981D01*
X1939177Y1084944D01*
X1939187Y1084898D01*
X1939196Y1084833D01*
X1939214Y1084769D01*
X1939233Y1084685D01*
X1939251Y1084593D01*
X1939298Y1084399D01*
X1939344Y1084177D01*
X1939390Y1083936D01*
X1939436Y1083696D01*
Y1083705D01*
X1939445Y1083742D01*
X1939464Y1083789D01*
X1939473Y1083863D01*
X1939492Y1083936D01*
X1939520Y1084029D01*
X1939566Y1084232D01*
X1939621Y1084436D01*
X1939640Y1084537D01*
X1939667Y1084630D01*
X1939686Y1084713D01*
X1939704Y1084787D01*
X1939723Y1084843D01*
X1939732Y1084880D01*
X1940943Y1089206D01*
X1941970D01*
X1942876Y1085961D01*
Y1085952D01*
X1942894Y1085906D01*
X1942913Y1085841D01*
X1942931Y1085758D01*
X1942959Y1085647D01*
X1942996Y1085527D01*
X1943033Y1085388D01*
X1943070Y1085231D01*
X1943116Y1085055D01*
X1943153Y1084880D01*
X1943236Y1084500D01*
X1943320Y1084103D01*
X1943384Y1083696D01*
Y1083705D01*
X1943393Y1083724D01*
Y1083761D01*
X1943412Y1083807D01*
X1943421Y1083863D01*
X1943440Y1083927D01*
X1943449Y1084010D01*
X1943477Y1084103D01*
X1943523Y1084306D01*
X1943578Y1084547D01*
X1943634Y1084806D01*
X1943708Y1085092D01*
X1944706Y1089206D01*
X1945566D01*
X1943810Y1082809D01*
D02*
G37*
G36*
X1948312Y1089225D02*
X1948386Y1089216D01*
X1948479Y1089206D01*
X1948580Y1089188D01*
X1948682Y1089169D01*
X1948922Y1089105D01*
X1949163Y1089012D01*
X1949283Y1088957D01*
X1949403Y1088892D01*
X1949514Y1088809D01*
X1949616Y1088716D01*
X1949625Y1088707D01*
X1949643Y1088698D01*
X1949662Y1088661D01*
X1949699Y1088624D01*
X1949745Y1088578D01*
X1949791Y1088513D01*
X1949838Y1088448D01*
X1949893Y1088365D01*
X1949986Y1088189D01*
X1950078Y1087968D01*
X1950115Y1087857D01*
X1950134Y1087727D01*
X1950152Y1087598D01*
X1950161Y1087459D01*
Y1087440D01*
Y1087394D01*
X1950152Y1087320D01*
X1950143Y1087219D01*
X1950124Y1087108D01*
X1950087Y1086978D01*
X1950050Y1086840D01*
X1949995Y1086701D01*
X1949986Y1086682D01*
X1949967Y1086636D01*
X1949930Y1086562D01*
X1949875Y1086460D01*
X1949801Y1086350D01*
X1949708Y1086211D01*
X1949597Y1086072D01*
X1949468Y1085915D01*
X1949449Y1085897D01*
X1949403Y1085841D01*
X1949357Y1085795D01*
X1949311Y1085749D01*
X1949255Y1085693D01*
X1949181Y1085619D01*
X1949107Y1085545D01*
X1949015Y1085462D01*
X1948922Y1085369D01*
X1948811Y1085268D01*
X1948691Y1085166D01*
X1948562Y1085046D01*
X1948414Y1084926D01*
X1948266Y1084796D01*
X1948257Y1084787D01*
X1948238Y1084769D01*
X1948201Y1084741D01*
X1948155Y1084704D01*
X1948099Y1084648D01*
X1948035Y1084593D01*
X1947887Y1084473D01*
X1947730Y1084334D01*
X1947582Y1084195D01*
X1947452Y1084075D01*
X1947397Y1084029D01*
X1947350Y1083983D01*
X1947341Y1083973D01*
X1947314Y1083946D01*
X1947277Y1083909D01*
X1947230Y1083853D01*
X1947184Y1083789D01*
X1947129Y1083724D01*
X1947018Y1083567D01*
X1950170D01*
Y1082809D01*
X1945927D01*
Y1082818D01*
Y1082855D01*
Y1082910D01*
X1945936Y1082984D01*
X1945945Y1083067D01*
X1945964Y1083160D01*
X1945982Y1083252D01*
X1946019Y1083354D01*
Y1083363D01*
X1946028Y1083372D01*
X1946047Y1083428D01*
X1946084Y1083511D01*
X1946139Y1083622D01*
X1946213Y1083752D01*
X1946306Y1083900D01*
X1946407Y1084047D01*
X1946537Y1084205D01*
Y1084214D01*
X1946555Y1084223D01*
X1946602Y1084279D01*
X1946685Y1084362D01*
X1946805Y1084482D01*
X1946944Y1084621D01*
X1947119Y1084787D01*
X1947332Y1084972D01*
X1947563Y1085166D01*
X1947572Y1085175D01*
X1947609Y1085203D01*
X1947665Y1085249D01*
X1947730Y1085305D01*
X1947813Y1085379D01*
X1947914Y1085462D01*
X1948016Y1085554D01*
X1948136Y1085656D01*
X1948368Y1085878D01*
X1948599Y1086100D01*
X1948710Y1086211D01*
X1948811Y1086322D01*
X1948904Y1086423D01*
X1948978Y1086525D01*
Y1086535D01*
X1948996Y1086544D01*
X1949015Y1086572D01*
X1949033Y1086608D01*
X1949098Y1086710D01*
X1949172Y1086830D01*
X1949237Y1086978D01*
X1949301Y1087135D01*
X1949338Y1087311D01*
X1949357Y1087477D01*
Y1087487D01*
Y1087496D01*
X1949348Y1087551D01*
X1949338Y1087644D01*
X1949311Y1087746D01*
X1949274Y1087875D01*
X1949209Y1088005D01*
X1949126Y1088134D01*
X1949015Y1088263D01*
X1948996Y1088282D01*
X1948950Y1088319D01*
X1948885Y1088365D01*
X1948784Y1088430D01*
X1948654Y1088485D01*
X1948506Y1088541D01*
X1948331Y1088578D01*
X1948136Y1088587D01*
X1948081D01*
X1948044Y1088578D01*
X1947933Y1088568D01*
X1947804Y1088541D01*
X1947665Y1088504D01*
X1947508Y1088439D01*
X1947360Y1088356D01*
X1947221Y1088245D01*
X1947203Y1088226D01*
X1947166Y1088180D01*
X1947110Y1088106D01*
X1947055Y1087995D01*
X1946990Y1087866D01*
X1946935Y1087699D01*
X1946897Y1087514D01*
X1946879Y1087302D01*
X1946075Y1087385D01*
Y1087394D01*
X1946084Y1087422D01*
Y1087468D01*
X1946093Y1087533D01*
X1946112Y1087607D01*
X1946130Y1087690D01*
X1946158Y1087792D01*
X1946186Y1087894D01*
X1946260Y1088115D01*
X1946371Y1088337D01*
X1946435Y1088448D01*
X1946518Y1088559D01*
X1946602Y1088661D01*
X1946694Y1088753D01*
X1946703Y1088763D01*
X1946722Y1088772D01*
X1946750Y1088800D01*
X1946796Y1088827D01*
X1946851Y1088864D01*
X1946916Y1088901D01*
X1946990Y1088948D01*
X1947082Y1088994D01*
X1947184Y1089040D01*
X1947295Y1089086D01*
X1947415Y1089123D01*
X1947545Y1089160D01*
X1947683Y1089188D01*
X1947831Y1089216D01*
X1947988Y1089225D01*
X1948155Y1089234D01*
X1948247D01*
X1948312Y1089225D01*
D02*
G37*
G36*
X1934342Y969928D02*
X1934407D01*
X1934582Y969910D01*
X1934776Y969882D01*
X1934980Y969836D01*
X1935202Y969780D01*
X1935405Y969706D01*
X1935414D01*
X1935433Y969697D01*
X1935461Y969678D01*
X1935498Y969660D01*
X1935590Y969614D01*
X1935710Y969531D01*
X1935849Y969438D01*
X1935988Y969318D01*
X1936117Y969179D01*
X1936237Y969022D01*
Y969013D01*
X1936247Y969004D01*
X1936265Y968976D01*
X1936284Y968948D01*
X1936330Y968856D01*
X1936385Y968736D01*
X1936450Y968587D01*
X1936496Y968412D01*
X1936542Y968227D01*
X1936561Y968024D01*
X1935747Y967959D01*
Y967968D01*
Y967987D01*
X1935738Y968014D01*
X1935729Y968061D01*
X1935701Y968162D01*
X1935664Y968301D01*
X1935609Y968449D01*
X1935525Y968597D01*
X1935424Y968736D01*
X1935294Y968865D01*
X1935276Y968874D01*
X1935230Y968911D01*
X1935137Y968967D01*
X1935017Y969022D01*
X1934860Y969078D01*
X1934675Y969133D01*
X1934444Y969170D01*
X1934185Y969179D01*
X1934055D01*
X1934000Y969170D01*
X1933926Y969161D01*
X1933759Y969142D01*
X1933575Y969105D01*
X1933390Y969059D01*
X1933214Y968985D01*
X1933140Y968939D01*
X1933066Y968893D01*
X1933048Y968883D01*
X1933011Y968846D01*
X1932955Y968782D01*
X1932900Y968708D01*
X1932835Y968606D01*
X1932780Y968495D01*
X1932742Y968366D01*
X1932724Y968218D01*
Y968199D01*
Y968162D01*
X1932733Y968098D01*
X1932752Y968024D01*
X1932780Y967931D01*
X1932826Y967839D01*
X1932881Y967746D01*
X1932964Y967654D01*
X1932974Y967645D01*
X1933020Y967617D01*
X1933057Y967589D01*
X1933094Y967570D01*
X1933149Y967543D01*
X1933214Y967506D01*
X1933297Y967478D01*
X1933390Y967441D01*
X1933491Y967404D01*
X1933612Y967358D01*
X1933741Y967321D01*
X1933889Y967275D01*
X1934055Y967238D01*
X1934240Y967191D01*
X1934250D01*
X1934286Y967182D01*
X1934342Y967173D01*
X1934407Y967154D01*
X1934490Y967136D01*
X1934592Y967108D01*
X1934693Y967081D01*
X1934804Y967053D01*
X1935045Y966988D01*
X1935276Y966923D01*
X1935387Y966886D01*
X1935488Y966849D01*
X1935581Y966822D01*
X1935655Y966785D01*
X1935664D01*
X1935683Y966775D01*
X1935710Y966757D01*
X1935747Y966738D01*
X1935849Y966683D01*
X1935969Y966609D01*
X1936108Y966507D01*
X1936247Y966396D01*
X1936376Y966267D01*
X1936487Y966128D01*
X1936496Y966110D01*
X1936533Y966064D01*
X1936570Y965980D01*
X1936626Y965869D01*
X1936672Y965740D01*
X1936718Y965583D01*
X1936746Y965407D01*
X1936755Y965222D01*
Y965213D01*
Y965204D01*
Y965176D01*
Y965139D01*
X1936737Y965037D01*
X1936718Y964908D01*
X1936681Y964760D01*
X1936635Y964603D01*
X1936561Y964436D01*
X1936459Y964261D01*
Y964251D01*
X1936450Y964242D01*
X1936404Y964187D01*
X1936339Y964103D01*
X1936247Y964011D01*
X1936126Y963900D01*
X1935978Y963780D01*
X1935812Y963669D01*
X1935618Y963567D01*
X1935609D01*
X1935590Y963558D01*
X1935562Y963549D01*
X1935525Y963530D01*
X1935470Y963512D01*
X1935405Y963484D01*
X1935257Y963447D01*
X1935082Y963401D01*
X1934869Y963354D01*
X1934638Y963327D01*
X1934388Y963318D01*
X1934240D01*
X1934166Y963327D01*
X1934083D01*
X1933991Y963336D01*
X1933880Y963345D01*
X1933649Y963382D01*
X1933408Y963419D01*
X1933168Y963484D01*
X1932937Y963567D01*
X1932927D01*
X1932909Y963576D01*
X1932881Y963595D01*
X1932844Y963613D01*
X1932733Y963669D01*
X1932604Y963752D01*
X1932456Y963863D01*
X1932299Y963992D01*
X1932151Y964150D01*
X1932012Y964325D01*
Y964335D01*
X1931994Y964353D01*
X1931984Y964381D01*
X1931957Y964418D01*
X1931938Y964464D01*
X1931910Y964520D01*
X1931846Y964658D01*
X1931781Y964834D01*
X1931725Y965028D01*
X1931689Y965250D01*
X1931670Y965481D01*
X1932465Y965555D01*
Y965546D01*
Y965536D01*
X1932474Y965509D01*
Y965472D01*
X1932493Y965389D01*
X1932521Y965268D01*
X1932558Y965148D01*
X1932595Y965010D01*
X1932659Y964880D01*
X1932724Y964760D01*
X1932733Y964751D01*
X1932761Y964714D01*
X1932807Y964649D01*
X1932881Y964584D01*
X1932974Y964501D01*
X1933075Y964418D01*
X1933214Y964335D01*
X1933362Y964261D01*
X1933371D01*
X1933380Y964251D01*
X1933408Y964242D01*
X1933436Y964233D01*
X1933528Y964205D01*
X1933649Y964168D01*
X1933797Y964131D01*
X1933963Y964103D01*
X1934148Y964085D01*
X1934351Y964076D01*
X1934434D01*
X1934527Y964085D01*
X1934638Y964094D01*
X1934767Y964113D01*
X1934915Y964131D01*
X1935063Y964168D01*
X1935202Y964214D01*
X1935220Y964224D01*
X1935267Y964242D01*
X1935331Y964279D01*
X1935414Y964316D01*
X1935498Y964381D01*
X1935590Y964445D01*
X1935683Y964520D01*
X1935757Y964612D01*
X1935766Y964621D01*
X1935784Y964658D01*
X1935812Y964704D01*
X1935849Y964778D01*
X1935886Y964852D01*
X1935914Y964945D01*
X1935932Y965046D01*
X1935941Y965157D01*
Y965167D01*
Y965213D01*
X1935932Y965268D01*
X1935923Y965342D01*
X1935895Y965416D01*
X1935867Y965509D01*
X1935821Y965601D01*
X1935757Y965684D01*
X1935747Y965694D01*
X1935720Y965721D01*
X1935683Y965758D01*
X1935618Y965814D01*
X1935544Y965869D01*
X1935442Y965934D01*
X1935322Y965999D01*
X1935183Y966054D01*
X1935174Y966064D01*
X1935128Y966073D01*
X1935054Y966100D01*
X1935008Y966110D01*
X1934943Y966128D01*
X1934878Y966156D01*
X1934795Y966174D01*
X1934703Y966202D01*
X1934592Y966230D01*
X1934481Y966258D01*
X1934351Y966295D01*
X1934203Y966332D01*
X1934046Y966369D01*
X1934037D01*
X1934009Y966378D01*
X1933963Y966387D01*
X1933907Y966406D01*
X1933833Y966424D01*
X1933750Y966443D01*
X1933565Y966498D01*
X1933362Y966563D01*
X1933149Y966628D01*
X1932964Y966692D01*
X1932881Y966729D01*
X1932807Y966766D01*
X1932798D01*
X1932789Y966775D01*
X1932733Y966812D01*
X1932650Y966859D01*
X1932558Y966933D01*
X1932447Y967016D01*
X1932336Y967117D01*
X1932225Y967238D01*
X1932132Y967367D01*
X1932123Y967386D01*
X1932095Y967432D01*
X1932058Y967506D01*
X1932021Y967598D01*
X1931984Y967719D01*
X1931947Y967857D01*
X1931920Y968005D01*
X1931910Y968162D01*
Y968171D01*
Y968181D01*
Y968208D01*
Y968245D01*
X1931929Y968338D01*
X1931947Y968458D01*
X1931975Y968597D01*
X1932021Y968754D01*
X1932086Y968911D01*
X1932178Y969068D01*
Y969078D01*
X1932188Y969087D01*
X1932234Y969142D01*
X1932299Y969216D01*
X1932382Y969309D01*
X1932493Y969410D01*
X1932632Y969521D01*
X1932798Y969623D01*
X1932983Y969715D01*
X1932992D01*
X1933011Y969725D01*
X1933038Y969734D01*
X1933075Y969753D01*
X1933122Y969771D01*
X1933186Y969790D01*
X1933325Y969827D01*
X1933501Y969863D01*
X1933704Y969900D01*
X1933917Y969928D01*
X1934157Y969937D01*
X1934277D01*
X1934342Y969928D01*
D02*
G37*
G36*
X1943810Y963428D02*
X1942977D01*
X1941637Y968301D01*
Y968310D01*
X1941628Y968329D01*
X1941618Y968356D01*
X1941609Y968403D01*
X1941581Y968504D01*
X1941553Y968624D01*
X1941517Y968754D01*
X1941480Y968874D01*
X1941452Y968976D01*
X1941443Y969022D01*
X1941433Y969050D01*
Y969041D01*
X1941424Y969031D01*
X1941415Y968976D01*
X1941396Y968893D01*
X1941369Y968791D01*
X1941341Y968680D01*
X1941304Y968551D01*
X1941276Y968421D01*
X1941239Y968301D01*
X1939889Y963428D01*
X1939002D01*
X1937328Y969827D01*
X1938207D01*
X1939159Y965629D01*
Y965620D01*
X1939168Y965601D01*
X1939177Y965564D01*
X1939187Y965518D01*
X1939196Y965453D01*
X1939214Y965389D01*
X1939233Y965305D01*
X1939251Y965213D01*
X1939298Y965019D01*
X1939344Y964797D01*
X1939390Y964557D01*
X1939436Y964316D01*
Y964325D01*
X1939445Y964362D01*
X1939464Y964408D01*
X1939473Y964482D01*
X1939492Y964557D01*
X1939520Y964649D01*
X1939566Y964852D01*
X1939621Y965056D01*
X1939640Y965157D01*
X1939667Y965250D01*
X1939686Y965333D01*
X1939704Y965407D01*
X1939723Y965462D01*
X1939732Y965499D01*
X1940943Y969827D01*
X1941970D01*
X1942876Y966581D01*
Y966572D01*
X1942894Y966526D01*
X1942913Y966461D01*
X1942931Y966378D01*
X1942959Y966267D01*
X1942996Y966147D01*
X1943033Y966008D01*
X1943070Y965851D01*
X1943116Y965675D01*
X1943153Y965499D01*
X1943236Y965120D01*
X1943320Y964723D01*
X1943384Y964316D01*
Y964325D01*
X1943393Y964344D01*
Y964381D01*
X1943412Y964427D01*
X1943421Y964482D01*
X1943440Y964547D01*
X1943449Y964630D01*
X1943477Y964723D01*
X1943523Y964926D01*
X1943578Y965167D01*
X1943634Y965426D01*
X1943708Y965712D01*
X1944706Y969827D01*
X1945566D01*
X1943810Y963428D01*
D02*
G37*
G36*
X1948996D02*
X1948210D01*
Y968430D01*
X1948201Y968421D01*
X1948155Y968384D01*
X1948099Y968329D01*
X1948007Y968264D01*
X1947905Y968181D01*
X1947776Y968088D01*
X1947628Y967987D01*
X1947462Y967885D01*
X1947452D01*
X1947443Y967876D01*
X1947388Y967839D01*
X1947295Y967792D01*
X1947184Y967737D01*
X1947055Y967672D01*
X1946916Y967607D01*
X1946777Y967543D01*
X1946639Y967487D01*
Y968245D01*
X1946648D01*
X1946666Y968264D01*
X1946703Y968273D01*
X1946750Y968301D01*
X1946805Y968329D01*
X1946870Y968366D01*
X1947027Y968458D01*
X1947212Y968560D01*
X1947397Y968689D01*
X1947591Y968837D01*
X1947785Y968994D01*
X1947794Y969004D01*
X1947804Y969013D01*
X1947831Y969041D01*
X1947868Y969068D01*
X1947952Y969161D01*
X1948062Y969272D01*
X1948173Y969401D01*
X1948294Y969549D01*
X1948395Y969697D01*
X1948488Y969854D01*
X1948996D01*
Y963428D01*
D02*
G37*
D12*
X1867170Y1050580D02*
Y1118580D01*
Y1050580D02*
X1996170D01*
Y1118580D01*
X1867170D02*
X1996170D01*
X1867170Y931200D02*
Y999200D01*
Y931200D02*
X1996170D01*
Y999200D01*
X1867170D02*
X1996170D01*
M02*
