G04*
G04 #@! TF.GenerationSoftware,Altium Limited,Altium Designer,23.7.1 (13)*
G04*
G04 Layer_Color=255*
%FSLAX44Y44*%
%MOMM*%
G71*
G04*
G04 #@! TF.SameCoordinates,0223C93B-7FE2-4649-842A-E085946BCD85*
G04*
G04*
G04 #@! TF.FilePolarity,Positive*
G04*
G01*
G75*
%ADD16C,2.7200*%
%ADD18C,2.8000*%
%ADD19R,2.8000X2.8000*%
%ADD41C,5.5880*%
%ADD42R,1.1430X1.1430*%
%ADD43C,1.1430*%
%ADD44C,1.2000*%
%ADD45R,1.3970X1.3970*%
%ADD46C,1.3970*%
%ADD47R,1.5240X1.5240*%
%ADD48C,1.5240*%
%ADD49C,1.5000*%
%ADD50R,1.5000X1.5000*%
%ADD51R,1.5000X1.5000*%
%ADD52R,1.6000X1.6000*%
%ADD53C,1.6000*%
%ADD54C,1.4000*%
%ADD55P,1.6165X4X265.0*%
D16*
X1536070Y1037010D02*
D03*
X1628770D02*
D03*
X1582420Y1007010D02*
D03*
X1663070Y1036990D02*
D03*
X1755770D02*
D03*
X1709420Y1006990D02*
D03*
D18*
X1978670Y1084580D02*
D03*
X1931670D02*
D03*
X1978670Y965200D02*
D03*
X1931670D02*
D03*
D19*
X1884670Y1084580D02*
D03*
Y965200D02*
D03*
D41*
X1432420Y613410D02*
D03*
X1859420D02*
D03*
D42*
X1746250Y311150D02*
D03*
X2546350D02*
D03*
X120650Y252730D02*
D03*
X990600D02*
D03*
X1701800D02*
D03*
X2413000D02*
D03*
X2724150Y311150D02*
D03*
X2012950D02*
D03*
X1301750D02*
D03*
X590550D02*
D03*
X768350Y252730D02*
D03*
X1479550D02*
D03*
X2190750D02*
D03*
X2901950D02*
D03*
X2235200Y311150D02*
D03*
X1524000D02*
D03*
X812800D02*
D03*
X946150Y252730D02*
D03*
X1657350D02*
D03*
X2368550D02*
D03*
X2768600Y311150D02*
D03*
X2057400D02*
D03*
X1346200D02*
D03*
X635000D02*
D03*
X723900Y252730D02*
D03*
X1435100D02*
D03*
X2146300D02*
D03*
X2857500D02*
D03*
X2279650Y311150D02*
D03*
X1568450D02*
D03*
X857250D02*
D03*
X679450Y252730D02*
D03*
X1390650D02*
D03*
X2101850D02*
D03*
X2813050D02*
D03*
X2324100Y311150D02*
D03*
X1612900D02*
D03*
X901700D02*
D03*
Y252730D02*
D03*
X1612900D02*
D03*
X2324100D02*
D03*
X2813050Y311150D02*
D03*
X2101850D02*
D03*
X1390650D02*
D03*
X679450D02*
D03*
X635000Y252730D02*
D03*
X1346200D02*
D03*
X2057400D02*
D03*
X2768600D02*
D03*
X2368550Y311150D02*
D03*
X1657350D02*
D03*
X946150D02*
D03*
X857250Y252730D02*
D03*
X1568450D02*
D03*
X2279650D02*
D03*
X2857500Y311150D02*
D03*
X2146300D02*
D03*
X1435100D02*
D03*
X723900D02*
D03*
X590550Y252730D02*
D03*
X1301750D02*
D03*
X2012950D02*
D03*
X2724150D02*
D03*
X2413000Y311150D02*
D03*
X1701800D02*
D03*
X990600D02*
D03*
X120650D02*
D03*
X812800Y252730D02*
D03*
X1524000D02*
D03*
X2235200D02*
D03*
X2901950Y311150D02*
D03*
X2190750D02*
D03*
X1479550D02*
D03*
X768350D02*
D03*
X546100Y252730D02*
D03*
X1257300D02*
D03*
X1968500D02*
D03*
X2679700D02*
D03*
X2457450Y311150D02*
D03*
X1035050D02*
D03*
X165100D02*
D03*
X501650Y252730D02*
D03*
X1212850D02*
D03*
X1924050D02*
D03*
X2635250D02*
D03*
X2501900Y311150D02*
D03*
X1790700D02*
D03*
X1079500D02*
D03*
X209550D02*
D03*
X457200Y252730D02*
D03*
X1168400D02*
D03*
X1879600D02*
D03*
X2590800D02*
D03*
X1835150Y311150D02*
D03*
X1123950D02*
D03*
X254000D02*
D03*
Y252730D02*
D03*
X1123950D02*
D03*
X1835150D02*
D03*
X2546350D02*
D03*
X2590800Y311150D02*
D03*
X1879600D02*
D03*
X1168400D02*
D03*
X457200D02*
D03*
X209550Y252730D02*
D03*
X1079500D02*
D03*
X1790700D02*
D03*
X2501900D02*
D03*
X2635250Y311150D02*
D03*
X1924050D02*
D03*
X1212850D02*
D03*
X501650D02*
D03*
X165100Y252730D02*
D03*
X1035050D02*
D03*
X1746250D02*
D03*
X2457450D02*
D03*
X2679700Y311150D02*
D03*
X1968500D02*
D03*
X1257300D02*
D03*
X546100D02*
D03*
D43*
X1746250Y285750D02*
D03*
X2546350D02*
D03*
X120650Y227330D02*
D03*
X990600D02*
D03*
X1701800D02*
D03*
X2413000D02*
D03*
X2724150Y285750D02*
D03*
X2012950D02*
D03*
X1301750D02*
D03*
X590550D02*
D03*
X768350Y227330D02*
D03*
X1479550D02*
D03*
X2190750D02*
D03*
X2901950D02*
D03*
X2235200Y285750D02*
D03*
X1524000D02*
D03*
X812800D02*
D03*
X248821Y488106D02*
D03*
X289785Y348403D02*
D03*
X946150Y227330D02*
D03*
X1657350D02*
D03*
X2368550D02*
D03*
X2768600Y285750D02*
D03*
X2057400D02*
D03*
X1346200D02*
D03*
X635000D02*
D03*
X723900Y227330D02*
D03*
X1435100D02*
D03*
X2146300D02*
D03*
X2857500D02*
D03*
X2279650Y285750D02*
D03*
X1568450D02*
D03*
X857250D02*
D03*
X277393Y454055D02*
D03*
X679450Y227330D02*
D03*
X1390650D02*
D03*
X2101850D02*
D03*
X2813050D02*
D03*
X2324100Y285750D02*
D03*
X1612900D02*
D03*
X901700D02*
D03*
X305965Y420005D02*
D03*
X261213Y382453D02*
D03*
X901700Y227330D02*
D03*
X1612900D02*
D03*
X2324100D02*
D03*
X2813050Y285750D02*
D03*
X2101850D02*
D03*
X1390650D02*
D03*
X679450D02*
D03*
X635000Y227330D02*
D03*
X1346200D02*
D03*
X2057400D02*
D03*
X2768600D02*
D03*
X2368550Y285750D02*
D03*
X1657350D02*
D03*
X946150D02*
D03*
X334537Y385954D02*
D03*
X232641Y416504D02*
D03*
X857250Y227330D02*
D03*
X1568450D02*
D03*
X2279650D02*
D03*
X2857500Y285750D02*
D03*
X2146300D02*
D03*
X1435100D02*
D03*
X723900D02*
D03*
X590550Y227330D02*
D03*
X1301750D02*
D03*
X2012950D02*
D03*
X2724150D02*
D03*
X2413000Y285750D02*
D03*
X1701800D02*
D03*
X990600D02*
D03*
X120650D02*
D03*
X204069Y450554D02*
D03*
X812800Y227330D02*
D03*
X1524000D02*
D03*
X2235200D02*
D03*
X2901950Y285750D02*
D03*
X2190750D02*
D03*
X1479550D02*
D03*
X768350D02*
D03*
X546100Y227330D02*
D03*
X1257300D02*
D03*
X1968500D02*
D03*
X2679700D02*
D03*
X2457450Y285750D02*
D03*
X1035050D02*
D03*
X165100D02*
D03*
X501650Y227330D02*
D03*
X1212850D02*
D03*
X1924050D02*
D03*
X2635250D02*
D03*
X2501900Y285750D02*
D03*
X1790700D02*
D03*
X1079500D02*
D03*
X209550D02*
D03*
X457200Y227330D02*
D03*
X1168400D02*
D03*
X1879600D02*
D03*
X2590800D02*
D03*
X1835150Y285750D02*
D03*
X1123950D02*
D03*
X254000D02*
D03*
Y227330D02*
D03*
X1123950D02*
D03*
X1835150D02*
D03*
X2546350D02*
D03*
X2590800Y285750D02*
D03*
X1879600D02*
D03*
X1168400D02*
D03*
X457200D02*
D03*
X209550Y227330D02*
D03*
X1079500D02*
D03*
X1790700D02*
D03*
X2501900D02*
D03*
X2635250Y285750D02*
D03*
X1924050D02*
D03*
X1212850D02*
D03*
X501650D02*
D03*
X165100Y227330D02*
D03*
X1035050D02*
D03*
X1746250D02*
D03*
X2457450D02*
D03*
X2679700Y285750D02*
D03*
X1968500D02*
D03*
X1257300D02*
D03*
X546100D02*
D03*
D44*
X1264920Y849630D02*
D03*
X1290320D02*
D03*
X3008630Y651510D02*
D03*
Y626110D02*
D03*
D45*
X1969770Y843479D02*
D03*
X1971040Y781050D02*
D03*
D46*
X1995170Y843479D02*
D03*
X1996440Y781050D02*
D03*
D47*
X1196340Y850900D02*
D03*
D48*
X1221740D02*
D03*
D49*
X2984500Y736600D02*
D03*
Y762000D02*
D03*
Y787400D02*
D03*
Y812800D02*
D03*
Y838200D02*
D03*
Y863600D02*
D03*
Y889000D02*
D03*
Y914400D02*
D03*
Y939800D02*
D03*
Y965200D02*
D03*
Y990600D02*
D03*
Y1016000D02*
D03*
Y1041400D02*
D03*
Y1066800D02*
D03*
X2832100Y736600D02*
D03*
Y762000D02*
D03*
Y787400D02*
D03*
Y812800D02*
D03*
Y838200D02*
D03*
Y863600D02*
D03*
Y889000D02*
D03*
Y914400D02*
D03*
Y939800D02*
D03*
Y965200D02*
D03*
Y990600D02*
D03*
Y1016000D02*
D03*
Y1041400D02*
D03*
Y1066800D02*
D03*
X1410970D02*
D03*
X1436370D02*
D03*
X2258060Y718820D02*
D03*
X2283460D02*
D03*
X2308860D02*
D03*
X2334260D02*
D03*
X2359660D02*
D03*
X2717800Y774700D02*
D03*
Y800100D02*
D03*
Y825500D02*
D03*
Y850900D02*
D03*
Y876300D02*
D03*
Y901700D02*
D03*
Y927100D02*
D03*
Y952500D02*
D03*
Y977900D02*
D03*
Y1003300D02*
D03*
Y1028700D02*
D03*
Y1054100D02*
D03*
Y1079500D02*
D03*
X2540000Y774700D02*
D03*
Y800100D02*
D03*
Y825500D02*
D03*
Y850900D02*
D03*
Y876300D02*
D03*
Y901700D02*
D03*
Y927100D02*
D03*
Y952500D02*
D03*
Y977900D02*
D03*
Y1003300D02*
D03*
Y1028700D02*
D03*
Y1054100D02*
D03*
Y1079500D02*
D03*
D50*
X2984500Y1092200D02*
D03*
X2832100D02*
D03*
X2717800Y1104900D02*
D03*
X2540000D02*
D03*
D51*
X1385570Y1066800D02*
D03*
X2385060Y718820D02*
D03*
D52*
X1221740Y919480D02*
D03*
D53*
X1247140D02*
D03*
X1272540D02*
D03*
D54*
X1922780Y852170D02*
D03*
Y775970D02*
D03*
X1887220Y876300D02*
D03*
Y800100D02*
D03*
D55*
X268278Y504433D02*
D03*
X309242Y364729D02*
D03*
X296850Y470382D02*
D03*
X325422Y436332D02*
D03*
X280670Y398780D02*
D03*
X353994Y402281D02*
D03*
X252098Y432831D02*
D03*
X223526Y466881D02*
D03*
M02*
