G04*
G04 #@! TF.GenerationSoftware,Altium Limited,Altium Designer,23.7.1 (13)*
G04*
G04 Layer_Color=16711935*
%FSLAX44Y44*%
%MOMM*%
G71*
G04*
G04 #@! TF.SameCoordinates,0223C93B-7FE2-4649-842A-E085946BCD85*
G04*
G04*
G04 #@! TF.FilePolarity,Positive*
G04*
G01*
G75*
%ADD11C,0.2540*%
%ADD62C,0.1524*%
D11*
X1709420Y1023130D02*
Y1099820D01*
X1582420Y1023150D02*
Y1099820D01*
X1687816Y1097280D02*
X1709420D01*
X1582420D02*
X1595896D01*
X1694180Y1102360D02*
X1709420Y1097280D01*
X1694180Y1092200D02*
X1709420Y1097280D01*
X1582420D02*
X1597660Y1092200D01*
X1582420Y1097280D02*
X1597660Y1102360D01*
X1773046Y500592D02*
Y964650D01*
X1518412Y501033D02*
Y965091D01*
X1773428Y762000D02*
Y935990D01*
X1645920Y762000D02*
Y949960D01*
Y786130D02*
X1661160Y791210D01*
X1645920Y786130D02*
X1661160Y781050D01*
X1758188D02*
X1773428Y786130D01*
X1758188Y791210D02*
X1773428Y786130D01*
X1645920D02*
X1659650D01*
X1751570D02*
X1773428D01*
X1645920Y765810D02*
Y788670D01*
X1773428Y765810D02*
Y788670D01*
X1518412Y789940D02*
X1533652Y795020D01*
X1518412Y789940D02*
X1533652Y784860D01*
X1630680D02*
X1645920Y789940D01*
X1630680Y795020D02*
X1645920Y789940D01*
X1518412D02*
X1532142D01*
X1624062D02*
X1645920D01*
X1518412Y504843D02*
Y792480D01*
X1645920Y765810D02*
Y792480D01*
X1709420Y721360D02*
X1724660Y726440D01*
X1709420Y721360D02*
X1724660Y716280D01*
X1844180D02*
X1859420Y721360D01*
X1844180Y726440D02*
X1859420Y721360D01*
X1709420D02*
X1720430D01*
X1840282D02*
X1859420D01*
X1709420Y718820D02*
Y990850D01*
X1859420Y644906D02*
Y723900D01*
X1709420Y875030D02*
X1724660Y880110D01*
X1709420Y875030D02*
X1724660Y869950D01*
X1630680D02*
X1645920Y875030D01*
X1630680Y880110D02*
X1645920Y875030D01*
X1709420D02*
X1734820D01*
X1620520D02*
X1645920D01*
Y872490D02*
Y946150D01*
X1709420Y872490D02*
Y990850D01*
X1432420Y720090D02*
X1447660Y725170D01*
X1432420Y720090D02*
X1447660Y715010D01*
X1567180D02*
X1582420Y720090D01*
X1567180Y725170D02*
X1582420Y720090D01*
X1432420D02*
X1443430D01*
X1563282D02*
X1582420D01*
X1432420Y644906D02*
Y722630D01*
X1582420Y717550D02*
Y990870D01*
X1149350Y934720D02*
X1154430Y919480D01*
X1159510Y934720D01*
X1154430Y1143000D02*
X1159510Y1127760D01*
X1149350D02*
X1154430Y1143000D01*
Y919480D02*
Y981216D01*
Y1073137D02*
Y1143000D01*
X1151890Y919480D02*
X1260984D01*
X1151890Y1143000D02*
X3045460D01*
X2397760Y1203960D02*
X2413000Y1209040D01*
X2397760Y1203960D02*
X2413000Y1198880D01*
X2512060D02*
X2527300Y1203960D01*
X2512060Y1209040D02*
X2527300Y1203960D01*
X2397760D02*
X2413775D01*
X2503157D02*
X2527300D01*
X2397760Y747760D02*
Y1206500D01*
X2527300Y765540D02*
Y1206500D01*
X2232660Y759460D02*
X2237740Y744220D01*
X2242820Y759460D01*
X2237740Y1143000D02*
X2242820Y1127760D01*
X2232660D02*
X2237740Y1143000D01*
Y744220D02*
Y887238D01*
Y991854D02*
Y1143000D01*
X2235200Y744220D02*
X2394220D01*
X2235200Y1143000D02*
X3045460D01*
X2768600Y1158240D02*
X2773680Y1143000D01*
X2778760Y1158240D01*
X2773680Y1104900D02*
X2778760Y1089660D01*
X2768600D02*
X2773680Y1104900D01*
Y1143000D02*
Y1168400D01*
Y1079500D02*
Y1104900D01*
X2728856D02*
X2776220D01*
X2771140Y1143000D02*
X3045460D01*
X2717800Y1289050D02*
X2733040Y1294130D01*
X2717800Y1289050D02*
X2733040Y1283970D01*
X2816860D02*
X2832100Y1289050D01*
X2816860Y1294130D02*
X2832100Y1289050D01*
X2717800D02*
X2724926D01*
X2816846D02*
X2832100D01*
X2717800Y1115956D02*
Y1291590D01*
X2832100Y1103256D02*
Y1291590D01*
X2540000Y1178560D02*
X2555240Y1183640D01*
X2540000Y1178560D02*
X2555240Y1173480D01*
X2702560D02*
X2717800Y1178560D01*
X2702560Y1183640D02*
X2717800Y1178560D01*
X2540000D02*
X2578875D01*
X2670797D02*
X2717800D01*
X2540000Y1115956D02*
Y1181100D01*
X2717800Y1115956D02*
Y1181100D01*
X3048000Y1198880D02*
X3063240Y1203960D01*
X3048000Y1198880D02*
X3063240Y1193800D01*
X2969260D02*
X2984500Y1198880D01*
X2969260Y1203960D02*
X2984500Y1198880D01*
X3048000D02*
X3073400D01*
X2959100D02*
X2984500D01*
Y1103256D02*
Y1201420D01*
X3048000Y1145540D02*
Y1201420D01*
X3121660Y1158240D02*
X3126740Y1143000D01*
X3131820Y1158240D01*
X3126740Y1092200D02*
X3131820Y1076960D01*
X3121660D02*
X3126740Y1092200D01*
Y1143000D02*
Y1168400D01*
Y1066800D02*
Y1092200D01*
X2995556D02*
X3129280D01*
X3050540Y1143000D02*
X3129280D01*
X2832100Y1177290D02*
X2847340Y1182370D01*
X2832100Y1177290D02*
X2847340Y1172210D01*
X2969260D02*
X2984500Y1177290D01*
X2969260Y1182370D02*
X2984500Y1177290D01*
X2832100D02*
X2858275D01*
X2950197D02*
X2984500D01*
X2832100Y1103256D02*
Y1179830D01*
X2984500Y1103256D02*
Y1179830D01*
D62*
X1610116Y1103373D02*
X1599960D01*
Y1095756D01*
X1605038Y1098295D01*
X1607577D01*
X1610116Y1095756D01*
Y1090678D01*
X1607577Y1088139D01*
X1602499D01*
X1599960Y1090678D01*
X1615195Y1100834D02*
X1617734Y1103373D01*
X1622812D01*
X1625351Y1100834D01*
Y1090678D01*
X1622812Y1088139D01*
X1617734D01*
X1615195Y1090678D01*
Y1100834D01*
X1630430D02*
X1632969Y1103373D01*
X1638047D01*
X1640586Y1100834D01*
Y1090678D01*
X1638047Y1088139D01*
X1632969D01*
X1630430Y1090678D01*
Y1100834D01*
X1645665Y1088139D02*
Y1090678D01*
X1648204D01*
Y1088139D01*
X1645665D01*
X1658361Y1100834D02*
X1660900Y1103373D01*
X1665978D01*
X1668517Y1100834D01*
Y1090678D01*
X1665978Y1088139D01*
X1660900D01*
X1658361Y1090678D01*
Y1100834D01*
X1673596D02*
X1676135Y1103373D01*
X1681213D01*
X1683752Y1100834D01*
Y1090678D01*
X1681213Y1088139D01*
X1676135D01*
X1673596Y1090678D01*
Y1100834D01*
X1231900Y924557D02*
Y916093D01*
X1233593Y914400D01*
X1236978D01*
X1238671Y916093D01*
Y924557D01*
X1242057Y914400D02*
X1245442D01*
X1243749D01*
Y924557D01*
X1242057Y922864D01*
X1673870Y792224D02*
X1663714D01*
Y784606D01*
X1668792Y787145D01*
X1671331D01*
X1673870Y784606D01*
Y779528D01*
X1671331Y776989D01*
X1666253D01*
X1663714Y779528D01*
X1678949Y789684D02*
X1681488Y792224D01*
X1686566D01*
X1689105Y789684D01*
Y779528D01*
X1686566Y776989D01*
X1681488D01*
X1678949Y779528D01*
Y789684D01*
X1704340Y776989D02*
X1694184D01*
X1704340Y787145D01*
Y789684D01*
X1701801Y792224D01*
X1696723D01*
X1694184Y789684D01*
X1709419Y776989D02*
Y779528D01*
X1711958D01*
Y776989D01*
X1709419D01*
X1722115Y789684D02*
X1724654Y792224D01*
X1729732D01*
X1732271Y789684D01*
Y779528D01*
X1729732Y776989D01*
X1724654D01*
X1722115Y779528D01*
Y789684D01*
X1737350D02*
X1739889Y792224D01*
X1744967D01*
X1747506Y789684D01*
Y779528D01*
X1744967Y776989D01*
X1739889D01*
X1737350Y779528D01*
Y789684D01*
X1546362Y796033D02*
X1536205D01*
Y788416D01*
X1541284Y790955D01*
X1543823D01*
X1546362Y788416D01*
Y783338D01*
X1543823Y780798D01*
X1538745D01*
X1536205Y783338D01*
X1551441Y793494D02*
X1553980Y796033D01*
X1559058D01*
X1561597Y793494D01*
Y783338D01*
X1559058Y780798D01*
X1553980D01*
X1551441Y783338D01*
Y793494D01*
X1576832Y780798D02*
X1566676D01*
X1576832Y790955D01*
Y793494D01*
X1574293Y796033D01*
X1569215D01*
X1566676Y793494D01*
X1581911Y780798D02*
Y783338D01*
X1584450D01*
Y780798D01*
X1581911D01*
X1594607Y793494D02*
X1597146Y796033D01*
X1602224D01*
X1604763Y793494D01*
Y783338D01*
X1602224Y780798D01*
X1597146D01*
X1594607Y783338D01*
Y793494D01*
X1609842D02*
X1612381Y796033D01*
X1617459D01*
X1619998Y793494D01*
Y783338D01*
X1617459Y780798D01*
X1612381D01*
X1609842Y783338D01*
Y793494D01*
X1724494Y712218D02*
X1729572D01*
X1727033D01*
Y727454D01*
X1724494Y724914D01*
X1747347Y727454D02*
X1737190D01*
Y719836D01*
X1742268Y722375D01*
X1744807D01*
X1747347Y719836D01*
Y714758D01*
X1744807Y712218D01*
X1739729D01*
X1737190Y714758D01*
X1752425Y712218D02*
Y714758D01*
X1754964D01*
Y712218D01*
X1752425D01*
X1765121Y724914D02*
X1767660Y727454D01*
X1772738D01*
X1775278Y724914D01*
Y714758D01*
X1772738Y712218D01*
X1767660D01*
X1765121Y714758D01*
Y724914D01*
X1780356D02*
X1782895Y727454D01*
X1787973D01*
X1790513Y724914D01*
Y714758D01*
X1787973Y712218D01*
X1782895D01*
X1780356Y714758D01*
Y724914D01*
X1795591D02*
X1798130Y727454D01*
X1803209D01*
X1805748Y724914D01*
Y714758D01*
X1803209Y712218D01*
X1798130D01*
X1795591Y714758D01*
Y724914D01*
X1810826Y712218D02*
Y722375D01*
X1813365D01*
X1815905Y719836D01*
Y712218D01*
Y719836D01*
X1818444Y722375D01*
X1820983Y719836D01*
Y712218D01*
X1826061D02*
Y722375D01*
X1828600D01*
X1831140Y719836D01*
Y712218D01*
Y719836D01*
X1833679Y722375D01*
X1836218Y719836D01*
Y712218D01*
X1641866Y838464D02*
X1631709D01*
X1641866Y848621D01*
Y851160D01*
X1639327Y853699D01*
X1634249D01*
X1631709Y851160D01*
X1657101Y853699D02*
X1646945D01*
Y846081D01*
X1652023Y848621D01*
X1654562D01*
X1657101Y846081D01*
Y841003D01*
X1654562Y838464D01*
X1649484D01*
X1646945Y841003D01*
X1662180Y851160D02*
X1664719Y853699D01*
X1669797D01*
X1672336Y851160D01*
Y841003D01*
X1669797Y838464D01*
X1664719D01*
X1662180Y841003D01*
Y851160D01*
X1677415Y838464D02*
Y841003D01*
X1679954D01*
Y838464D01*
X1677415D01*
X1690111Y851160D02*
X1692650Y853699D01*
X1697728D01*
X1700267Y851160D01*
Y841003D01*
X1697728Y838464D01*
X1692650D01*
X1690111Y841003D01*
Y851160D01*
X1705346D02*
X1707885Y853699D01*
X1712963D01*
X1715502Y851160D01*
Y841003D01*
X1712963Y838464D01*
X1707885D01*
X1705346Y841003D01*
Y851160D01*
X1447494Y710948D02*
X1452572D01*
X1450033D01*
Y726183D01*
X1447494Y723644D01*
X1470347Y726183D02*
X1460190D01*
Y718566D01*
X1465268Y721105D01*
X1467807D01*
X1470347Y718566D01*
Y713488D01*
X1467807Y710948D01*
X1462729D01*
X1460190Y713488D01*
X1475425Y710948D02*
Y713488D01*
X1477964D01*
Y710948D01*
X1475425D01*
X1488121Y723644D02*
X1490660Y726183D01*
X1495738D01*
X1498278Y723644D01*
Y713488D01*
X1495738Y710948D01*
X1490660D01*
X1488121Y713488D01*
Y723644D01*
X1503356D02*
X1505895Y726183D01*
X1510974D01*
X1513513Y723644D01*
Y713488D01*
X1510974Y710948D01*
X1505895D01*
X1503356Y713488D01*
Y723644D01*
X1518591D02*
X1521130Y726183D01*
X1526209D01*
X1528748Y723644D01*
Y713488D01*
X1526209Y710948D01*
X1521130D01*
X1518591Y713488D01*
Y723644D01*
X1533826Y710948D02*
Y721105D01*
X1536365D01*
X1538905Y718566D01*
Y710948D01*
Y718566D01*
X1541444Y721105D01*
X1543983Y718566D01*
Y710948D01*
X1549061D02*
Y721105D01*
X1551600D01*
X1554140Y718566D01*
Y710948D01*
Y718566D01*
X1556679Y721105D01*
X1559218Y718566D01*
Y710948D01*
X1150876Y985279D02*
X1148336Y987819D01*
Y992897D01*
X1150876Y995436D01*
X1153415D01*
X1155954Y992897D01*
X1158493Y995436D01*
X1161032D01*
X1163571Y992897D01*
Y987819D01*
X1161032Y985279D01*
X1158493D01*
X1155954Y987819D01*
X1153415Y985279D01*
X1150876D01*
X1155954Y987819D02*
Y992897D01*
X1150876Y1000515D02*
X1148336Y1003054D01*
Y1008132D01*
X1150876Y1010671D01*
X1153415D01*
X1155954Y1008132D01*
X1158493Y1010671D01*
X1161032D01*
X1163571Y1008132D01*
Y1003054D01*
X1161032Y1000515D01*
X1158493D01*
X1155954Y1003054D01*
X1153415Y1000515D01*
X1150876D01*
X1155954Y1003054D02*
Y1008132D01*
X1150876Y1015750D02*
X1148336Y1018289D01*
Y1023367D01*
X1150876Y1025906D01*
X1161032D01*
X1163571Y1023367D01*
Y1018289D01*
X1161032Y1015750D01*
X1150876D01*
X1163571Y1030985D02*
X1161032D01*
Y1033524D01*
X1163571D01*
Y1030985D01*
X1150876Y1043681D02*
X1148336Y1046220D01*
Y1051298D01*
X1150876Y1053837D01*
X1161032D01*
X1163571Y1051298D01*
Y1046220D01*
X1161032Y1043681D01*
X1150876D01*
Y1058916D02*
X1148336Y1061455D01*
Y1066533D01*
X1150876Y1069072D01*
X1161032D01*
X1163571Y1066533D01*
Y1061455D01*
X1161032Y1058916D01*
X1150876D01*
X2427996Y1210053D02*
X2417839D01*
Y1202436D01*
X2422917Y1204975D01*
X2425457D01*
X2427996Y1202436D01*
Y1197358D01*
X2425457Y1194818D01*
X2420378D01*
X2417839Y1197358D01*
X2433074Y1194818D02*
X2438153D01*
X2435613D01*
Y1210053D01*
X2433074Y1207514D01*
X2445770D02*
X2448309Y1210053D01*
X2453388D01*
X2455927Y1207514D01*
Y1197358D01*
X2453388Y1194818D01*
X2448309D01*
X2445770Y1197358D01*
Y1207514D01*
X2461005Y1194818D02*
Y1197358D01*
X2463544D01*
Y1194818D01*
X2461005D01*
X2473701Y1207514D02*
X2476240Y1210053D01*
X2481319D01*
X2483858Y1207514D01*
Y1197358D01*
X2481319Y1194818D01*
X2476240D01*
X2473701Y1197358D01*
Y1207514D01*
X2488936D02*
X2491475Y1210053D01*
X2496554D01*
X2499093Y1207514D01*
Y1197358D01*
X2496554Y1194818D01*
X2491475D01*
X2488936Y1197358D01*
Y1207514D01*
X2246882Y891302D02*
Y896380D01*
Y893841D01*
X2231647D01*
X2234186Y891302D01*
X2231647Y914154D02*
Y903997D01*
X2239264D01*
X2236725Y909076D01*
Y911615D01*
X2239264Y914154D01*
X2244342D01*
X2246882Y911615D01*
Y906537D01*
X2244342Y903997D01*
X2231647Y919233D02*
Y929389D01*
X2234186D01*
X2244342Y919233D01*
X2246882D01*
X2234186Y934468D02*
X2231647Y937007D01*
Y942085D01*
X2234186Y944624D01*
X2244342D01*
X2246882Y942085D01*
Y937007D01*
X2244342Y934468D01*
X2234186D01*
X2246882Y949703D02*
X2244342D01*
Y952242D01*
X2246882D01*
Y949703D01*
X2234186Y962399D02*
X2231647Y964938D01*
Y970016D01*
X2234186Y972555D01*
X2244342D01*
X2246882Y970016D01*
Y964938D01*
X2244342Y962399D01*
X2234186D01*
Y977634D02*
X2231647Y980173D01*
Y985251D01*
X2234186Y987790D01*
X2244342D01*
X2246882Y985251D01*
Y980173D01*
X2244342Y977634D01*
X2234186D01*
X2782821Y1170940D02*
Y1176018D01*
Y1173479D01*
X2767586D01*
X2770126Y1170940D01*
X2767586Y1193793D02*
Y1183636D01*
X2775204D01*
X2772665Y1188714D01*
Y1191253D01*
X2775204Y1193793D01*
X2780282D01*
X2782821Y1191253D01*
Y1186175D01*
X2780282Y1183636D01*
X2770126Y1198871D02*
X2767586Y1201410D01*
Y1206488D01*
X2770126Y1209028D01*
X2780282D01*
X2782821Y1206488D01*
Y1201410D01*
X2780282Y1198871D01*
X2770126D01*
X2782821Y1214106D02*
X2780282D01*
Y1216645D01*
X2782821D01*
Y1214106D01*
X2770126Y1226802D02*
X2767586Y1229341D01*
Y1234419D01*
X2770126Y1236959D01*
X2780282D01*
X2782821Y1234419D01*
Y1229341D01*
X2780282Y1226802D01*
X2770126D01*
Y1242037D02*
X2767586Y1244576D01*
Y1249654D01*
X2770126Y1252194D01*
X2780282D01*
X2782821Y1249654D01*
Y1244576D01*
X2780282Y1242037D01*
X2770126D01*
X2736607Y1279909D02*
Y1295143D01*
X2728990Y1287526D01*
X2739146D01*
X2754381Y1295143D02*
X2744225D01*
Y1287526D01*
X2749303Y1290065D01*
X2751842D01*
X2754381Y1287526D01*
Y1282448D01*
X2751842Y1279909D01*
X2746764D01*
X2744225Y1282448D01*
X2759460Y1292604D02*
X2761999Y1295143D01*
X2767077D01*
X2769616Y1292604D01*
Y1282448D01*
X2767077Y1279909D01*
X2761999D01*
X2759460Y1282448D01*
Y1292604D01*
X2774695Y1279909D02*
Y1282448D01*
X2777234D01*
Y1279909D01*
X2774695D01*
X2787391Y1292604D02*
X2789930Y1295143D01*
X2795008D01*
X2797547Y1292604D01*
Y1282448D01*
X2795008Y1279909D01*
X2789930D01*
X2787391Y1282448D01*
Y1292604D01*
X2802626D02*
X2805165Y1295143D01*
X2810243D01*
X2812782Y1292604D01*
Y1282448D01*
X2810243Y1279909D01*
X2805165D01*
X2802626Y1282448D01*
Y1292604D01*
X2582939Y1184653D02*
X2593096D01*
Y1182114D01*
X2582939Y1171958D01*
Y1169418D01*
X2598175Y1182114D02*
X2600714Y1184653D01*
X2605792D01*
X2608331Y1182114D01*
Y1171958D01*
X2605792Y1169418D01*
X2600714D01*
X2598175Y1171958D01*
Y1182114D01*
X2613410D02*
X2615949Y1184653D01*
X2621027D01*
X2623566Y1182114D01*
Y1171958D01*
X2621027Y1169418D01*
X2615949D01*
X2613410Y1171958D01*
Y1182114D01*
X2628645Y1169418D02*
Y1171958D01*
X2631184D01*
Y1169418D01*
X2628645D01*
X2641341Y1182114D02*
X2643880Y1184653D01*
X2648958D01*
X2651497Y1182114D01*
Y1171958D01*
X2648958Y1169418D01*
X2643880D01*
X2641341Y1171958D01*
Y1182114D01*
X2656576D02*
X2659115Y1184653D01*
X2664193D01*
X2666732Y1182114D01*
Y1171958D01*
X2664193Y1169418D01*
X2659115D01*
X2656576Y1171958D01*
Y1182114D01*
X2980446Y1217163D02*
X2970290D01*
X2980446Y1227320D01*
Y1229859D01*
X2977907Y1232398D01*
X2972829D01*
X2970290Y1229859D01*
X2995681Y1232398D02*
X2985525D01*
Y1224781D01*
X2990603Y1227320D01*
X2993142D01*
X2995681Y1224781D01*
Y1219702D01*
X2993142Y1217163D01*
X2988064D01*
X2985525Y1219702D01*
X3000760Y1229859D02*
X3003299Y1232398D01*
X3008377D01*
X3010916Y1229859D01*
Y1219702D01*
X3008377Y1217163D01*
X3003299D01*
X3000760Y1219702D01*
Y1229859D01*
X3015995Y1217163D02*
Y1219702D01*
X3018534D01*
Y1217163D01*
X3015995D01*
X3028690Y1229859D02*
X3031230Y1232398D01*
X3036308D01*
X3038847Y1229859D01*
Y1219702D01*
X3036308Y1217163D01*
X3031230D01*
X3028690Y1219702D01*
Y1229859D01*
X3043926D02*
X3046465Y1232398D01*
X3051543D01*
X3054082Y1229859D01*
Y1219702D01*
X3051543Y1217163D01*
X3046465D01*
X3043926Y1219702D01*
Y1229859D01*
X3163306Y1081796D02*
Y1071639D01*
X3153149Y1081796D01*
X3150610D01*
X3148071Y1079257D01*
Y1074179D01*
X3150610Y1071639D01*
Y1086875D02*
X3148071Y1089414D01*
Y1094492D01*
X3150610Y1097031D01*
X3160767D01*
X3163306Y1094492D01*
Y1089414D01*
X3160767Y1086875D01*
X3150610D01*
Y1102110D02*
X3148071Y1104649D01*
Y1109727D01*
X3150610Y1112266D01*
X3160767D01*
X3163306Y1109727D01*
Y1104649D01*
X3160767Y1102110D01*
X3150610D01*
X3163306Y1117345D02*
X3160767D01*
Y1119884D01*
X3163306D01*
Y1117345D01*
X3150610Y1130041D02*
X3148071Y1132580D01*
Y1137658D01*
X3150610Y1140197D01*
X3160767D01*
X3163306Y1137658D01*
Y1132580D01*
X3160767Y1130041D01*
X3150610D01*
Y1145276D02*
X3148071Y1147815D01*
Y1152893D01*
X3150610Y1155432D01*
X3160767D01*
X3163306Y1152893D01*
Y1147815D01*
X3160767Y1145276D01*
X3150610D01*
X2872496Y1183383D02*
X2867418Y1180844D01*
X2862339Y1175766D01*
Y1170688D01*
X2864879Y1168148D01*
X2869957D01*
X2872496Y1170688D01*
Y1173227D01*
X2869957Y1175766D01*
X2862339D01*
X2877574Y1180844D02*
X2880114Y1183383D01*
X2885192D01*
X2887731Y1180844D01*
Y1170688D01*
X2885192Y1168148D01*
X2880114D01*
X2877574Y1170688D01*
Y1180844D01*
X2892810D02*
X2895349Y1183383D01*
X2900427D01*
X2902966Y1180844D01*
Y1170688D01*
X2900427Y1168148D01*
X2895349D01*
X2892810Y1170688D01*
Y1180844D01*
X2908045Y1168148D02*
Y1170688D01*
X2910584D01*
Y1168148D01*
X2908045D01*
X2920741Y1180844D02*
X2923280Y1183383D01*
X2928358D01*
X2930898Y1180844D01*
Y1170688D01*
X2928358Y1168148D01*
X2923280D01*
X2920741Y1170688D01*
Y1180844D01*
X2935976D02*
X2938515Y1183383D01*
X2943593D01*
X2946133Y1180844D01*
Y1170688D01*
X2943593Y1168148D01*
X2938515D01*
X2935976Y1170688D01*
Y1180844D01*
M02*
