M48
;Layer_Color=9474304
;FILE_FORMAT=4:4
METRIC,LZ
;TYPE=PLATED
T01F00S00C0.3048
T02F00S00C0.3556
T03F00S00C0.3810
T04F00S00C0.6350
T05F00S00C0.7000
T06F00S00C0.7620
T07F00S00C0.8500
T08F00S00C0.9000
T09F00S00C1.0000
T10F00S00C1.7700
T11F00S00C1.8500
T12F00S00C3.1000
%
T01
X0050165Y0033909
X0053848Y0034671
X0054356Y0038481
X0056007Y0036957
X0059944Y0035433
X0061595Y0036195
X0047498Y0037719
X007747Y0039243
X008382
X0101022Y0036195
X0102235Y0035433
X0103886Y0036957
X0105791Y0034671
X0109982Y0033909
X0112268Y0037719
X0107696Y0038481
X0116713Y0033147
X0121285Y0033909
X0124714Y0034671
X0127508Y0036957
X0131572Y0035433
X0132588Y0036195
X0123317Y0038481
X0119761Y0037719
X014859Y0039243
X0155194
X0172085Y0036195
X0173228Y0035433
X0174625Y0036957
X0175641Y0034671
X0181483Y0033909
X0186436Y0033147
X0185166Y0037719
X0183261Y0038481
X0189738Y0037719
X0194564Y0038481
X0192405Y0033909
X020066Y0034671
X0204216Y0035433
X0205613Y0036195
X02032Y0036957
X0219075Y0039243
X0228092
X02413Y0036195
X0247904Y0036957
X0249301Y0034671
X0252095Y00336804
X0250698Y0038481
X0254508Y0037719
X0278257Y0039497
X0279908Y0041275
X0281686Y006477
Y0066167
X028702Y007874
X0288036Y0077851
X0272796Y00397764
X02417686Y00399936
X0240411Y00422656
X023876Y0040767
X0242189Y0067437
X0234315Y0043053
X0232537Y0041529
X0230886Y0043815
X022352Y0044577
X0217043Y0043815
X0214757Y0041529
X0212598Y0043053
X0210312Y0040767
X0208661Y0042291
X0207391Y0040005
X0168656
X0165989Y0042291
X0163322Y0040767
X0161036Y0043053
X0159131Y0041529
X0156591Y0043815
X0154051Y0044577
X0145161Y0043815
X0143383Y0041529
X0141097Y0043053
X0138176Y0042291
X0139065Y0040767
X0135763Y0040005
X0096901
X0094488Y0042291
X0092837Y0040767
X0090043Y0043053
X0088011Y0041529
X0085725Y0043815
X0079502Y0044577
X0074803Y0043815
X0072136Y0041529
X0070104Y0043053
X0066548Y0042291
X0067818Y0040767
X0064262Y0040005
T02
X0245999Y0035433
X0257048Y00392176
X0261493Y0037719
X0254254Y00415163
X0252603Y00407607
X0250825Y0040005
T03
X0028956Y0022733
X0031115Y0028575
X0256159Y00330073
X0263779Y0037084
X0269113Y0037973
X0271907Y0036322
X0270764Y0034544
X0267208Y0033909
X0278384Y0043307
Y0046482
X0276606
X0275209
X0272669Y0046609
X0270764
X026924Y0045847
X0270129Y0049149
X0266573Y0051308
X0263779Y0046101
X0257048
X0254381Y0046228
X0252603
X0250698Y0046101
X0245999Y0045847
X0242697Y0050292
X02468245Y00541655
X0268478Y0059055
X027432Y00423164
X0276606Y0042799
X0224917Y00471805
Y0048641
X0156591Y0047625
X0157353Y0046355
X0048133Y0046736
Y0045466
T04
X0012065Y0022733
Y0025273
Y0028575
Y0031115
X001651
Y0028575
Y0025273
Y0022733
X0020955
Y0025273
Y0028575
Y0031115
X00254
Y0028575
Y0025273
Y0022733
X00289785Y00348403
X00309242Y00364729
X00334537Y00385954
X00261213Y00382453
X004572Y0031115
Y0028575
Y0025273
Y0022733
X0050165
Y0025273
Y0028575
Y0031115
X005461
Y0028575
Y0025273
Y0022733
X0059055
Y0025273
Y0028575
Y0031115
X00635
Y0028575
Y0025273
Y0022733
X0067945
Y0025273
Y0028575
Y0031115
X007239
Y0028575
Y0025273
Y0022733
X0076835
Y0025273
Y0028575
Y0031115
X008128
Y0028575
Y0025273
Y0022733
X0085725
Y0025273
Y0028575
Y0031115
X009017
Y0028575
Y0025273
Y0022733
X0094615
Y0025273
Y0028575
Y0031115
X009906
Y0028575
Y0025273
Y0022733
X0103505
Y0025273
Y0028575
Y0031115
X010795
Y0028575
Y0025273
Y0022733
X0112395
Y0025273
Y0028575
Y0031115
X011684
Y0028575
Y0025273
Y0022733
X0121285
Y0025273
Y0028575
Y0031115
X012573
Y0028575
Y0025273
Y0022733
X0130175
Y0025273
Y0028575
Y0031115
X013462
Y0028575
Y0025273
Y0022733
X0139065
Y0025273
Y0028575
Y0031115
X014351
Y0028575
Y0025273
Y0022733
X0147955
Y0025273
Y0028575
Y0031115
X01524
Y0028575
Y0025273
Y0022733
X0156845
Y0025273
Y0028575
Y0031115
X016129
Y0028575
Y0025273
Y0022733
X0165735
Y0025273
Y0028575
Y0031115
X017018
Y0028575
Y0025273
Y0022733
X0174625
Y0025273
Y0028575
Y0031115
X017907
Y0028575
Y0025273
Y0022733
X0183515
Y0025273
Y0028575
Y0031115
X018796
Y0028575
Y0025273
Y0022733
X0192405
Y0025273
Y0028575
Y0031115
X019685
Y0028575
Y0025273
Y0022733
X0201295
Y0025273
Y0028575
Y0031115
X020574
Y0028575
Y0025273
Y0022733
X0210185
Y0025273
Y0028575
Y0031115
X021463
Y0028575
Y0025273
Y0022733
X0219075
Y0025273
Y0028575
Y0031115
X022352
Y0028575
Y0025273
Y0022733
X0227965
Y0025273
Y0028575
Y0031115
X023241
Y0028575
Y0025273
Y0022733
X0236855
Y0025273
Y0028575
Y0031115
X02413
Y0028575
Y0025273
Y0022733
X0245745
Y0025273
Y0028575
Y0031115
X025019
Y0028575
Y0025273
Y0022733
X0254635
Y0025273
Y0028575
Y0031115
X025908
Y0028575
Y0025273
Y0022733
X0263525
Y0025273
Y0028575
Y0031115
X026797
Y0028575
Y0025273
Y0022733
X0272415
Y0025273
Y0028575
Y0031115
X027686
Y0028575
Y0025273
Y0022733
X0281305
Y0025273
Y0028575
Y0031115
X028575
Y0028575
Y0025273
Y0022733
X0290195
Y0025273
Y0028575
Y0031115
X00353994Y00402281
X00325422Y00436332
X00305965Y00420005
X0028067Y0039878
X00277393Y00454055
X0029685Y00470382
X00268278Y00504433
X00248821Y00488106
X00223526Y00466881
X00204069Y00450554
X00232641Y00416504
X00252098Y00432831
T05
X0300863Y0062611
Y0065151
X0129032Y0084963
X0126492
T06
X0199644Y0078105
X0197104
X0122174Y008509
X0119634
X0196977Y00843479
X0199517
X02286Y0092583
X023622Y0084963
T07
X0192278Y0077597
X0188722Y008001
Y008763
X0192278Y0085217
T08
X028321Y007366
Y00762
Y007874
X029845
Y00762
Y007366
X027178Y007747
X0254
X0238506Y0071882
X0235966
X0233426
X0230886
X0228346
X0225806
X0143637Y010668
X0141097
X0138557
X0254Y010541
Y010287
Y010033
Y009779
Y009525
Y009271
Y009017
Y008763
Y008509
Y008255
Y008001
X027178
Y008255
Y008509
Y008763
Y009017
Y009271
Y009525
Y009779
Y010033
Y010287
Y010541
Y010795
Y011049
X0254
Y010795
X028321Y010668
Y010414
Y01016
Y009906
Y009652
Y009398
Y009144
Y00889
Y008636
Y008382
Y008128
X029845
Y008382
Y008636
Y00889
Y009144
Y009398
Y009652
Y009906
Y01016
Y010414
Y010668
Y010922
X028321
T09
X0122174Y0091948
X0124714
X0127254
T10
X0153607Y0103701
X0158242Y0100701
X0162877Y0103701
X0166307Y0103699
X0170942Y0100699
X0175577Y0103699
T11
X0188467Y009652
X0193167
X0197867
Y0108458
X0193167
X0188467
T12
X0185942Y0061341
X0143242
M30
